<?xml version="1.0" standalone="no"?>
<!DOCTYPE svg PUBLIC "-//W3C//DTD SVG 1.1//EN" "http://www.w3.org/Graphics/SVG/1.1/DTD/svg11.dtd" >
<svg>
<metadata>
Created by FontForge 20090914 at Sun Jan 24 13:03:55 2021
 By www-data
&#194;&#169;2004 Nate Piekos. www.blambot.com
</metadata>
<defs>
<font id="LowRiderBB" horiz-adv-x="331" >
  <font-face 
    font-family="LowRider BB"
    font-weight="400"
    font-stretch="normal"
    units-per-em="1024"
    panose-1="2 11 6 3 5 3 2 2 2 4"
    ascent="819"
    descent="-205"
    x-height="722"
    cap-height="722"
    bbox="-11 -72 988 800"
    underline-thickness="0"
    underline-position="0"
    unicode-range="U+0020-U+201D"
  />
<missing-glyph horiz-adv-x="512" 
d="M64 0v800h384v-800h-384zM128 64h256v672h-256v-672z" />
    <glyph glyph-name=".notdef" horiz-adv-x="512" 
d="M64 0v800h384v-800h-384zM128 64h256v672h-256v-672z" />
    <glyph glyph-name="space" unicode=" " 
 />
    <glyph glyph-name="exclam" unicode="!" horiz-adv-x="333" 
d="M299 273h-258v449h155c26 0 49 -7.66699 69 -23c22.667 -16.667 34 -37.667 34 -63v-363zM300 0l-196 -0.000976562c-18 0 -33 6.5 -45 19.5s-18 28.5 -18 46.5v134h173c23.333 0 43.5 -7.16699 60.5 -21.5s25.5 -33.166 25.5 -56.499v-122z" />
    <glyph glyph-name="quotedbl" unicode="&#x22;" horiz-adv-x="673" 
d="M304 453l-196 -0.000976562c-18 0 -33 6.66699 -45 20s-18 29 -18 47v201h173c23.333 0 43.5 -7.16699 60.5 -21.5s25.5 -33.166 25.5 -56.499v-190zM633 450.999l-196 -0.000976562c-18 0 -33 6.66699 -45 20s-18 29 -18 47v201h173c23.333 0 43.5 -7.16699 60.5 -21.5
s25.5 -33.166 25.5 -56.499v-190z" />
    <glyph glyph-name="numbersign" unicode="#" horiz-adv-x="760" 
d="M733 126h-56v-41c0 -25.333 -11.333 -46.333 -34 -63c-20 -14.667 -43.333 -22 -70 -22h-155v126h-65v-126h-258v126h-57v167h57v130h-57v167h57v46c0 25.333 10.667 46 32 62s45 24 71 24h155v-132h65v132h259v-132h56v-167h-56v-130h56v-167zM418 293v130h-65v-130h65z
" />
    <glyph glyph-name="dollar" unicode="$" horiz-adv-x="642" 
d="M608 88c0 -24.667 -8.5 -45.5 -25.5 -62.5s-37.833 -25.5 -62.5 -25.5h-72v-72h-259v72h-159v206h269c34.667 0 52 10.667 52 32v3c0 15.333 -10.333 26 -31 32h-200c-59.333 0 -89 30 -89 90v134c-0.666992 59.333 -1 103.666 -1 132.999c0 24 8.5 45.333 25.5 64
s37.5 28 61.5 28h72v78h156c24.667 0 46.667 -6.66699 66 -20c22 -15.333 34 -34.666 36 -57.999h161v-210h-270c-34 0 -51 -10.333 -51 -31l-1 -4c0 -16 10.333 -26.667 31 -32h200c60 0 90 -30.333 90 -91c0 -44 0.333008 -88.333 1 -133v-133z" />
    <glyph glyph-name="percent" unicode="%" horiz-adv-x="621" 
d="M601 0l-196 -0.000976562c-18 0 -33 6.66699 -45 20s-18 29 -18 47v11c-8 -16 -24.833 -33 -50.5 -51s-46.834 -27 -63.501 -27h-172l163 453h-121c-17.333 0 -32.166 6.83301 -44.499 20.5s-18.5 29.167 -18.5 46.5v201h173c50 0 78.667 -22.333 86 -67
c10.667 16.667 27.167 32.167 49.5 46.5s42.5 21.5 60.5 21.5h169l-162 -454h104c23.333 0 43.5 -7.16699 60.5 -21.5s25.5 -33.166 25.5 -56.499v-190z" />
    <glyph glyph-name="ampersand" unicode="&#x26;" horiz-adv-x="662" 
d="M628 -65l-196 -0.000976562c-16.667 0 -31.167 6.5 -43.5 19.5s-18.833 27.833 -19.5 44.5h-238c-24.667 0 -45.5 8.83301 -62.5 26.5s-25.5 38.834 -25.5 63.501v218c0 34 26 53.667 78 59v1c-52 11.333 -78 32.333 -78 63v200c0 24 8.66699 45.5 26 64.5
s38 28.5 62 28.5h496v-211h-275c-34.667 0 -52 -10.667 -52 -32v-3c0 -23.333 17.333 -35 52 -35c30.667 0 76.667 0.333008 138 1h138v-508zM369 202.999v70h-17c-34.667 0 -52 -10.667 -52 -32v-3c0 -23.333 17.333 -35 52 -35h17z" />
    <glyph glyph-name="quotesingle" unicode="'" horiz-adv-x="344" 
d="M304 453l-196 -0.000976562c-18 0 -33 6.66699 -45 20s-18 29 -18 47v201h173c23.333 0 43.5 -7.16699 60.5 -21.5s25.5 -33.166 25.5 -56.499v-190z" />
    <glyph glyph-name="parenleft" unicode="(" horiz-adv-x="392" 
d="M371 0l-255 0.000976562c-60 120 -90 240.333 -90 361c0 120 29.667 240 89 360h256c-68.667 -120.667 -103 -241.334 -103 -362.001c0 -120 34.333 -239.667 103 -359z" />
    <glyph glyph-name="parenright" unicode=")" horiz-adv-x="409" 
d="M291 0l-256 -0.000976562c68 119.333 102 239 102 359s-34 240.667 -102 362h255c60.667 -121.333 91 -242.333 91 -363c0 -119.333 -30 -238.666 -90 -357.999z" />
    <glyph glyph-name="asterisk" unicode="*" horiz-adv-x="441" 
d="M414 563l-62 -76l5 -107l-37 -24l-97 37l-89 -34l-44 27l4 101l-61 76l15 49l96 26l54 82h51l54 -82l96 -26z" />
    <glyph glyph-name="plus" unicode="+" horiz-adv-x="465" 
d="M431 277h-61.001v-74h-259v74h-69v167h69v14c0 26 11 47.333 33 64c20.667 14.667 44.334 22 71.001 22h155v-100h61v-167z" />
    <glyph glyph-name="comma" unicode="," horiz-adv-x="343" 
d="M310 -67h-198v67c-17.333 0 -32 6.66699 -44 20s-18 28.666 -18 45.999v134h173c24 0 44.5 -7.16699 61.5 -21.5s25.5 -33.166 25.5 -56.499v-189z" />
    <glyph glyph-name="hyphen" unicode="-" horiz-adv-x="332" 
d="M300 277h-260v167h260v-167z" />
    <glyph glyph-name="hyphen" unicode="&#x2010;" horiz-adv-x="332" 
d="M300 277h-260v167h260v-167z" />
    <glyph glyph-name="period" unicode="." horiz-adv-x="341" 
d="M307 0l-195 -0.000976562c-18 0 -33.167 6.5 -45.5 19.5s-18.5 28.5 -18.5 46.5v134h173c24 0 44.333 -7.16699 61 -21.5s25 -33.166 25 -56.499v-122z" />
    <glyph glyph-name="slash" unicode="/" horiz-adv-x="503" 
d="M506 722l-228.999 -639.999c-5.33301 -16 -21.833 -33.667 -49.5 -53s-49.834 -29 -66.501 -29h-172l229 638c6.66699 19.333 23 38.166 49 56.499s49.333 27.5 70 27.5h169z" />
    <glyph glyph-name="zero" unicode="0" horiz-adv-x="667" 
d="M628 84c0 -26 -8 -46.333 -24 -61s-37 -22 -63 -22h-407c-26 0 -47 7.33301 -63 22s-24 35 -24 61v552c0 26 8 46.833 24 62.5s37 23.5 63 23.5h407c26 0 47 -7.83301 63 -23.5s24 -36.5 24 -62.5v-552zM375 253v205c0 35.333 -10 53 -30 53h-5
c-23.333 0 -35 -17.667 -35 -53v-205c0 -34.667 11.667 -52 35 -52h3c21.333 0 32 17.333 32 52z" />
    <glyph glyph-name="one" unicode="1" horiz-adv-x="405" 
d="M366 82c0 -16.667 -10.167 -34.5 -30.5 -53.5s-38.833 -28.5 -55.5 -28.5h-172v513h-67v208l325 1v-640z" />
    <glyph glyph-name="two" unicode="2" horiz-adv-x="571" 
d="M541 0l-501 0.000976562l196 514h-196v209h351c50 0 84 -20.333 102 -61c12.667 -28.667 19 -53.334 19 -74.001c0 -11.333 -1.66699 -21.333 -5 -30l-131 -349h165v-209z" />
    <glyph glyph-name="three" unicode="3" horiz-adv-x="576" 
d="M538 89c0 -24 -8.66699 -44.666 -26 -61.999s-38 -26 -62 -26h-415v203h194c34.667 0 52 11 52 33v3c0 23.333 -17.333 35 -52 35h-194v170h194c34.667 0 52 11.667 52 35v3c0 21.333 -17.333 32 -52 32h-194v208h415c24 0 44.667 -8.83301 62 -26.5s26 -38.5 26 -62.5
v-203c0 -40.667 -28 -65.334 -84 -74.001v-2c56 -4.66699 84 -26 84 -64v-202z" />
    <glyph glyph-name="four" unicode="4" horiz-adv-x="655" 
d="M617 0h-181c-20.667 0 -38.667 9 -54 27s-23 37.667 -23 59v191l-249 1c-48 11.333 -72 38.666 -72 81.999v363l256 -1v-210c0 -46.667 10.333 -69.667 31 -69c22.667 0.666992 34 23.334 34 68.001v211h164c62.667 0 94 -28 94 -84v-638z" />
    <glyph glyph-name="five" unicode="5" horiz-adv-x="654" 
d="M619 89c0 -24.667 -8.5 -45.668 -25.5 -63.001s-37.833 -26 -62.5 -26h-491v208h270c34.667 0 52 11.667 52 35v4c0 12.667 -10.333 22 -31 28h-291v448h579v-208h-270c-34.667 0 -52 -11.667 -52 -35v-4c0 -13.333 10.333 -22.666 31 -27.999h200
c60 0 90 -30.333 90 -91v-135c0 -20 0.333008 -64.333 1 -133z" />
    <glyph glyph-name="six" unicode="6" horiz-adv-x="654" 
d="M620 88c0 -24 -8.66699 -44.666 -26 -61.999s-38 -26 -62 -26h-391c-66.667 0 -100 30 -100 90v551c0 54 29 81 87 81h492v-208h-269c-35.333 0 -53 -11.667 -53 -35v-3c0 -12.667 10.333 -22.334 31 -29.001h200c60 0 90.333 -30.333 91 -91v-268zM363 239.001v3
c0 14.667 -10.333 25.667 -31 33h-35v-68h14c34.667 0 52 10.667 52 32z" />
    <glyph glyph-name="seven" unicode="7" horiz-adv-x="607" 
d="M589 722l-108.998 -640c-2.66699 -16 -15.834 -33.667 -39.501 -53s-43.834 -29 -60.501 -29h-172l87 513h-265l1 208z" />
    <glyph glyph-name="eight" unicode="8" horiz-adv-x="659" 
d="M621 89c0 -24.667 -8.5 -45.5 -25.5 -62.5s-37.833 -25.5 -62.5 -25.5l-409 -1c-32 -0 -54.833 6.83301 -68.5 20.5s-20.5 36.5 -20.5 68.5v208c0 34.667 25.667 55.667 77 63v3c-22 0.666992 -39.333 5 -52 13c-16.667 10 -25 25.667 -25 47v213
c0 25.333 9.5 46 28.5 62s41.5 24 67.5 24l402 1c24 0 44.667 -9.5 62 -28.5s26 -40.5 26 -64.5v-207c-6.66699 -34 -33 -55.667 -79 -65v-3c42 -4 67.667 -24 77 -60c0 -20 0.666992 -88.667 2 -206zM363 478c0 22.667 -12 34 -36 34s-36 -11.333 -36 -34s12 -34 36 -34
s36 11.333 36 34zM363 238c0 22.667 -12 34 -36 34s-36 -11.333 -36 -34s12 -34 36 -34s36 11.333 36 34z" />
    <glyph glyph-name="nine" unicode="9" horiz-adv-x="654" 
d="M615 81c0 -54 -29 -81 -87 -81h-491v207h269c34.667 0 52 11.667 52 35v3c0 12.667 -10.333 22.667 -31 30h-100c-44.667 -0.666992 -78 -1 -100 -1c-60 0 -90 30.333 -90 91v268c0 24 8.5 44.833 25.5 62.5s37.5 26.5 61.5 26.5h392c66 0 99 -30.333 99 -91v-550z
M360 447v67.001h-15c-34.667 0 -52 -11.667 -52 -35v-3c0 -12.667 10.333 -22.334 31 -29.001h36z" />
    <glyph glyph-name="colon" unicode=":" horiz-adv-x="341" 
d="M307 273l-195 -0.000976562c-18 0 -33.167 6.66699 -45.5 20s-18.5 29 -18.5 47v134h173c24 0 44.333 -7.16699 61 -21.5s25 -33.166 25 -56.499v-123zM307 -0.000976562l-195 -0.000976562c-18 0 -33.167 6.5 -45.5 19.5s-18.5 28.5 -18.5 46.5v134h173
c24 0 44.333 -7.16699 61 -21.5s25 -33.166 25 -56.499v-122z" />
    <glyph glyph-name="semicolon" unicode=";" horiz-adv-x="343" 
d="M310 273l-196 -0.000976562c-18 0 -33.167 6.66699 -45.5 20s-18.5 29 -18.5 47v134h173c24 0 44.5 -7.16699 61.5 -21.5s25.5 -33.166 25.5 -56.499v-123zM310 -67.001h-198v67c-17.333 0 -32 6.66699 -44 20s-18 28.666 -18 45.999v134h173
c24 0 44.5 -7.16699 61.5 -21.5s25.5 -33.166 25.5 -56.499v-189z" />
    <glyph glyph-name="equal" unicode="=" horiz-adv-x="454" 
d="M429 423h-389v167h389v-167zM429 126h-389v167h389v-167z" />
    <glyph glyph-name="question" unicode="?" horiz-adv-x="585" 
d="M551 360c0 -58 -31.333 -87 -94 -87h-409v169h194c34.667 0 52 10.667 52 32v3c0 23.333 -17.333 35 -52 35h-194v211h415c24 0 44.667 -9.5 62 -28.5s26 -40.5 26 -64.5v-270zM307 0l-196 -0.000976562c-18 0 -33 6.5 -45 19.5s-18 28.5 -18 46.5v134h173
c23.333 0 43.5 -7.16699 60.5 -21.5s25.5 -33.166 25.5 -56.499v-122z" />
    <glyph glyph-name="at" unicode="@" horiz-adv-x="1027" 
d="M988 0h-307l-138 251h-63l-137 -251h-225c-21.333 0 -39.833 7 -55.5 21s-23.5 31.333 -23.5 52v650h870c21.333 0 39.833 -7 55.5 -21s23.5 -31.333 23.5 -52v-650zM726 197v312h-425v-312h31l148 257h63l149 -257h34z" />
    <glyph glyph-name="A" unicode="A" horiz-adv-x="670" 
d="M631 0l-253 1.00098v274h-70v-274l-258 -1v620c0 26.667 7.66699 49.667 23 69c16.667 22 37.667 33 63 33h408c26 0 47 -10.333 63 -31s24 -44.334 24 -71.001v-620zM378 445.001v13c0 35.333 -11.667 53 -35 53h-3c-21.333 0 -32 -17.667 -32 -53v-13h70z" />
    <glyph glyph-name="B" unicode="B" horiz-adv-x="674" 
d="M641 89c0 -24.667 -8.50098 -45.5 -25.501 -62.5s-37.833 -25.5 -62.5 -25.5l-497 -1v722h497c24 0 44.667 -9.33301 62 -28s26 -40 26 -64v-208c-7.33301 -34 -33.666 -55.667 -78.999 -65v-2c41.333 -4 67 -24 77 -60c0 -20 0.666992 -88.667 2 -206zM383.999 474v3
c0 23.333 -17.333 35 -52 35h-19v-70h19c34.667 0 52 10.667 52 32zM383.999 235v3c0 23.333 -17.333 35 -52 35h-19v-70h19c34.667 0 52 10.667 52 32z" />
    <glyph glyph-name="C" unicode="C" horiz-adv-x="653" 
d="M622 103c0 -26.667 -8 -50.334 -24 -71.001s-37 -31 -63 -31h-407c-26 0 -47.167 10.333 -63.5 31s-24.5 44.334 -24.5 71.001v517c0 26.667 8.16699 50.334 24.5 71.001s37.5 31 63.5 31h407c26 0 47 -10.333 63 -31s24 -44.334 24 -71.001v-176h-253v14
c0 35.333 -11.667 53 -35 53h-2c-22 0 -33 -17.667 -33 -53v-205c0 -34.667 11 -52 33 -52h2c23.333 0 35 17.333 35 52v24h253v-174z" />
    <glyph glyph-name="D" unicode="D" horiz-adv-x="666" 
d="M627 103c0 -26.667 -7.66699 -50 -23 -70c-17.333 -22 -38.666 -33 -63.999 -33h-495v723l495 -1c25.333 0 46.666 -10.667 63.999 -32c15.333 -20 23 -43.333 23 -70v-517zM374 253v205c0 35.333 -10.667 53 -32 53h-3c-23.333 0 -35 -17.667 -35 -53v-205
c0 -34.667 10.667 -52 32 -52h3c23.333 0 35 17.333 35 52z" />
    <glyph glyph-name="E" unicode="E" horiz-adv-x="575" 
d="M543 -1l-415 -0.000976562c-24.667 0 -45.5 8.83301 -62.5 26.5s-25.5 38.834 -25.5 63.501v541c0 24 8.66699 45.5 26 64.5s38 28.5 62 28.5h415v-211h-194c-34.667 0 -52 -12 -52 -36v1c0 -23.333 17.333 -35 52 -35h194v-169h-194c-34.667 0 -52 -11.667 -52 -35v-4
c0 -20.667 17.333 -31 52 -31h194v-204z" />
    <glyph glyph-name="F" unicode="F" horiz-adv-x="563" 
d="M532 277l-225 0.000976562v-277h-196c-18 0 -33 6.5 -45 19.5s-18 28.5 -18 46.5v570c0 18 8.33301 36.833 25 56.5s34 29.5 52 29.5l407 1v-211h-184c-27.333 -1.33301 -41 -12.333 -41 -33c0 -10.667 5 -19.334 15 -26.001c8 -6 17 -9 27 -9h183v-167zM307 479.001z
" />
    <glyph glyph-name="G" unicode="G" horiz-adv-x="672" 
d="M634 -2c0 -17.333 -6.16699 -32.334 -18.5 -45.001s-27.166 -19 -44.499 -19h-196v67h-237c-26 0 -47.167 10.333 -63.5 31s-24.5 44.334 -24.5 71.001v517c0 26.667 8.16699 50.334 24.5 71.001s37.5 31 63.5 31h407c26 0 47 -10.333 63 -31s24 -44.334 24 -71.001v-176
h-253v14c0 35.333 -12 53 -36 53h1c-23.333 0 -35 -17.667 -35 -53v-205c0 -34.667 10.667 -52 32 -52h3c14.667 0 25 9.66699 31 29v128h196c17.333 0 32.166 -6.33301 44.499 -19s18.5 -27.667 18.5 -45v-296z" />
    <glyph glyph-name="H" unicode="H" horiz-adv-x="670" 
d="M631 85c0 -25.333 -11.333 -46.333 -34 -63c-20 -14.667 -43.333 -22 -70 -22h-155v275h-65v-275h-258v636c0 25.333 10.667 46 32 62s45 24 71 24h155v-277h65v277h259v-637z" />
    <glyph glyph-name="I" unicode="I" 
d="M297 82c0 -16 -10.167 -33.667 -30.5 -53s-38.833 -29 -55.5 -29h-171v638c0 20 9.66699 39 29 57s39 27 59 27h169v-640z" />
    <glyph glyph-name="J" unicode="J" horiz-adv-x="491" 
d="M452 86c0 -20.667 -8.66699 -40.167 -26 -58.5s-36.333 -27.5 -57 -27.5h-331v165h155v558h176c24 0 43.833 -8.16699 59.5 -24.5s23.5 -36.5 23.5 -60.5v-552z" />
    <glyph glyph-name="K" unicode="K" horiz-adv-x="664" 
d="M626 286l-1 -286.001h-257v203c0 20 -6 36.833 -18 50.5s-27.667 20.834 -47 21.501v-275h-179c-24 0 -43.167 7.5 -57.5 22.5s-21.5 34.833 -21.5 59.5l1 641l257 -1v-277c43.333 -1.33301 65 20.667 65 66v211h258v-277c-9.33301 -46.667 -33.333 -74.667 -72 -84v-4
c43.333 -5.33301 67.333 -29 72 -71z" />
    <glyph glyph-name="L" unicode="L" horiz-adv-x="498" 
d="M462 0h-331c-20.667 0 -39.667 9 -57 27s-26 37.667 -26 59v552c0 24.667 7.66699 45 23 61s35.333 24 60 24h175v-558h156v-165z" />
    <glyph glyph-name="M" unicode="M" horiz-adv-x="988" 
d="M949 0l-253 1l-1 457c0 35.333 -11.667 53 -35 53h-2c-22 0 -33 -17.667 -33 -53l1 -457l-259 -1v477c-6 22.667 -16.667 34 -32 34h-1c-23.333 0 -35 -17.667 -35 -53l1 -457h-88c-6.66699 -0.666992 -36 -0.666992 -88 0c-55.333 0.666992 -83 28 -83 82v555
c0 26 8 46.5 24 61.5s37 22.5 63 22.5h148h149c16.667 0 32 -9 46 -27c12.667 -14.667 21 -31 25 -49h3c4.66699 17.333 13.5 34.333 26.5 51s27.5 25 43.5 25h293c26 0 47 -7.5 63 -22.5s24 -35.5 24 -61.5v-638z" />
    <glyph glyph-name="N" unicode="N" horiz-adv-x="662" 
d="M624 0l-253 1v457c0 35.333 -10.667 53 -32 53h-3c-23.333 0 -35 -17.667 -35 -53l1 -457l-259 -1l-2 722h496c26 0 47 -8 63 -24s24 -37 24 -63v-635z" />
    <glyph glyph-name="O" unicode="O" horiz-adv-x="667" 
d="M628 84c0 -26 -8 -46.333 -24 -61s-37 -22 -63 -22h-407c-26 0 -47 7.33301 -63 22s-24 35 -24 61v552c0 26 8 46.833 24 62.5s37 23.5 63 23.5h407c26 0 47 -7.83301 63 -23.5s24 -36.5 24 -62.5v-552zM375 253v205c0 35.333 -10 53 -30 53h-5
c-23.333 0 -35 -17.667 -35 -53v-205c0 -34.667 11.667 -52 35 -52h3c21.333 0 32 17.333 32 52z" />
    <glyph glyph-name="P" unicode="P" horiz-adv-x="662" 
d="M637 337c-6.66699 -34.667 -29.999 -56.667 -69.999 -66l-257 2v-273h-180c-56.667 0 -82.334 27.667 -77.001 83v639h496c24 0 44.667 -9.33301 62 -28s26 -40 26 -64v-293zM380.001 477v3c0 21.333 -17.333 32 -52 32h-18v-70h18c34.667 0 52 11.667 52 35z" />
    <glyph glyph-name="Q" unicode="Q" horiz-adv-x="666" 
d="M634 85c0 -26 -8 -46.499 -24 -61.499s-37 -22.5 -63 -22.5h-79c-6 -14.667 -17.5 -29.334 -34.5 -44.001s-32.833 -22 -47.5 -22h-172v66h-74c-26 0 -47 7.5 -63 22.5s-24 35.5 -24 61.5v551c0 26 8 46.833 24 62.5s37 23.5 63 23.5h407c26 0 47 -7.83301 63 -23.5
s24 -36.5 24 -62.5v-551zM381 253.001v205c0 35.333 -11.667 53 -35 53h-2c-22 0 -33 -17.667 -33 -53v-205c0 -34.667 11.667 -52 35 -52h3c21.333 0 32 17.333 32 52z" />
    <glyph glyph-name="R" unicode="R" horiz-adv-x="677" 
d="M645 254c0.666992 -31.333 0.333008 -73.667 -1 -127c-0.666992 -62 -1 -104.333 -1 -127h-257v203c0 46.667 -23 70 -69 70v-273h-257v722h496c24 0 44.667 -9.33301 62 -28s26 -40 26 -64v-242c0 -17.333 -11 -33.666 -33 -48.999c-19.333 -14 -38.333 -22 -57 -24v-2
c19.333 -2.66699 38 -8.33398 56 -17.001c23.333 -12 35 -26 35 -42zM386.999 476.999v3c0 21.333 -17.333 32 -52 32h-18v-70h18c34.667 0 52 11.667 52 35z" />
    <glyph glyph-name="S" unicode="S" horiz-adv-x="674" 
d="M629 88c0 -24.667 -8.50098 -45.5 -25.501 -62.5s-37.833 -25.5 -62.5 -25.5h-490v206h269c34.667 0 52 10.667 52 32v3c0 15.333 -10.333 26 -31 32h-200c-60 0 -90 30 -90 90v267c0 24.667 8.33301 46.167 25 64.5s37.334 27.5 62.001 27.5h491v-210h-270
c-34.667 0 -52 -11.667 -52 -35v-3c0 -14 10.333 -23.667 31 -29h199c60.667 0 91 -30.333 91 -91v-133c0 -20 0.333008 -64.333 1 -133z" />
    <glyph glyph-name="T" unicode="T" horiz-adv-x="534" 
d="M504 514h-102.001v-514h-205c-17.333 0 -30.666 10 -39.999 30c-8 16 -12 33.667 -12 53v431h-102v208h461v-208z" />
    <glyph glyph-name="U" unicode="U" horiz-adv-x="668" 
d="M629 103c0 -26.667 -7.66699 -50 -23 -70c-16.667 -22 -38 -33 -64 -33h-407c-26 0 -47.333 11 -64 33c-16 20 -24 43.333 -24 70v536c0 55.333 28.667 83 86 83h167l1 -458c0 -34.667 11.667 -52 35 -52h3c21.333 0 32 17.333 32 52l-1 458h259v-619z" />
    <glyph glyph-name="V" unicode="V" horiz-adv-x="657" 
d="M622 203l-161 -203h-260l-161 203l1 519h252l1 -458l35 -52l10 15l25 37l-1 458h259v-519z" />
    <glyph glyph-name="W" unicode="W" horiz-adv-x="988" 
d="M955 85c0 -26 -7.99902 -46.666 -23.999 -61.999s-37 -23 -63 -23h-293c-16 0 -30.5 8.33301 -43.5 25s-21.833 34 -26.5 52h-3c-4 -18.667 -12 -35.334 -24 -50.001c-14.667 -18 -30.334 -27 -47.001 -27h-297c-26 0 -47 7.66699 -63 23s-24 36 -24 62v554
c0 55.333 27.667 83 83 83h176l-1 -458c0 -34.667 11.667 -52 35 -52h3c14 0 24 11.333 30 34v476h259l-1 -458c0 -34.667 11 -52 33 -52h2c23.333 0 35 17.333 35 52l1 458h253v-637z" />
    <glyph glyph-name="X" unicode="X" horiz-adv-x="677" 
d="M633 277l-1 -191c0 -57.333 -32.667 -86 -98 -86h-159v203c0 48 -11 72 -33 72c-21.333 0 -32 -23.667 -32 -71v-204h-259l1 276c0 21.333 7 39.666 21 54.999s31.667 25.333 53 30v3c-48.667 10 -73 37 -73 81v193c0 24.667 8.5 45 25.5 61s38.167 24 63.5 24l168 -1
v-210c0 -46.667 10.333 -69.667 31 -69c22.667 0.666992 34 23.334 34 68.001v211h258v-277c-9.33301 -46.667 -33.333 -74.667 -72 -84v-4c43.333 -5.33301 67.333 -32 72 -80z" />
    <glyph glyph-name="Y" unicode="Y" horiz-adv-x="653" 
d="M621 360c-10 -46 -34 -74 -72 -84h-89v-276h-181c-20 0 -37.833 8 -53.5 24s-23.5 34 -23.5 54v200h-88c-48.667 11.333 -73 38.666 -73 81.999l1 363l256 -1v-210c0 -46.667 10.333 -69.667 31 -69c22.667 0.666992 34 23.334 34 68.001v211h164c62.667 0 94 -28 94 -84
v-278z" />
    <glyph glyph-name="Z" unicode="Z" horiz-adv-x="571" 
d="M538 0h-446c-14 0 -28.667 8 -44 24c-9.33301 10 -14 21.333 -14 34c0 8 1.66699 16.667 5 26l163 426h-164v213l500 -1l-195 -514h195v-208z" />
    <glyph glyph-name="backslash" unicode="\" horiz-adv-x="531" 
d="M521 0l-172.002 0.000976562c-17.333 0 -39.666 9.66699 -66.999 29s-43.666 37 -48.999 53l-229 640h169c20 0 43 -9.33301 69 -28s42.667 -37.334 50 -56.001z" />
    <glyph glyph-name="underscore" unicode="_" horiz-adv-x="453" 
d="M417 -3h-377v167h377v-167z" />
    <glyph glyph-name="a" unicode="a" horiz-adv-x="670" 
d="M631 0l-253 1.00098v274h-70v-274l-258 -1v620c0 26.667 7.66699 49.667 23 69c16.667 22 37.667 33 63 33h408c26 0 47 -10.333 63 -31s24 -44.334 24 -71.001v-620zM378 445.001v13c0 35.333 -11.667 53 -35 53h-3c-21.333 0 -32 -17.667 -32 -53v-13h70z" />
    <glyph glyph-name="b" unicode="b" horiz-adv-x="674" 
d="M641 89c0 -24.667 -8.50098 -45.5 -25.501 -62.5s-37.833 -25.5 -62.5 -25.5l-497 -1v722h497c24 0 44.667 -9.33301 62 -28s26 -40 26 -64v-208c-7.33301 -34 -33.666 -55.667 -78.999 -65v-2c41.333 -4 67 -24 77 -60c0 -20 0.666992 -88.667 2 -206zM383.999 474v3
c0 23.333 -17.333 35 -52 35h-19v-70h19c34.667 0 52 10.667 52 32zM383.999 235v3c0 23.333 -17.333 35 -52 35h-19v-70h19c34.667 0 52 10.667 52 32z" />
    <glyph glyph-name="c" unicode="c" horiz-adv-x="653" 
d="M622 103c0 -26.667 -8 -50.334 -24 -71.001s-37 -31 -63 -31h-407c-26 0 -47.167 10.333 -63.5 31s-24.5 44.334 -24.5 71.001v517c0 26.667 8.16699 50.334 24.5 71.001s37.5 31 63.5 31h407c26 0 47 -10.333 63 -31s24 -44.334 24 -71.001v-176h-253v14
c0 35.333 -11.667 53 -35 53h-2c-22 0 -33 -17.667 -33 -53v-205c0 -34.667 11 -52 33 -52h2c23.333 0 35 17.333 35 52v24h253v-174z" />
    <glyph glyph-name="d" unicode="d" horiz-adv-x="666" 
d="M627 103c0 -26.667 -7.66699 -50 -23 -70c-17.333 -22 -38.666 -33 -63.999 -33h-495v723l495 -1c25.333 0 46.666 -10.667 63.999 -32c15.333 -20 23 -43.333 23 -70v-517zM374 253v205c0 35.333 -10.667 53 -32 53h-3c-23.333 0 -35 -17.667 -35 -53v-205
c0 -34.667 10.667 -52 32 -52h3c23.333 0 35 17.333 35 52z" />
    <glyph glyph-name="e" unicode="e" horiz-adv-x="575" 
d="M543 -1l-415 -0.000976562c-24.667 0 -45.5 8.83301 -62.5 26.5s-25.5 38.834 -25.5 63.501v541c0 24 8.66699 45.5 26 64.5s38 28.5 62 28.5h415v-211h-194c-34.667 0 -52 -12 -52 -36v1c0 -23.333 17.333 -35 52 -35h194v-169h-194c-34.667 0 -52 -11.667 -52 -35v-4
c0 -20.667 17.333 -31 52 -31h194v-204z" />
    <glyph glyph-name="f" unicode="f" horiz-adv-x="563" 
d="M532 277l-225 0.000976562v-277h-196c-18 0 -33 6.5 -45 19.5s-18 28.5 -18 46.5v570c0 18 8.33301 36.833 25 56.5s34 29.5 52 29.5l407 1v-211h-184c-27.333 -1.33301 -41 -12.333 -41 -33c0 -10.667 5 -19.334 15 -26.001c8 -6 17 -9 27 -9h183v-167zM307 479.001z
" />
    <glyph glyph-name="g" unicode="g" horiz-adv-x="672" 
d="M634 -2c0 -17.333 -6.16699 -32.334 -18.5 -45.001s-27.166 -19 -44.499 -19h-196v67h-237c-26 0 -47.167 10.333 -63.5 31s-24.5 44.334 -24.5 71.001v517c0 26.667 8.16699 50.334 24.5 71.001s37.5 31 63.5 31h407c26 0 47 -10.333 63 -31s24 -44.334 24 -71.001v-176
h-253v14c0 35.333 -12 53 -36 53h1c-23.333 0 -35 -17.667 -35 -53v-205c0 -34.667 10.667 -52 32 -52h3c14.667 0 25 9.66699 31 29v128h196c17.333 0 32.166 -6.33301 44.499 -19s18.5 -27.667 18.5 -45v-296z" />
    <glyph glyph-name="h" unicode="h" horiz-adv-x="670" 
d="M631 85c0 -25.333 -11.333 -46.333 -34 -63c-20 -14.667 -43.333 -22 -70 -22h-155v275h-65v-275h-258v636c0 25.333 10.667 46 32 62s45 24 71 24h155v-277h65v277h259v-637z" />
    <glyph glyph-name="i" unicode="i" 
d="M297 82c0 -16 -10.167 -33.667 -30.5 -53s-38.833 -29 -55.5 -29h-171v638c0 20 9.66699 39 29 57s39 27 59 27h169v-640z" />
    <glyph glyph-name="j" unicode="j" horiz-adv-x="491" 
d="M452 86c0 -20.667 -8.66699 -40.167 -26 -58.5s-36.333 -27.5 -57 -27.5h-331v165h155v558h176c24 0 43.833 -8.16699 59.5 -24.5s23.5 -36.5 23.5 -60.5v-552z" />
    <glyph glyph-name="k" unicode="k" horiz-adv-x="664" 
d="M626 286l-1 -286.001h-257v203c0 20 -6 36.833 -18 50.5s-27.667 20.834 -47 21.501v-275h-179c-24 0 -43.167 7.5 -57.5 22.5s-21.5 34.833 -21.5 59.5l1 641l257 -1v-277c43.333 -1.33301 65 20.667 65 66v211h258v-277c-9.33301 -46.667 -33.333 -74.667 -72 -84v-4
c43.333 -5.33301 67.333 -29 72 -71z" />
    <glyph glyph-name="l" unicode="l" horiz-adv-x="498" 
d="M462 0h-331c-20.667 0 -39.667 9 -57 27s-26 37.667 -26 59v552c0 24.667 7.66699 45 23 61s35.333 24 60 24h175v-558h156v-165z" />
    <glyph glyph-name="m" unicode="m" horiz-adv-x="988" 
d="M949 0l-253 1l-1 457c0 35.333 -11.667 53 -35 53h-2c-22 0 -33 -17.667 -33 -53l1 -457l-259 -1v477c-6 22.667 -16.667 34 -32 34h-1c-23.333 0 -35 -17.667 -35 -53l1 -457h-88c-6.66699 -0.666992 -36 -0.666992 -88 0c-55.333 0.666992 -83 28 -83 82v555
c0 26 8 46.5 24 61.5s37 22.5 63 22.5h148h149c16.667 0 32 -9 46 -27c12.667 -14.667 21 -31 25 -49h3c4.66699 17.333 13.5 34.333 26.5 51s27.5 25 43.5 25h293c26 0 47 -7.5 63 -22.5s24 -35.5 24 -61.5v-638z" />
    <glyph glyph-name="n" unicode="n" horiz-adv-x="662" 
d="M624 0l-253 1v457c0 35.333 -10.667 53 -32 53h-3c-23.333 0 -35 -17.667 -35 -53l1 -457l-259 -1l-2 722h496c26 0 47 -8 63 -24s24 -37 24 -63v-635z" />
    <glyph glyph-name="o" unicode="o" horiz-adv-x="667" 
d="M628 84c0 -26 -8 -46.333 -24 -61s-37 -22 -63 -22h-407c-26 0 -47 7.33301 -63 22s-24 35 -24 61v552c0 26 8 46.833 24 62.5s37 23.5 63 23.5h407c26 0 47 -7.83301 63 -23.5s24 -36.5 24 -62.5v-552zM375 253v205c0 35.333 -10 53 -30 53h-5
c-23.333 0 -35 -17.667 -35 -53v-205c0 -34.667 11.667 -52 35 -52h3c21.333 0 32 17.333 32 52z" />
    <glyph glyph-name="p" unicode="p" horiz-adv-x="662" 
d="M637 337c-6.66699 -34.667 -29.999 -56.667 -69.999 -66l-257 2v-273h-180c-56.667 0 -82.334 27.667 -77.001 83v639h496c24 0 44.667 -9.33301 62 -28s26 -40 26 -64v-293zM380.001 477v3c0 21.333 -17.333 32 -52 32h-18v-70h18c34.667 0 52 11.667 52 35z" />
    <glyph glyph-name="q" unicode="q" horiz-adv-x="666" 
d="M634 85c0 -26 -8 -46.499 -24 -61.499s-37 -22.5 -63 -22.5h-79c-6 -14.667 -17.5 -29.334 -34.5 -44.001s-32.833 -22 -47.5 -22h-172v66h-74c-26 0 -47 7.5 -63 22.5s-24 35.5 -24 61.5v551c0 26 8 46.833 24 62.5s37 23.5 63 23.5h407c26 0 47 -7.83301 63 -23.5
s24 -36.5 24 -62.5v-551zM381 253.001v205c0 35.333 -11.667 53 -35 53h-2c-22 0 -33 -17.667 -33 -53v-205c0 -34.667 11.667 -52 35 -52h3c21.333 0 32 17.333 32 52z" />
    <glyph glyph-name="r" unicode="r" horiz-adv-x="677" 
d="M645 254c0.666992 -31.333 0.333008 -73.667 -1 -127c-0.666992 -62 -1 -104.333 -1 -127h-257v203c0 46.667 -23 70 -69 70v-273h-257v722h496c24 0 44.667 -9.33301 62 -28s26 -40 26 -64v-242c0 -17.333 -11 -33.666 -33 -48.999c-19.333 -14 -38.333 -22 -57 -24v-2
c19.333 -2.66699 38 -8.33398 56 -17.001c23.333 -12 35 -26 35 -42zM386.999 476.999v3c0 21.333 -17.333 32 -52 32h-18v-70h18c34.667 0 52 11.667 52 35z" />
    <glyph glyph-name="s" unicode="s" horiz-adv-x="674" 
d="M629 88c0 -24.667 -8.50098 -45.5 -25.501 -62.5s-37.833 -25.5 -62.5 -25.5h-490v206h269c34.667 0 52 10.667 52 32v3c0 15.333 -10.333 26 -31 32h-200c-60 0 -90 30 -90 90v267c0 24.667 8.33301 46.167 25 64.5s37.334 27.5 62.001 27.5h491v-210h-270
c-34.667 0 -52 -11.667 -52 -35v-3c0 -14 10.333 -23.667 31 -29h199c60.667 0 91 -30.333 91 -91v-133c0 -20 0.333008 -64.333 1 -133z" />
    <glyph glyph-name="t" unicode="t" horiz-adv-x="534" 
d="M504 514h-102.001v-514h-205c-17.333 0 -30.666 10 -39.999 30c-8 16 -12 33.667 -12 53v431h-102v208h461v-208z" />
    <glyph glyph-name="u" unicode="u" horiz-adv-x="668" 
d="M629 103c0 -26.667 -7.66699 -50 -23 -70c-16.667 -22 -38 -33 -64 -33h-407c-26 0 -47.333 11 -64 33c-16 20 -24 43.333 -24 70v536c0 55.333 28.667 83 86 83h167l1 -458c0 -34.667 11.667 -52 35 -52h3c21.333 0 32 17.333 32 52l-1 458h259v-619z" />
    <glyph glyph-name="v" unicode="v" horiz-adv-x="657" 
d="M622 203l-161 -203h-260l-161 203l1 519h252l1 -458l35 -52l10 15l25 37l-1 458h259v-519z" />
    <glyph glyph-name="w" unicode="w" horiz-adv-x="988" 
d="M955 85c0 -26 -7.99902 -46.666 -23.999 -61.999s-37 -23 -63 -23h-293c-16 0 -30.5 8.33301 -43.5 25s-21.833 34 -26.5 52h-3c-4 -18.667 -12 -35.334 -24 -50.001c-14.667 -18 -30.334 -27 -47.001 -27h-149h-148c-26 0 -47 7.66699 -63 23s-24 36 -24 62v554
c0 55.333 27.667 83 83 83h176l-1 -458c0 -34.667 11.667 -52 35 -52h3c14 0 24 11.333 30 34v476h259l-1 -458c0 -34.667 11 -52 33 -52h2c23.333 0 35 17.333 35 52l1 458h253v-637z" />
    <glyph glyph-name="x" unicode="x" horiz-adv-x="677" 
d="M633 277l-1 -191c0 -57.333 -32.667 -86 -98 -86h-159v203c0 48 -11 72 -33 72c-21.333 0 -32 -23.667 -32 -71v-204h-259l1 276c0 21.333 7 39.666 21 54.999s31.667 25.333 53 30v3c-48.667 10 -73 37 -73 81v193c0 24.667 8.5 45 25.5 61s38.167 24 63.5 24l168 -1
v-210c0 -46.667 10.333 -69.667 31 -69c22.667 0.666992 34 23.334 34 68.001v211h258v-277c-9.33301 -46.667 -33.333 -74.667 -72 -84v-4c43.333 -5.33301 67.333 -32 72 -80z" />
    <glyph glyph-name="y" unicode="y" horiz-adv-x="653" 
d="M621 360c-10 -46 -34 -74 -72 -84h-89v-276h-181c-20 0 -37.833 8 -53.5 24s-23.5 34 -23.5 54v200h-88c-48.667 11.333 -73 38.666 -73 81.999l1 363l256 -1v-210c0 -46.667 10.333 -69.667 31 -69c22.667 0.666992 34 23.334 34 68.001v211h164c62.667 0 94 -28 94 -84
v-278z" />
    <glyph glyph-name="z" unicode="z" horiz-adv-x="571" 
d="M538 0h-446c-14 0 -28.667 8 -44 24c-9.33301 10 -14 21.333 -14 34c0 8 1.66699 16.667 5 26l163 426h-164v213l500 -1l-195 -514h195v-208z" />
    <glyph glyph-name="braceleft" unicode="{" 
 />
    <glyph glyph-name="quoteleft" unicode="&#x2018;" horiz-adv-x="353" 
d="M326 453l-195.999 -0.000976562c-17.333 0 -33.333 6.66699 -48 20s-23.334 29 -26.001 47l-35 201h173c24 0 45.667 -7.16699 65 -21.5s31 -33.166 35 -56.499z" />
    <glyph glyph-name="quoteright" unicode="&#x2019;" horiz-adv-x="350" 
d="M20 451l196 -0.000976562c18 0 34.167 6.66699 48.5 20s23.166 29 26.499 47l34 201h-173c-23.333 0 -44.666 -7.16699 -63.999 -21.5s-31 -33.166 -35 -56.499z" />
    <glyph glyph-name="quotedblleft" unicode="&#x201c;" horiz-adv-x="673" 
d="M326 453l-195.999 -0.000976562c-17.333 0 -33.333 6.66699 -48 20s-23.334 29 -26.001 47l-35 201h173c24 0 45.667 -7.16699 65 -21.5s31 -33.166 35 -56.499zM656.001 450.999l-196 -0.000976562c-18 0 -34.167 6.66699 -48.5 20s-23.166 29 -26.499 47l-34 201h173
c23.333 0 44.666 -7.16699 63.999 -21.5s31 -33.166 35 -56.499z" />
    <glyph glyph-name="quotedblright" unicode="&#x201d;" horiz-adv-x="673" 
d="M350 453l195.999 -0.000976562c17.333 0 33.333 6.66699 48 20s23.334 29 26.001 47l35 201h-173c-24 0 -45.667 -7.16699 -65 -21.5s-31 -33.166 -35 -56.499zM19.999 450.999l196 -0.000976562c18 0 34.167 6.66699 48.5 20s23.166 29 26.499 47l34 201h-173
c-23.333 0 -44.666 -7.16699 -63.999 -21.5s-31 -33.166 -35 -56.499z" />
    <glyph glyph-name=".null" horiz-adv-x="0" 
 />
    <glyph glyph-name="nonmarkingreturn" 
 />
    <glyph glyph-name="glyph93" 
 />
  </font>
</defs>
</svg>
