<?xml version="1.0" standalone="no"?>
<!DOCTYPE svg PUBLIC "-//W3C//DTD SVG 1.1//EN" "http://www.w3.org/Graphics/SVG/1.1/DTD/svg11.dtd" >
<svg>
<metadata>
Created by FontForge 20090914 at Sun Jan 24 13:03:08 2021
 By www-data
(c) 1996-2015 Typodermic Fonts Inc. See attached license agreement. If agreement is missing visit typodermicfonts.com for more info.
</metadata>
<defs>
<font id="Stormfaze-Regular" horiz-adv-x="679" >
  <font-face 
    font-family="Stormfaze"
    font-weight="400"
    font-stretch="normal"
    units-per-em="1000"
    panose-1="4 3 6 4 2 11 2 2 10 4"
    ascent="729"
    descent="-271"
    x-height="700"
    cap-height="700"
    bbox="-179 -271.001 1213 929.002"
    underline-thickness="20"
    underline-position="-123"
    unicode-range="U+0017-U+25CA"
  />
<missing-glyph horiz-adv-x="455" 
 />
    <glyph glyph-name=".notdef" horiz-adv-x="455" 
 />
    <glyph glyph-name="uni0017" horiz-adv-x="455" 
 />
    <glyph glyph-name="space" unicode=" " horiz-adv-x="350" 
 />
    <glyph glyph-name="exclam" unicode="!" horiz-adv-x="321" 
d="M245 184v-184h-169v184h169zM255 700v-432h-189v432h189z" />
    <glyph glyph-name="quotedbl" unicode="&#x22;" horiz-adv-x="502" 
d="M210 700v-271h-169v271h169zM461 700v-271h-169v271h169z" />
    <glyph glyph-name="numbersign" unicode="#" horiz-adv-x="618" 
d="M256 701v-175h106v175h114v-175h93v-114h-93v-126h93v-114h-93v-172h-114v172h-106v-172h-114v172h-93v114h93v126h-93v114h93v175h114zM256 286h106v126h-106v-126z" />
    <glyph glyph-name="dollar" unicode="$" horiz-adv-x="649" 
d="M387 800l0.00195312 -100h177v-183h-293c-24 0 -36 -12.667 -36 -38v-21c0 -24 11 -36 33 -36h152c61.333 0 105.166 -14.167 131.499 -42.5s39.5 -68.833 39.5 -121.5v-72c0 -124 -63 -186 -189 -186h-15v-100h-118v100h-200v184h308c24 0 36 12.667 36 38v21
c0 12 -2.33301 21 -7 27s-13.334 9 -26.001 9h-162c-28.667 0 -53.167 3.83301 -73.5 11.5s-37 18.334 -50 32.001s-22.5 29.667 -28.5 48s-9 38.166 -9 59.499v84c0 124 63 186 189 186h23v100h118z" />
    <glyph glyph-name="percent" unicode="%" horiz-adv-x="928" 
d="M286 700c48.667 0 73 -24.333 73 -73v-239c0 -48.667 -24.333 -73 -73 -73h-161c-48.667 0 -73 24.333 -73 73v239c0 48.667 24.333 73 73 73h161zM156 437c0 -14 6.33301 -21 19 -21h60c13.333 0 20 7 20 21v141c0 14 -6.66699 21 -20 21h-60c-12.667 0 -19 -7 -19 -21
v-141zM739 700l-420 -700h-129l420 700h129zM803 385c48.667 0 73 -24.333 73 -73v-239c0 -48.667 -24.333 -73 -73 -73h-161c-48.667 -0 -73 24.333 -73 73v239c0 48.667 24.333 73 73 73h161zM673 122c0 -14 6.33301 -21 19 -21h60c13.333 0 20 7 20 21v141
c0 14 -6.66699 21 -20 21h-60c-12.667 0 -19 -7 -19 -21v-141z" />
    <glyph glyph-name="ampersand" unicode="&#x26;" horiz-adv-x="618" 
d="M378 700l0.000976562 -176h-99c-24 0 -36 -12.667 -36 -38v-21c0 -10 2.16699 -18.5 6.5 -25.5s13.166 -10.5 26.499 -10.5h328v-158h-54v-208c0 -42 -20.667 -63 -62 -63h-246c-126 0 -189 62 -189 186v57c0 32 5.66699 57.833 17 77.5s26.666 33.167 45.999 40.5
c-17.333 10 -30.166 22.833 -38.499 38.5s-12.5 40.167 -12.5 73.5v41c0 124 63 186 189 186h124zM231.001 214c0 -25.333 12 -38 36 -38h106c10 0 15 5.66699 15 17v78h-125c-12.667 0 -21.167 -3.5 -25.5 -10.5s-6.5 -15.5 -6.5 -25.5v-21z" />
    <glyph glyph-name="quotesingle" unicode="'" horiz-adv-x="251" 
d="M210 700v-271h-169v271h169z" />
    <glyph glyph-name="parenleft" unicode="(" horiz-adv-x="380" 
d="M344 929v-114h-53c-25.333 0 -44.5 -9.16699 -57.5 -27.5s-19.5 -42.833 -19.5 -73.5v-770c0 -32 6.5 -56.833 19.5 -74.5s32.167 -26.5 57.5 -26.5h53v-114h-55c-33.333 0 -62.166 5 -86.499 15s-44.333 24.167 -60 42.5s-27.334 40.333 -35.001 66
s-11.5 54.5 -11.5 86.5v780c0 32 3.83301 60.833 11.5 86.5s19.334 47.667 35.001 66s35.667 32.5 60 42.5s53.166 15 86.499 15h55z" />
    <glyph glyph-name="parenright" unicode=")" horiz-adv-x="380" 
d="M91 929c33.333 0 62.166 -5 86.499 -15s44.333 -24.167 60 -42.5s27.334 -40.333 35.001 -66s11.5 -54.5 11.5 -86.5v-780c0 -32 -3.83301 -60.833 -11.5 -86.5s-19.334 -47.667 -35.001 -66s-35.667 -32.5 -60 -42.5s-53.166 -15 -86.499 -15h-55v114h53
c25.333 0 44.5 8.83301 57.5 26.5s19.5 42.5 19.5 74.5v770c0 30.667 -6.5 55.167 -19.5 73.5s-32.167 27.5 -57.5 27.5h-53v114h55z" />
    <glyph glyph-name="asterisk" unicode="*" horiz-adv-x="742" 
d="M314 494v160h114v-160l111 120l81 -81l-132 -127h188v-114h-188l132 -127l-81 -81l-111 120v-160h-114v160l-111 -120l-81 81l132 127h-188v114h188l-132 127l81 81z" />
    <glyph glyph-name="plus" unicode="+" horiz-adv-x="742" 
d="M428 654v-248h248v-114h-248v-248h-114v248h-248v114h248v248h114z" />
    <glyph glyph-name="comma" unicode="," horiz-adv-x="301" 
d="M235 184v-79c0 -52 -12.167 -92 -36.5 -120s-57.833 -42 -100.5 -42h-32v241h169z" />
    <glyph glyph-name="hyphen" unicode="-" horiz-adv-x="278" 
d="M256 437v-166h-235v166h235z" />
    <glyph glyph-name="period" unicode="." horiz-adv-x="301" 
d="M235 184v-184h-169v184h169z" />
    <glyph glyph-name="slash" unicode="/" horiz-adv-x="452" 
d="M452 829l-300 -1000h-152l300 1000h152z" />
    <glyph glyph-name="zero" unicode="0" horiz-adv-x="685" 
d="M489 700c88 0 132 -44.333 132 -133v-434c0 -88.667 -44 -133 -132 -133h-293c-88 -0 -132 44.333 -132 133v434c0 88.667 44 133 132 133h293zM253 221c0 -24.667 11.667 -37 35 -37h109c23.333 0 35 12.333 35 37v258c0 24.667 -11.667 37 -35 37h-109
c-23.333 0 -35 -12.333 -35 -37v-258z" />
    <glyph glyph-name="one" unicode="1" horiz-adv-x="348" 
d="M220 700c41.333 0 62 -21 62 -63v-637h-189v499c0 11.333 -5 17 -15 17h-52v184h194z" />
    <glyph glyph-name="two" unicode="2" horiz-adv-x="647" 
d="M402 700c126 0 189.002 -62 189.002 -186v-84c0 -21.333 -3 -41.166 -9 -59.499s-15.5 -34.333 -28.5 -48s-29.667 -24.334 -50 -32.001s-44.833 -11.5 -73.5 -11.5h-162c-12.667 0 -21.334 -3 -26.001 -9s-7 -15 -7 -27v-43c0 -10.667 4.33301 -16 13 -16h333v-184h-434
c-60 0 -90 30.667 -90 92v166c0 52.667 13.167 93.167 39.5 121.5s70.166 42.5 131.499 42.5h152c22 0 33 12 33 36v21c0 25.333 -12 38 -36 38h-292v183h317z" />
    <glyph glyph-name="three" unicode="3" horiz-adv-x="630" 
d="M376 700c126 0 189.001 -62 189.001 -186v-41c0 -33.333 -4.16699 -57.833 -12.5 -73.5s-21.166 -28.5 -38.499 -38.5c19.333 -7.33301 34.666 -20.833 45.999 -40.5s17 -45.5 17 -77.5v-57c0 -124 -63 -186 -189 -186h-328v180h301c24 0 36 12.667 36 38v17
c0 10 -2.16699 18.5 -6.5 25.5s-12.833 10.5 -25.5 10.5h-297v158h284c13.333 0 22.166 3.5 26.499 10.5s6.5 15.5 6.5 25.5v17c0 25.333 -12 38 -36 38h-289v180h316z" />
    <glyph glyph-name="four" unicode="4" horiz-adv-x="632" 
d="M535 701l-240.999 -360v-4h280v-337h-189v170h-286c-41.333 0 -62 21 -62 63v50c0 9.33301 1.16699 17.5 3.5 24.5s6.16602 14.5 11.499 22.5l255 371h228z" />
    <glyph glyph-name="five" unicode="5" horiz-adv-x="647" 
d="M566 700l0.000976562 -183h-319c-6.66699 0 -10 -4 -10 -12v-66c0 -7.33301 3.33301 -11 10 -11h175c114 0 171 -54.667 171 -164v-78c0 -124 -63 -186 -189 -186h-343v184h318c24 0 36 12.667 36 38v21c0 12 -2.33301 21 -7 27s-13.334 9 -26.001 9h-256
c-44.667 0 -67 23.333 -67 70v286c0 43.333 22.333 65 67 65h440z" />
    <glyph glyph-name="six" unicode="6" horiz-adv-x="650" 
d="M559 700l0.00195312 -183h-283c-24 0 -36 -12.667 -36 -38v-257c0 -25.333 12 -38 36 -38h106c24 0 36 12.667 36 38v21c0 12 -2.33301 21 -7 27s-13.334 9 -26.001 9h-114v149h154c61.333 0 105.166 -14.167 131.499 -42.5s39.5 -68.833 39.5 -121.5v-78
c0 -124 -63 -186 -189 -186h-156c-126 0 -189 62 -189 186v328c0 124 63 186 189 186h308z" />
    <glyph glyph-name="seven" unicode="7" horiz-adv-x="557" 
d="M471 700c41.333 0 62 -21 62 -63v-68c0 -9.33301 -1.33301 -19 -4 -29s-6 -19.667 -10 -29l-223 -511h-217l231 513v4h-284v183h445z" />
    <glyph glyph-name="eight" unicode="8" horiz-adv-x="669" 
d="M415 700c126 0 189 -62 189 -186v-41c0 -33.333 -4.16699 -57.833 -12.5 -73.5s-21.166 -28.5 -38.499 -38.5c19.333 -7.33301 34.666 -20.833 45.999 -40.5s17 -45.5 17 -77.5v-57c0 -124 -63 -186 -189 -186h-185c-126 0 -189 62 -189 186v57
c0 32 5.66699 57.833 17 77.5s26.666 33.167 45.999 40.5c-17.333 10 -30.166 22.833 -38.499 38.5s-12.5 40.167 -12.5 73.5v41c0 124 63 186 189 186h161zM231 214c0 -25.333 12 -38 36 -38h135c24 0 36 12.667 36 38v21c0 10 -2.16699 18.5 -6.5 25.5
s-12.833 10.5 -25.5 10.5h-143c-12.667 0 -21.167 -3.5 -25.5 -10.5s-6.5 -15.5 -6.5 -25.5v-21zM243 465c0 -10 2.16895 -18.5 6.50195 -25.5s13.166 -10.5 26.499 -10.5h117c13.333 0 22.166 3.5 26.499 10.5s6.5 15.5 6.5 25.5v21c0 25.333 -12 38 -36 38h-111
c-24 0 -36 -12.667 -36 -38v-21z" />
    <glyph glyph-name="nine" unicode="9" horiz-adv-x="650" 
d="M399 700c126 0 188.998 -62 188.998 -186v-328c0 -124 -63 -186 -189 -186h-318v184h290c24 0 36 12.667 36 38v256c0 25.333 -12 38 -36 38h-103c-24 0 -36 -12.667 -36 -38v-21c0 -12 2.33301 -21 7 -27s13.334 -9 26.001 -9h111v-148h-151
c-61.333 0 -105.166 14.167 -131.499 42.5s-39.5 68.833 -39.5 121.5v77c0 124 63 186 189 186h156z" />
    <glyph glyph-name="colon" unicode=":" horiz-adv-x="331" 
d="M250 274v-184h-169v184h169zM250 574v-184h-169v184h169z" />
    <glyph glyph-name="semicolon" unicode=";" horiz-adv-x="331" 
d="M250 574v-184h-169v184h169zM250 274v-79c0 -52 -12.167 -92 -36.5 -120s-57.833 -42 -100.5 -42h-32v241h169z" />
    <glyph glyph-name="less" unicode="&#x3c;" horiz-adv-x="742" 
d="M676 606v-114l-486 -141v-2l486 -141v-114l-577 170c-22 6.66699 -33 22.667 -33 48v76c0 25.333 11 41.333 33 48z" />
    <glyph glyph-name="equal" unicode="=" horiz-adv-x="742" 
d="M676 256v-114h-610v114h610zM676 556v-114h-610v114h610z" />
    <glyph glyph-name="greater" unicode="&#x3e;" horiz-adv-x="742" 
d="M643 436c22 -6.66699 33 -22.667 33 -48v-76c0 -25.333 -11 -41.333 -33 -48l-577 -170v114l486 141v2l-486 141v114z" />
    <glyph glyph-name="question" unicode="?" horiz-adv-x="568" 
d="M329 184v-184h-169v184h169zM343 700c126 0 189 -62.002 189 -186.002v-36c0 -20.667 -1.16699 -39.167 -3.5 -55.5s-7.16602 -31.666 -14.499 -45.999s-18 -27.666 -32 -39.999s-32.333 -24.833 -55 -37.5l-57 -31h-189l110 103
c9.33301 9.33301 17.166 19.5 23.499 30.5s9.5 23.5 9.5 37.5v40c0 25.333 -12 38 -36 38h-262v183h317z" />
    <glyph glyph-name="at" unicode="@" horiz-adv-x="781" 
d="M525 700c68.667 0 118 -16.667 148 -50s45 -80 45 -140v-287c0 -60.667 -15 -107.667 -45 -141s-79.333 -50 -148 -50h-65c-68.667 0 -117.834 16.667 -147.501 50s-44.5 80.333 -44.5 141v38c0 60 14.833 106.667 44.5 140s78.834 50 147.501 50h110v-115h-108
c-27.333 0 -46.833 -5.83301 -58.5 -17.5s-17.5 -32.5 -17.5 -62.5v-28c0 -30 5.83301 -50.833 17.5 -62.5s31.167 -17.5 58.5 -17.5h61c27.333 0 47 5.83301 59 17.5s18 32.5 18 62.5v277c0 30 -6 51 -18 63s-31.667 18 -59 18h-265c-27.333 0 -47 -6 -59 -18
s-18 -33 -18 -63v-519c0 -30 6 -50.833 18 -62.5s31.667 -17.5 59 -17.5h447v-116h-449c-68.667 0 -118 16.667 -148 50s-45 80.333 -45 141v529c0 60 15 106.667 45 140s79.333 50 148 50h269z" />
    <glyph glyph-name="A" unicode="A" horiz-adv-x="692" 
d="M412 700c17.333 0 28.666 -7.33301 33.999 -22l230 -678h-414l47 184h110l-77 262h-4l-121 -446h-201l214 678c4.66699 14.667 15.334 22 32.001 22h150z" />
    <glyph glyph-name="B" unicode="B" horiz-adv-x="666" 
d="M412 700c126 0 189 -62 189 -186v-41c0 -33.333 -4.16699 -57.833 -12.5 -73.5s-21.166 -28.5 -38.499 -38.5c19.333 -7.33301 34.666 -20.833 45.999 -40.5s17 -45.5 17 -77.5v-57c0 -124 -63 -186 -189 -186h-298c-41.333 0 -62 21 -62 63v575
c0 41.333 20.667 62 62 62h286zM253 193c0 -11.333 5.00098 -17 15.001 -17h131c24 0 36 12.667 36 38v21c0 10 -2.16699 18.5 -6.5 25.5s-12.833 10.5 -25.5 10.5h-119v158h106c13.333 0 22.166 3.5 26.499 10.5s6.5 15.5 6.5 25.5v21c0 25.333 -12 38 -36 38h-119
c-10 0 -15 -5.66699 -15 -17v-314z" />
    <glyph glyph-name="C" unicode="C" horiz-adv-x="573" 
d="M519 700v-182.998h-156c-43.333 0 -74.5 -9.33301 -93.5 -28s-28.5 -52.334 -28.5 -101.001v-75c0 -48.667 9.5 -82.334 28.5 -101.001s50.167 -28 93.5 -28h156v-184h-159c-54.667 -0 -101.5 6.83301 -140.5 20.5s-70.833 33.5 -95.5 59.5s-42.834 57.833 -54.501 95.5
s-17.5 80.5 -17.5 128.5v92c0 48 5.83301 90.833 17.5 128.5s29.834 69.5 54.501 95.5s56.5 45.833 95.5 59.5s85.833 20.5 140.5 20.5h159z" />
    <glyph glyph-name="D" unicode="D" horiz-adv-x="685" 
d="M325 700c54.667 0 101.5 -6.83301 140.5 -20.5s70.833 -33.5 95.5 -59.5s42.834 -57.833 54.501 -95.5s17.5 -80.5 17.5 -128.5v-92c0 -48 -5.83301 -90.833 -17.5 -128.5s-29.834 -69.5 -54.501 -95.5s-56.5 -45.833 -95.5 -59.5s-85.833 -20.5 -140.5 -20.5h-197
c-41.333 0 -62 20.667 -62 62v576c0 41.333 20.667 62 62 62h197zM255 201c0 -11.333 5 -17.002 15 -17.002h52c43.333 0 74.5 9.33301 93.5 28s28.5 52.334 28.5 101.001v75c0 48.667 -9.5 82.334 -28.5 101.001s-50.167 28 -93.5 28h-52c-10 0 -15 -5.66699 -15 -17v-299z
" />
    <glyph glyph-name="E" unicode="E" horiz-adv-x="580" 
d="M521 700v-183h-253c-10 0 -15 -5.66699 -15 -17v-299c0 -11.333 5 -17 15 -17h253v-184h-395c-41.333 0 -62 21 -62 63v575c0 41.333 20.667 62 62 62h395zM519 437v-166h-235v166h235z" />
    <glyph glyph-name="F" unicode="F" horiz-adv-x="564" 
d="M522 700v-183h-253c-10 0 -15 -5.66699 -15 -17v-500h-189v638c0 41.333 20.667 62 62 62h395zM520 437v-166h-235v166h235z" />
    <glyph glyph-name="G" unicode="G" horiz-adv-x="636" 
d="M555 700v-182.998h-196c-43.333 0 -74.5 -9.33301 -93.5 -28s-28.5 -52.334 -28.5 -101.001v-80c0 -48.667 9.5 -82.334 28.5 -101.001s50.167 -28 93.5 -28h18c10 0 15 5.66699 15 17v161h184v-294c0 -42 -20.667 -63 -62 -63h-154
c-54.667 -0 -101.5 6.83301 -140.5 20.5s-70.833 33.5 -95.5 59.5s-42.834 57.833 -54.501 95.5s-17.5 80.5 -17.5 128.5v92c0 48 5.83301 90.833 17.5 128.5s29.834 69.5 54.501 95.5s56.5 45.833 95.5 59.5s85.833 20.5 140.5 20.5h195z" />
    <glyph glyph-name="H" unicode="H" horiz-adv-x="709" 
d="M643 700v-700h-189v271h-168v166h168v263h189zM255 700v-700h-189v700h189z" />
    <glyph glyph-name="I" unicode="I" horiz-adv-x="321" 
d="M255 700v-700h-189v700h189z" />
    <glyph glyph-name="J" unicode="J" horiz-adv-x="511" 
d="M453 700l0.000976562 -396.001c0 -48 -5.83301 -90.833 -17.5 -128.5s-29.834 -69.5 -54.501 -95.5s-56.5 -45.833 -95.5 -59.5s-85.833 -20.5 -140.5 -20.5h-119v184h116c43.333 0 74.5 9.33301 93.5 28s28.5 52.334 28.5 101.001v387h189z" />
    <glyph glyph-name="K" unicode="K" horiz-adv-x="656" 
d="M612 700l-124.002 -334l139 -366h-196l-95 243c-7.33301 18.667 -19.666 28 -36.999 28h-13v158h15c16.667 0 28.334 9.33301 35.001 28l84 243h192zM254.998 700v-700h-189v700h189z" />
    <glyph glyph-name="L" unicode="L" horiz-adv-x="549" 
d="M255 700v-499c0 -11.333 5 -17 15 -17h253v-184h-395c-41.333 0 -62 21 -62 63v637h189z" />
    <glyph glyph-name="M" unicode="M" horiz-adv-x="960" 
d="M392 700c24.667 0 44.1689 -5.5 58.502 -16.5s24.166 -23.167 29.499 -36.5c5.33301 13.333 15.166 25.5 29.499 36.5s33.833 16.5 58.5 16.5h199c88 0 132 -44.333 132 -133v-567h-189v479c0 24.667 -11.667 37 -35 37h-69c-23.333 0 -35 -12.333 -35 -37v-479h-91h-91
v479c0 24.667 -11.667 37 -35 37h-69c-23.333 0 -35 -12.333 -35 -37v-479h-189v567c0 88.667 44 133 132 133h199z" />
    <glyph glyph-name="N" unicode="N" horiz-adv-x="690" 
d="M217 700c32 0 55.668 -14.667 71.001 -44l150 -287h4v331h184v-657c0 -12 -3.33301 -22.167 -10 -30.5s-15.667 -12.5 -27 -12.5h-89c-30.667 0 -54.334 14.667 -71.001 44l-177 304h-4v-348h-184v657c0 12 3.33301 22.167 10 30.5s15.667 12.5 27 12.5h116z" />
    <glyph glyph-name="O" unicode="O" horiz-adv-x="706" 
d="M52 406c0 48 5.33301 90.833 16 128.5s28 69.5 52 95.5s55.167 45.833 93.5 59.5s84.833 20.5 139.5 20.5s101.167 -6.83301 139.5 -20.5s69.5 -33.5 93.5 -59.5s41.333 -57.833 52 -95.5s16 -80.5 16 -128.5v-112c0 -48 -5.33301 -90.833 -16 -128.5
s-28 -69.5 -52 -95.5s-55.167 -45.833 -93.5 -59.5s-84.833 -20.5 -139.5 -20.5s-101.167 6.83301 -139.5 20.5s-69.5 33.5 -93.5 59.5s-41.333 57.833 -52 95.5s-16 80.5 -16 128.5v112zM241 302c0 -24 1.83301 -44.333 5.5 -61s9.83398 -30 18.501 -40
s20.167 -17.167 34.5 -21.5s32.166 -6.5 53.499 -6.5s39.166 2.16699 53.499 6.5s25.833 11.5 34.5 21.5s14.834 23.333 18.501 40s5.5 37 5.5 61v96c0 24 -1.83301 44.333 -5.5 61s-9.83398 30 -18.501 40s-20.167 17.167 -34.5 21.5s-32.166 6.5 -53.499 6.5
s-39.166 -2.16699 -53.499 -6.5s-25.833 -11.5 -34.5 -21.5s-14.834 -23.333 -18.501 -40s-5.5 -37 -5.5 -61v-96z" />
    <glyph glyph-name="P" unicode="P" horiz-adv-x="639" 
d="M414 700c126 0 189 -62 189 -186v-41c0 -61.333 -15.667 -110.333 -47 -147s-78.666 -55 -141.999 -55h-128v158h106c13.333 0 22.166 3.5 26.499 10.5s6.5 15.5 6.5 25.5v21c0 25.333 -12 38 -36 38h-119c-10 0 -15 -5.66699 -15 -17v-507h-189v638
c0 41.333 20.667 62 62 62h286z" />
    <glyph glyph-name="Q" unicode="Q" horiz-adv-x="695" 
d="M52 406c0 47.333 5.33691 89.833 16.0039 127.5s28 69.5 52 95.5s55.167 46 93.5 60s85.166 21 140.499 21c54.667 0 100 -6.83301 136 -20.5s64.667 -33.5 86 -59.5s36.333 -57.833 45 -95.5s13 -80.5 13 -128.5v-61c0 -32 -5.83301 -58.833 -17.5 -80.5
s-25.834 -38.167 -42.501 -49.5h-180c13.333 9.33301 25.166 23 35.499 41s15.5 44.667 15.5 80v62c0 24 -1.33301 44.333 -4 61s-7.66699 30 -15 40s-17.333 17.167 -30 21.5s-29 6.5 -49 6.5s-36.833 -2.16699 -50.5 -6.5s-24.5 -11.5 -32.5 -21.5
s-13.833 -23.333 -17.5 -40s-5.5 -37 -5.5 -61v-86c0 -48.667 9.5 -82.167 28.5 -100.5s50.167 -27.5 93.5 -27.5h285v-184h-288c-54.667 -0 -101.5 6.83301 -140.5 20.5s-70.833 33.5 -95.5 59.5s-42.834 57.833 -54.501 95.5s-17.5 80.5 -17.5 128.5v102z" />
    <glyph glyph-name="R" unicode="R" horiz-adv-x="676" 
d="M414 700c126 0 189 -62 189 -186v-41c0 -33.333 -4.16699 -57.833 -12.5 -73.5s-21.166 -28.5 -38.499 -38.5c19.333 -7.33301 35.5 -20.833 48.5 -40.5s19.5 -45.5 19.5 -77.5v-243h-188v235c0 10 -2.16699 18.5 -6.5 25.5s-12.833 10.5 -25.5 10.5h-114v158h106
c13.333 0 22.166 3.5 26.499 10.5s6.5 15.5 6.5 25.5v21c0 25.333 -12 38 -36 38h-119c-10 0 -15 -5.66699 -15 -17v-507h-189v638c0 41.333 20.667 62 62 62h286z" />
    <glyph glyph-name="S" unicode="S" horiz-adv-x="640" 
d="M560 700l0.00195312 -183h-293c-24 0 -36 -12.667 -36 -38v-21c0 -24 11 -36 33 -36h152c61.333 0 105.166 -14.167 131.499 -42.5s39.5 -68.833 39.5 -121.5v-72c0 -124 -63 -186 -189 -186h-333v184h308c24 0 36 12.667 36 38v21c0 12 -2.33301 21 -7 27
s-13.334 9 -26.001 9h-162c-28.667 0 -53.167 3.83301 -73.5 11.5s-37 18.334 -50 32.001s-22.5 29.667 -28.5 48s-9 38.166 -9 59.499v84c0 124 63 186 189 186h318z" />
    <glyph glyph-name="T" unicode="T" horiz-adv-x="588" 
d="M562 700v-183h-536v183h536zM389 486v-486h-189v486h189z" />
    <glyph glyph-name="U" unicode="U" 
d="M250 700v-479c0 -24.667 11.667 -37 35 -37h109c23.333 0 35 12.333 35 37v479h189v-567c0 -88.667 -44 -133 -132 -133h-293c-88 -0 -132 44.333 -132 133v567h189z" />
    <glyph glyph-name="V" unicode="V" horiz-adv-x="680" 
d="M222 700l116 -438h4l121 438h201l-218 -678c-4.66699 -14.667 -15.334 -22 -32.001 -22h-150c-17.333 -0 -28.666 7.33301 -33.999 22l-214 678h206z" />
    <glyph glyph-name="W" unicode="W" horiz-adv-x="960" 
d="M250 700l-0.00195312 -479c0 -24.667 11.667 -37 35 -37h69c23.333 0 35 12.333 35 37v479h91h91v-479c0 -24.667 11.667 -37 35 -37h69c23.333 0 35 12.333 35 37v479h189v-567c0 -88.667 -44 -133 -132 -133h-199c-24.667 0 -44.167 5.5 -58.5 16.5
s-24.166 23.167 -29.499 36.5c-5.33301 -13.333 -15.166 -25.5 -29.499 -36.5s-33.833 -16.5 -58.5 -16.5h-199c-88 -0 -132 44.333 -132 133v567h189z" />
    <glyph glyph-name="X" unicode="X" horiz-adv-x="680" 
d="M257 700l84 -167l84 167h203l-170 -316l204 -384h-213l-114 218l-114 -218h-203l203 371l-177 329h213z" />
    <glyph glyph-name="Y" unicode="Y" horiz-adv-x="649" 
d="M419 240v-240h-189v240h189zM235 700v-225c0 -24.667 11.667 -37 35 -37h109c23.333 0 35 12.333 35 37v225h189v-296c0 -88.667 -44 -133 -132 -133h-293c-88 0 -132 44.333 -132 133v296h189z" />
    <glyph glyph-name="Z" unicode="Z" horiz-adv-x="628" 
d="M508 700c41.333 0 62 -21 62 -63v-68c0 -9.33301 -1 -17.5 -3 -24.5s-6 -14.5 -12 -22.5l-241 -334v-4h263v-184h-464c-41.333 0 -62 21 -62 63v68c0 9.33301 1 17.5 3 24.5s6 14.5 12 22.5l254 335v4h-257v183h445z" />
    <glyph glyph-name="bracketleft" unicode="[" horiz-adv-x="410" 
d="M374 929v-114h-149c-7.33301 0 -11 -3.66699 -11 -11v-950c0 -7.33301 3.66699 -11 11 -11h149v-114h-183c-34.667 0 -59.167 8.16699 -73.5 24.5s-21.5 41.5 -21.5 75.5v1000c0 34 7.16699 59.167 21.5 75.5s38.833 24.5 73.5 24.5h183z" />
    <glyph glyph-name="backslash" unicode="\" horiz-adv-x="452" 
d="M152 829l300 -1000h-152l-300 1000h152z" />
    <glyph glyph-name="bracketright" unicode="]" horiz-adv-x="410" 
d="M219 929c34.667 0 59.167 -8.16699 73.5 -24.5s21.5 -41.5 21.5 -75.5v-1000c0 -34 -7.16699 -59.167 -21.5 -75.5s-38.833 -24.5 -73.5 -24.5h-183v114h149c7.33301 0 11 3.66699 11 11v950c0 7.33301 -3.66699 11 -11 11h-149v114h183z" />
    <glyph glyph-name="asciicircum" unicode="^" horiz-adv-x="526" 
d="M301 700c25.333 0 41.333 -11 48 -33l105 -357h-113l-77 266h-2l-77 -266h-113l105 357c6.66699 22 22.667 33 48 33h76z" />
    <glyph glyph-name="underscore" unicode="_" horiz-adv-x="677" 
d="M680 -57v-114h-680v114h680z" />
    <glyph glyph-name="grave" unicode="`" horiz-adv-x="441" 
d="M275 929l100 -164h-169l-140 164h209z" />
    <glyph glyph-name="a" unicode="a" horiz-adv-x="692" 
d="M412 700c17.333 0 28.666 -7.33301 33.999 -22l230 -678h-414l47 184h110l-77 262h-4l-121 -446h-201l214 678c4.66699 14.667 15.334 22 32.001 22h150z" />
    <glyph glyph-name="b" unicode="b" horiz-adv-x="666" 
d="M412 700c126 0 189 -62 189 -186v-41c0 -33.333 -4.16699 -57.833 -12.5 -73.5s-21.166 -28.5 -38.499 -38.5c19.333 -7.33301 34.666 -20.833 45.999 -40.5s17 -45.5 17 -77.5v-57c0 -124 -63 -186 -189 -186h-298c-41.333 0 -62 21 -62 63v575
c0 41.333 20.667 62 62 62h286zM253 193c0 -11.333 5.00098 -17 15.001 -17h131c24 0 36 12.667 36 38v21c0 10 -2.16699 18.5 -6.5 25.5s-12.833 10.5 -25.5 10.5h-119v158h106c13.333 0 22.166 3.5 26.499 10.5s6.5 15.5 6.5 25.5v21c0 25.333 -12 38 -36 38h-119
c-10 0 -15 -5.66699 -15 -17v-314z" />
    <glyph glyph-name="c" unicode="c" horiz-adv-x="573" 
d="M519 700v-182.998h-156c-43.333 0 -74.5 -9.33301 -93.5 -28s-28.5 -52.334 -28.5 -101.001v-75c0 -48.667 9.5 -82.334 28.5 -101.001s50.167 -28 93.5 -28h156v-184h-159c-54.667 -0 -101.5 6.83301 -140.5 20.5s-70.833 33.5 -95.5 59.5s-42.834 57.833 -54.501 95.5
s-17.5 80.5 -17.5 128.5v92c0 48 5.83301 90.833 17.5 128.5s29.834 69.5 54.501 95.5s56.5 45.833 95.5 59.5s85.833 20.5 140.5 20.5h159z" />
    <glyph glyph-name="d" unicode="d" horiz-adv-x="685" 
d="M325 700c54.667 0 101.5 -6.83301 140.5 -20.5s70.833 -33.5 95.5 -59.5s42.834 -57.833 54.501 -95.5s17.5 -80.5 17.5 -128.5v-92c0 -48 -5.83301 -90.833 -17.5 -128.5s-29.834 -69.5 -54.501 -95.5s-56.5 -45.833 -95.5 -59.5s-85.833 -20.5 -140.5 -20.5h-197
c-41.333 0 -62 20.667 -62 62v576c0 41.333 20.667 62 62 62h197zM255 201c0 -11.333 5 -17.002 15 -17.002h52c43.333 0 74.5 9.33301 93.5 28s28.5 52.334 28.5 101.001v75c0 48.667 -9.5 82.334 -28.5 101.001s-50.167 28 -93.5 28h-52c-10 0 -15 -5.66699 -15 -17v-299z
" />
    <glyph glyph-name="e" unicode="e" horiz-adv-x="580" 
d="M521 700v-183h-253c-10 0 -15 -5.66699 -15 -17v-299c0 -11.333 5 -17 15 -17h253v-184h-395c-41.333 0 -62 21 -62 63v575c0 41.333 20.667 62 62 62h395zM519 437v-166h-235v166h235z" />
    <glyph glyph-name="f" unicode="f" horiz-adv-x="564" 
d="M522 700v-183h-253c-10 0 -15 -5.66699 -15 -17v-500h-189v638c0 41.333 20.667 62 62 62h395zM520 437v-166h-235v166h235z" />
    <glyph glyph-name="g" unicode="g" horiz-adv-x="636" 
d="M555 700v-182.998h-196c-43.333 0 -74.5 -9.33301 -93.5 -28s-28.5 -52.334 -28.5 -101.001v-80c0 -48.667 9.5 -82.334 28.5 -101.001s50.167 -28 93.5 -28h18c10 0 15 5.66699 15 17v161h184v-294c0 -42 -20.667 -63 -62 -63h-154
c-54.667 -0 -101.5 6.83301 -140.5 20.5s-70.833 33.5 -95.5 59.5s-42.834 57.833 -54.501 95.5s-17.5 80.5 -17.5 128.5v92c0 48 5.83301 90.833 17.5 128.5s29.834 69.5 54.501 95.5s56.5 45.833 95.5 59.5s85.833 20.5 140.5 20.5h195z" />
    <glyph glyph-name="h" unicode="h" horiz-adv-x="709" 
d="M643 700v-700h-189v271h-168v166h168v263h189zM255 700v-700h-189v700h189z" />
    <glyph glyph-name="i" unicode="i" horiz-adv-x="321" 
d="M255 700v-700h-189v700h189z" />
    <glyph glyph-name="j" unicode="j" horiz-adv-x="511" 
d="M453 700l0.000976562 -396.001c0 -48 -5.83301 -90.833 -17.5 -128.5s-29.834 -69.5 -54.501 -95.5s-56.5 -45.833 -95.5 -59.5s-85.833 -20.5 -140.5 -20.5h-119v184h116c43.333 0 74.5 9.33301 93.5 28s28.5 52.334 28.5 101.001v387h189z" />
    <glyph glyph-name="k" unicode="k" horiz-adv-x="656" 
d="M612 700l-124.002 -334l139 -366h-196l-95 243c-7.33301 18.667 -19.666 28 -36.999 28h-13v158h15c16.667 0 28.334 9.33301 35.001 28l84 243h192zM254.998 700v-700h-189v700h189z" />
    <glyph glyph-name="l" unicode="l" horiz-adv-x="549" 
d="M255 700v-499c0 -11.333 5 -17 15 -17h253v-184h-395c-41.333 0 -62 21 -62 63v637h189z" />
    <glyph glyph-name="m" unicode="m" horiz-adv-x="960" 
d="M392 700c24.667 0 44.1689 -5.5 58.502 -16.5s24.166 -23.167 29.499 -36.5c5.33301 13.333 15.166 25.5 29.499 36.5s33.833 16.5 58.5 16.5h199c88 0 132 -44.333 132 -133v-567h-189v479c0 24.667 -11.667 37 -35 37h-69c-23.333 0 -35 -12.333 -35 -37v-479h-91h-91
v479c0 24.667 -11.667 37 -35 37h-69c-23.333 0 -35 -12.333 -35 -37v-479h-189v567c0 88.667 44 133 132 133h199z" />
    <glyph glyph-name="n" unicode="n" horiz-adv-x="690" 
d="M217 700c32 0 55.668 -14.667 71.001 -44l150 -287h4v331h184v-657c0 -12 -3.33301 -22.167 -10 -30.5s-15.667 -12.5 -27 -12.5h-89c-30.667 0 -54.334 14.667 -71.001 44l-177 304h-4v-348h-184v657c0 12 3.33301 22.167 10 30.5s15.667 12.5 27 12.5h116z" />
    <glyph glyph-name="o" unicode="o" horiz-adv-x="706" 
d="M52 406c0 48 5.33301 90.833 16 128.5s28 69.5 52 95.5s55.167 45.833 93.5 59.5s84.833 20.5 139.5 20.5s101.167 -6.83301 139.5 -20.5s69.5 -33.5 93.5 -59.5s41.333 -57.833 52 -95.5s16 -80.5 16 -128.5v-112c0 -48 -5.33301 -90.833 -16 -128.5
s-28 -69.5 -52 -95.5s-55.167 -45.833 -93.5 -59.5s-84.833 -20.5 -139.5 -20.5s-101.167 6.83301 -139.5 20.5s-69.5 33.5 -93.5 59.5s-41.333 57.833 -52 95.5s-16 80.5 -16 128.5v112zM241 302c0 -24 1.83301 -44.333 5.5 -61s9.83398 -30 18.501 -40
s20.167 -17.167 34.5 -21.5s32.166 -6.5 53.499 -6.5s39.166 2.16699 53.499 6.5s25.833 11.5 34.5 21.5s14.834 23.333 18.501 40s5.5 37 5.5 61v96c0 24 -1.83301 44.333 -5.5 61s-9.83398 30 -18.501 40s-20.167 17.167 -34.5 21.5s-32.166 6.5 -53.499 6.5
s-39.166 -2.16699 -53.499 -6.5s-25.833 -11.5 -34.5 -21.5s-14.834 -23.333 -18.501 -40s-5.5 -37 -5.5 -61v-96z" />
    <glyph glyph-name="p" unicode="p" horiz-adv-x="639" 
d="M414 700c126 0 189 -62 189 -186v-41c0 -61.333 -15.667 -110.333 -47 -147s-78.666 -55 -141.999 -55h-128v158h106c13.333 0 22.166 3.5 26.499 10.5s6.5 15.5 6.5 25.5v21c0 25.333 -12 38 -36 38h-119c-10 0 -15 -5.66699 -15 -17v-507h-189v638
c0 41.333 20.667 62 62 62h286z" />
    <glyph glyph-name="q" unicode="q" horiz-adv-x="695" 
d="M52 406c0 47.333 5.33691 89.833 16.0039 127.5s28 69.5 52 95.5s55.167 46 93.5 60s85.166 21 140.499 21c54.667 0 100 -6.83301 136 -20.5s64.667 -33.5 86 -59.5s36.333 -57.833 45 -95.5s13 -80.5 13 -128.5v-61c0 -32 -5.83301 -58.833 -17.5 -80.5
s-25.834 -38.167 -42.501 -49.5h-180c13.333 9.33301 25.166 23 35.499 41s15.5 44.667 15.5 80v62c0 24 -1.33301 44.333 -4 61s-7.66699 30 -15 40s-17.333 17.167 -30 21.5s-29 6.5 -49 6.5s-36.833 -2.16699 -50.5 -6.5s-24.5 -11.5 -32.5 -21.5
s-13.833 -23.333 -17.5 -40s-5.5 -37 -5.5 -61v-86c0 -48.667 9.5 -82.167 28.5 -100.5s50.167 -27.5 93.5 -27.5h285v-184h-288c-54.667 -0 -101.5 6.83301 -140.5 20.5s-70.833 33.5 -95.5 59.5s-42.834 57.833 -54.501 95.5s-17.5 80.5 -17.5 128.5v102z" />
    <glyph glyph-name="r" unicode="r" horiz-adv-x="676" 
d="M414 700c126 0 189 -62 189 -186v-41c0 -33.333 -4.16699 -57.833 -12.5 -73.5s-21.166 -28.5 -38.499 -38.5c19.333 -7.33301 35.5 -20.833 48.5 -40.5s19.5 -45.5 19.5 -77.5v-243h-188v235c0 10 -2.16699 18.5 -6.5 25.5s-12.833 10.5 -25.5 10.5h-114v158h106
c13.333 0 22.166 3.5 26.499 10.5s6.5 15.5 6.5 25.5v21c0 25.333 -12 38 -36 38h-119c-10 0 -15 -5.66699 -15 -17v-507h-189v638c0 41.333 20.667 62 62 62h286z" />
    <glyph glyph-name="s" unicode="s" horiz-adv-x="640" 
d="M560 700l0.00195312 -183h-293c-24 0 -36 -12.667 -36 -38v-21c0 -24 11 -36 33 -36h152c61.333 0 105.166 -14.167 131.499 -42.5s39.5 -68.833 39.5 -121.5v-72c0 -124 -63 -186 -189 -186h-333v184h308c24 0 36 12.667 36 38v21c0 12 -2.33301 21 -7 27
s-13.334 9 -26.001 9h-162c-28.667 0 -53.167 3.83301 -73.5 11.5s-37 18.334 -50 32.001s-22.5 29.667 -28.5 48s-9 38.166 -9 59.499v84c0 124 63 186 189 186h318z" />
    <glyph glyph-name="t" unicode="t" horiz-adv-x="588" 
d="M562 700v-183h-536v183h536zM389 486v-486h-189v486h189z" />
    <glyph glyph-name="u" unicode="u" 
d="M250 700v-479c0 -24.667 11.667 -37 35 -37h109c23.333 0 35 12.333 35 37v479h189v-567c0 -88.667 -44 -133 -132 -133h-293c-88 -0 -132 44.333 -132 133v567h189z" />
    <glyph glyph-name="v" unicode="v" horiz-adv-x="680" 
d="M222 700l116 -438h4l121 438h201l-218 -678c-4.66699 -14.667 -15.334 -22 -32.001 -22h-150c-17.333 -0 -28.666 7.33301 -33.999 22l-214 678h206z" />
    <glyph glyph-name="w" unicode="w" horiz-adv-x="960" 
d="M250 700l-0.00195312 -479c0 -24.667 11.667 -37 35 -37h69c23.333 0 35 12.333 35 37v479h91h91v-479c0 -24.667 11.667 -37 35 -37h69c23.333 0 35 12.333 35 37v479h189v-567c0 -88.667 -44 -133 -132 -133h-199c-24.667 0 -44.167 5.5 -58.5 16.5
s-24.166 23.167 -29.499 36.5c-5.33301 -13.333 -15.166 -25.5 -29.499 -36.5s-33.833 -16.5 -58.5 -16.5h-199c-88 -0 -132 44.333 -132 133v567h189z" />
    <glyph glyph-name="x" unicode="x" horiz-adv-x="680" 
d="M257 700l84 -167l84 167h203l-170 -316l204 -384h-213l-114 218l-114 -218h-203l203 371l-177 329h213z" />
    <glyph glyph-name="y" unicode="y" horiz-adv-x="649" 
d="M419 240v-240h-189v240h189zM235 700v-225c0 -24.667 11.667 -37 35 -37h109c23.333 0 35 12.333 35 37v225h189v-296c0 -88.667 -44 -133 -132 -133h-293c-88 0 -132 44.333 -132 133v296h189z" />
    <glyph glyph-name="z" unicode="z" horiz-adv-x="628" 
d="M508 700c41.333 0 62 -21 62 -63v-68c0 -9.33301 -1 -17.5 -3 -24.5s-6 -14.5 -12 -22.5l-241 -334v-4h263v-184h-464c-41.333 0 -62 21 -62 63v68c0 9.33301 1 17.5 3 24.5s6 14.5 12 22.5l254 335v4h-257v183h445z" />
    <glyph glyph-name="braceleft" unicode="{" horiz-adv-x="332" 
d="M296 929v-114h-59c-7.33301 0 -11 -3.66699 -11 -11v-399c0 -15.333 -3 -30 -9 -44s-18.667 -24.667 -38 -32c19.333 -7.33301 32 -18 38 -32s9 -28.667 9 -44v-399c0 -7.33301 3.66699 -11 11 -11h59v-114h-93c-34.667 0 -59.167 8.16699 -73.5 24.5
s-21.5 41.5 -21.5 75.5v438c0 14 -6 21 -18 21h-36v82h36c12 0 18 7 18 21v438c0 34 7.16699 59.167 21.5 75.5s38.833 24.5 73.5 24.5h93z" />
    <glyph glyph-name="bar" unicode="|" horiz-adv-x="366" 
d="M242 929v-1200h-118v1200h118z" />
    <glyph glyph-name="braceright" unicode="}" horiz-adv-x="332" 
d="M129 929c34.667 0 59.167 -8.16699 73.5 -24.5s21.5 -41.5 21.5 -75.5v-438c0 -14 6 -21 18 -21h36v-82h-36c-12 0 -18 -7 -18 -21v-438c0 -34 -7.16699 -59.167 -21.5 -75.5s-38.833 -24.5 -73.5 -24.5h-93v114h59c7.33301 0 11 3.66699 11 11v399c0 15.333 3 30 9 44
s18.667 24.667 38 32c-19.333 7.33301 -32 18 -38 32s-9 28.667 -9 44v399c0 7.33301 -3.66699 11 -11 11h-59v114h93z" />
    <glyph glyph-name="asciitilde" unicode="~" horiz-adv-x="742" 
d="M66 375c15.333 19.333 35.501 34.3311 60.501 44.998s54.5 16 88.5 16c32 0 60.5 -4.16699 85.5 -12.5s48.5 -17.666 70.5 -27.999s44 -19.666 66 -27.999s46.333 -12.5 73 -12.5c26 0 52.667 5.66699 80 17s52.666 32 75.999 62h10v-123
c-18 -19.333 -42 -34.333 -72 -45s-61.333 -16 -94 -16c-30 0 -56.667 4 -80 12s-46 17 -68 27s-44.333 19 -67 27s-48 12 -76 12s-53.333 -5.5 -76 -16.5s-44.667 -30.5 -66 -58.5h-11v122z" />
    <glyph glyph-name="nonbreakingspace" unicode="&#xa0;" horiz-adv-x="455" 
 />
    <glyph glyph-name="exclamdown" unicode="&#xa1;" horiz-adv-x="321" 
d="M76 316v184h169v-184h-169zM66 -200v432h189v-432h-189z" />
    <glyph glyph-name="cent" unicode="&#xa2;" horiz-adv-x="575" 
d="M420 800v-100.002h99v-183h-156c-43.333 0 -74.5 -9.33301 -93.5 -28s-28.5 -52.334 -28.5 -101.001v-75c0 -48.667 9.5 -82.334 28.5 -101.001s50.167 -28 93.5 -28h156v-184h-99v-100h-118v103c-44 4.66699 -81.833 14.834 -113.5 30.501s-57.667 36.334 -78 62.001
s-35.166 56 -44.499 91s-14 74.167 -14 117.5v92c0 43.333 4.66699 82.5 14 117.5s24.166 65.333 44.499 91s46.333 46.334 78 62.001s69.5 25.834 113.5 30.501v103h118z" />
    <glyph glyph-name="sterling" unicode="&#xa3;" horiz-adv-x="599" 
d="M82 430c2.66699 42.667 10.499 80.668 23.499 114.001s31.833 61.5 56.5 84.5s55.834 40.667 93.501 53s82.167 18.5 133.5 18.5h147v-183h-144c-36 0 -64.833 -6.33301 -86.5 -19s-32.5 -35.334 -32.5 -68.001v-229c0 -11.333 4.66699 -17 14 -17h253v-184h-395
c-41.333 0 -62 21 -62 63v211h-54v156h53zM447.999 430.001v-156h-145v156h145z" />
    <glyph glyph-name="currency" unicode="&#xa4;" horiz-adv-x="596" 
d="M206 522c12 5.33301 25.5 9.33301 40.5 12s32.167 4 51.5 4c36 0 66.667 -5.33301 92 -16l83 83l81 -81l-92 -92c4 -16 6 -33.667 6 -53v-58c0 -20.667 -2 -39 -6 -55l92 -92l-81 -81l-85 84c-24 -10 -54 -15 -90 -15c-36.667 0 -67 5 -91 15l-84 -84l-81 81l92 92
c-4 16 -6 34.333 -6 55v58c0 9.33301 0.333008 18.5 1 27.5s2 17.5 4 25.5l-91 92l81 81zM235 333c0 -21.333 4.66699 -38.166 14 -50.499s25.666 -18.5 48.999 -18.5s39.666 6.16699 48.999 18.5s14 29.166 14 50.499v34c0 21.333 -4.66699 38 -14 50
s-25.666 18 -48.999 18s-39.666 -6 -48.999 -18s-14 -28.667 -14 -50v-34z" />
    <glyph glyph-name="yen" unicode="&#xa5;" horiz-adv-x="684" 
d="M254 700v-185c0 -24.667 11.667 -37 35 -37h109c23.333 0 35 12.333 35 37v185h189v-236c0 -88.667 -44 -133 -132 -133h-293c-88 0 -132 44.333 -132 133v236h189zM249 229v71h189v-71h178v-126h-178v-103h-189v103h-187v126h187z" />
    <glyph glyph-name="brokenbar" unicode="&#xa6;" horiz-adv-x="366" 
d="M242 929v-500h-118v500h118zM242 229v-500h-118v500h118z" />
    <glyph glyph-name="section" unicode="&#xa7;" horiz-adv-x="651" 
d="M585 750v-144h-370c-18.667 0 -28 -10 -28 -30v-46c0 -18.667 8.66699 -28 26 -28h159c48 0 82.333 -11.167 103 -33.5s31 -54.166 31 -95.499v-204c34.667 -5.33301 59.667 -18.666 75 -39.999s23 -47 23 -77v-96c0 -97.333 -49.333 -146 -148 -146h-390v144h370
c18.667 0 28 10 28 30v46c0 18.667 -8.66699 28 -26 28h-159c-48 0 -82.333 11.167 -103 33.5s-31 54.166 -31 95.499v204c-35.333 5.33301 -60.5 18.666 -75.5 39.999s-22.5 47 -22.5 77v96c0 97.333 49.333 146 148 146h390zM285 199c0 -9.33301 1.83301 -16.333 5.5 -21
s10.167 -7 19.5 -7h56v190c0 9.33301 -1.83301 16.333 -5.5 21s-10.167 7 -19.5 7h-56v-190z" />
    <glyph glyph-name="dieresis" unicode="&#xa8;" horiz-adv-x="551" 
d="M485 929v-164h-159v164h159zM225 929v-164h-159v164h159z" />
    <glyph glyph-name="copyright" unicode="&#xa9;" horiz-adv-x="782" 
d="M537 800c33.333 0 62.166 -5 86.499 -15s44.333 -24.167 60 -42.5s27.334 -40.333 35.001 -66s11.5 -54.5 11.5 -86.5v-480c0 -32 -3.83301 -60.833 -11.5 -86.5s-19.334 -47.667 -35.001 -66s-35.667 -32.5 -60 -42.5s-53.166 -15 -86.499 -15h-292
c-33.333 0 -62.166 5 -86.499 15s-44.333 24.167 -60 42.5s-27.334 40.333 -35.001 66s-11.5 54.5 -11.5 86.5v480c0 32 3.83301 60.833 11.5 86.5s19.334 47.667 35.001 66s35.667 32.5 60 42.5s53.166 15 86.499 15h292zM170 115c0 -32 6.5 -56.833 19.5 -74.5
s32.167 -26.5 57.5 -26.5h288c25.333 0 44.5 8.83301 57.5 26.5s19.5 42.5 19.5 74.5v470c0 30.667 -6.5 55.167 -19.5 73.5s-32.167 27.5 -57.5 27.5h-288c-25.333 0 -44.5 -9.16699 -57.5 -27.5s-19.5 -42.833 -19.5 -73.5v-470zM505 545v-102.001h-87
c-23.333 0 -40.333 -5 -51 -15s-16 -28.667 -16 -56v-42c0 -27.333 5.33301 -46.166 16 -56.499s27.667 -15.5 51 -15.5h87v-102h-88c-61.333 0 -105.166 14.833 -131.499 44.5s-39.5 71.167 -39.5 124.5v51c0 53.333 13.167 94.833 39.5 124.5s70.166 44.5 131.499 44.5h88
z" />
    <glyph glyph-name="ordfeminine" unicode="&#xaa;" horiz-adv-x="438" 
d="M256 700c10 0 16.667 -4 20 -12l131 -386h-221l27 105h47l-43 149h-3l-69 -254h-114l122 386c2.66699 8 8.66699 12 18 12h85zM407 258v-105h-376v105h376z" />
    <glyph glyph-name="guillemotleft" unicode="&#xab;" horiz-adv-x="412" 
d="M214 604l-100 -247c-2 -4 -3 -8.33301 -3 -13v-84c0 -4 1 -8.33301 3 -13l100 -247h-86l-101 225c-2 6 -3.5 11.333 -4.5 16s-1.5 10 -1.5 16v90c0 6 0.5 11.333 1.5 16s2.5 10 4.5 16l101 225h86zM390 604l-100 -247c-2 -4 -3 -8.33301 -3 -13v-84
c0 -4 1 -8.33301 3 -13l100 -247h-86l-101 225c-2 6 -3.5 11.333 -4.5 16s-1.5 10 -1.5 16v90c0 6 0.5 11.333 1.5 16s2.5 10 4.5 16l101 225h86z" />
    <glyph glyph-name="logicalnot" unicode="&#xac;" horiz-adv-x="742" 
d="M676 406v-406h-114v292h-496v114h610z" />
    <glyph glyph-name="registered" unicode="&#xae;" horiz-adv-x="782" 
d="M537 800c33.333 0 62.166 -5 86.499 -15s44.333 -24.167 60 -42.5s27.334 -40.333 35.001 -66s11.5 -54.5 11.5 -86.5v-480c0 -32 -3.83301 -60.833 -11.5 -86.5s-19.334 -47.667 -35.001 -66s-35.667 -32.5 -60 -42.5s-53.166 -15 -86.499 -15h-292
c-33.333 0 -62.166 5 -86.499 15s-44.333 24.167 -60 42.5s-27.334 40.333 -35.001 66s-11.5 54.5 -11.5 86.5v480c0 32 3.83301 60.833 11.5 86.5s19.334 47.667 35.001 66s35.667 32.5 60 42.5s53.166 15 86.499 15h292zM170 115c0 -32 6.5 -56.833 19.5 -74.5
s32.167 -26.5 57.5 -26.5h288c25.333 0 44.5 8.83301 57.5 26.5s19.5 42.5 19.5 74.5v470c0 30.667 -6.5 55.167 -19.5 73.5s-32.167 27.5 -57.5 27.5h-288c-25.333 0 -44.5 -9.16699 -57.5 -27.5s-19.5 -42.833 -19.5 -73.5v-470zM434 545c70 0 105 -34.332 105 -102.999
v-23c0 -18.667 -2.33301 -32.334 -7 -41.001s-12 -15.667 -22 -21c23.333 -9.33301 35 -31.333 35 -66v-135h-98v131c0 5.33301 -1.16699 10 -3.5 14s-7.16602 6 -14.499 6h-66v88h59c7.33301 0 12.166 1.83301 14.499 5.5s3.5 8.5 3.5 14.5v11c0 14 -6.66699 21 -20 21h-66
c-5.33301 0 -8 -3 -8 -9v-282h-105v355c0 22.667 11.333 34 34 34h159z" />
    <glyph glyph-name="macron" unicode="&#xaf;" horiz-adv-x="661" 
d="M595 899v-124h-529v124h529z" />
    <glyph glyph-name="degree" unicode="&#xb0;" horiz-adv-x="423" 
d="M209 625c-22 0 -37.833 -8.5 -47.5 -25.5s-14.5 -38.167 -14.5 -63.5s4.83301 -47 14.5 -65s25.5 -27 47.5 -27c23.333 0 39.833 9 49.5 27s14.5 39.667 14.5 65s-4.83301 46.5 -14.5 63.5s-26.167 25.5 -49.5 25.5zM209 713c29.333 0 54.333 -4.66699 75 -14
s37.5 -22 50.5 -38s22.333 -35 28 -57s8.5 -45.333 8.5 -70s-2.83301 -47.834 -8.5 -69.501s-15 -40.667 -28 -57s-29.833 -29.166 -50.5 -38.499s-45.667 -14 -75 -14c-28 0 -52 4.66699 -72 14s-36.333 22.166 -49 38.499s-21.834 35.333 -27.501 57
s-8.5 44.834 -8.5 69.501s2.83301 48 8.5 70s14.834 41 27.501 57s29 28.667 49 38s44 14 72 14z" />
    <glyph glyph-name="plusminus" unicode="&#xb1;" horiz-adv-x="742" 
d="M314 114v224h-248v114h248v248h114v-248h248v-114h-248v-224h248v-114h-610v114h248z" />
    <glyph glyph-name="twosuperior" unicode="&#xb2;" horiz-adv-x="386" 
d="M236 700c69.333 0 104 -34 104 -102v-46c0 -23.333 -6.66699 -43.166 -20 -59.499s-36 -24.5 -68 -24.5h-90c-12 0 -18 -6.33301 -18 -19v-24c0 -6 2.33301 -9 7 -9h184v-101h-239c-33.333 0 -50 17 -50 51v91c0 29.333 7.16699 51.666 21.5 66.999s38.5 23 72.5 23h84
c12 0 18 6.66699 18 20v11c0 14 -6.66699 21 -20 21h-160v101h174z" />
    <glyph glyph-name="threesuperior" unicode="&#xb3;" horiz-adv-x="376" 
d="M222 700c69.333 0 104.001 -34 104.001 -102v-23c0 -18.667 -2.33301 -32.167 -7 -40.5s-11.667 -15.166 -21 -20.499c10.667 -4.66699 19 -12.334 25 -23.001s9 -24.667 9 -42v-32c0 -68 -34.667 -102 -104 -102h-180v99h166c12.667 0 19 7 19 21v9
c0 5.33301 -1 10 -3 14s-6.66699 6 -14 6h-164v87h157c7.33301 0 12.166 2 14.499 6s3.5 8.66699 3.5 14v9c0 14 -6.66699 21 -20 21h-159v99h174z" />
    <glyph glyph-name="acute" unicode="&#xb4;" horiz-adv-x="441" 
d="M375 929l-140 -164h-169l100 164h209z" />
    <glyph glyph-name="paragraph" unicode="&#xb6;" horiz-adv-x="701" 
d="M496 700c104.667 0 157 -51.666 157 -154.999v-93c0 -50.667 -13 -91.334 -39 -122.001s-65.333 -46 -118 -46h-162v269h-98c-8.66699 0 -13 -4.66699 -13 -14v-810h-157v919c0 34.667 17.333 52 52 52h378z" />
    <glyph glyph-name="periodcentered" unicode="&#xb7;" horiz-adv-x="301" 
d="M235 446v-184h-169v184h169z" />
    <glyph glyph-name="cedilla" unicode="&#xb8;" horiz-adv-x="387" 
d="M321 -42l-99 -229h-156l59 229h196z" />
    <glyph glyph-name="onesuperior" unicode="&#xb9;" horiz-adv-x="221" 
d="M136 700c22.667 0 34 -11.667 34 -35v-350h-104v274c0 6.66699 -2.66699 10 -8 10h-29v101h107z" />
    <glyph glyph-name="ordmasculine" unicode="&#xba;" horiz-adv-x="443" 
d="M409 258v-105h-376v105h376zM50 533c0 54.667 13 97.167 39 127.5s70 45.5 132 45.5c62.667 0 107 -15.167 133 -45.5s39 -72.833 39 -127.5v-64c0 -54.667 -13 -97.167 -39 -127.5s-70.333 -45.5 -133 -45.5c-62 0 -106 15.167 -132 45.5s-39 72.833 -39 127.5v64z
M157 474c0 -28 4.5 -47.333 13.5 -58s25.833 -16 50.5 -16s41.5 5.33301 50.5 16s13.5 30 13.5 58v54c0 28 -4.5 47.333 -13.5 58s-25.833 16 -50.5 16s-41.5 -5.33301 -50.5 -16s-13.5 -30 -13.5 -58v-54z" />
    <glyph glyph-name="guillemotright" unicode="&#xbb;" horiz-adv-x="412" 
d="M107 604l101 -225c2 -6 3.5 -11.333 4.5 -16s1.5 -10 1.5 -16v-90c0 -6 -0.5 -11.333 -1.5 -16s-2.5 -10 -4.5 -16l-101 -225h-86l100 247c2 4.66699 3 9 3 13v84c0 4.66699 -1 9 -3 13l-100 247h86zM283 604l101 -225c2 -6 3.5 -11.333 4.5 -16s1.5 -10 1.5 -16v-90
c0 -6 -0.5 -11.333 -1.5 -16s-2.5 -10 -4.5 -16l-101 -225h-86l100 247c2 4.66699 3 9 3 13v84c0 4.66699 -1 9 -3 13l-100 247h86z" />
    <glyph glyph-name="onequarter" unicode="&#xbc;" horiz-adv-x="767" 
d="M159 700c22.667 0 34 -11.667 34 -35v-350h-104v274c0 6.66699 -2.66699 10 -8 10h-29v101h107zM614 700l-420 -700h-129l420 700h129zM693 386l-131.999 -198.001v-3h154v-185h-104v94h-158c-22.667 0 -34 11.333 -34 34v28c0 5.33301 0.666992 9.83301 2 13.5
s3.66602 7.83398 6.99902 12.501l140 204h125z" />
    <glyph glyph-name="onehalf" unicode="&#xbd;" horiz-adv-x="826" 
d="M159 700c22.667 0 34 -11.667 34 -35v-350h-104v274c0 6.66699 -2.66699 10 -8 10h-29v101h107zM614 700l-420 -700h-129l420 700h129zM670 385c69.333 0 104 -34 104 -102v-46c0 -23.333 -6.66699 -43.166 -20 -59.499s-36 -24.5 -68 -24.5h-90
c-12 0 -18 -6.33301 -18 -19v-24c0 -6 2.33301 -9 7 -9h184v-101h-239c-33.333 0 -50 17 -50 51v91c0 29.333 7.16699 51.666 21.5 66.999s38.5 23 72.5 23h84c12 0 18 6.66699 18 20v11c0 14 -6.66699 21 -20 21h-160v101h174z" />
    <glyph glyph-name="threequarters" unicode="&#xbe;" horiz-adv-x="883" 
d="M226 700c69.333 0 104.001 -34 104.001 -102v-23c0 -18.667 -2.33301 -32.167 -7 -40.5s-11.667 -15.166 -21 -20.499c10.667 -4.66699 19 -12.334 25 -23.001s9 -24.667 9 -42v-32c0 -68 -34.667 -102 -104 -102h-180v99h166c12.667 0 19 7 19 21v9
c0 5.33301 -1 10 -3 14s-6.66699 6 -14 6h-164v87h157c7.33301 0 12.166 2 14.499 6s3.5 8.66699 3.5 14v9c0 14 -6.66699 21 -20 21h-159v99h174zM730.001 700l-420 -700h-129l420 700h129zM809.001 386l-131.999 -198.001v-3h154v-185h-104v94h-158
c-22.667 0 -34 11.333 -34 34v28c0 5.33301 0.666992 9.83301 2 13.5s3.66602 7.83398 6.99902 12.501l140 204h125z" />
    <glyph glyph-name="questiondown" unicode="&#xbf;" horiz-adv-x="568" 
d="M239 316v184h169v-184h-169zM225 -200c-126 0 -189 62.002 -189 186.002v36c0 20.667 1.16699 39.167 3.5 55.5s7.16602 31.666 14.499 45.999s17.833 27.666 31.5 39.999s32.167 24.833 55.5 37.5l57 31h189l-110 -103c-9.33301 -9.33301 -17.166 -19.5 -23.499 -30.5
s-9.5 -23.5 -9.5 -37.5v-40c0 -25.333 12 -38 36 -38h262v-183h-317z" />
    <glyph glyph-name="Agrave" unicode="&#xc0;" horiz-adv-x="692" 
d="M412 700c17.333 0 28.666 -7.33301 33.999 -22l230 -678h-414l47 184h110l-77 262h-4l-121 -446h-201l214 678c4.66699 14.667 15.334 22 32.001 22h150zM350 929l100 -164h-169l-140 164h209z" />
    <glyph glyph-name="Aacute" unicode="&#xc1;" horiz-adv-x="692" 
d="M412 700c17.333 0 28.666 -7.33301 33.999 -22l230 -678h-414l47 184h110l-77 262h-4l-121 -446h-201l214 678c4.66699 14.667 15.334 22 32.001 22h150zM550 929l-140 -164h-169l100 164h209z" />
    <glyph glyph-name="Acircumflex" unicode="&#xc2;" horiz-adv-x="692" 
d="M412 700c17.333 0 28.666 -7.33301 33.999 -22l230 -678h-414l47 184h110l-77 262h-4l-121 -446h-201l214 678c4.66699 14.667 15.334 22 32.001 22h150zM404 929c18 0 33.333 -2 46 -6s21.667 -10.333 27 -19l82 -139h-170l-41 70h-4l-40 -70h-172l83 139
c5.33301 8.66699 14.333 15 27 19s28 6 46 6h116z" />
    <glyph glyph-name="Atilde" unicode="&#xc3;" horiz-adv-x="692" 
d="M412 700c17.333 0 28.666 -7.33301 33.999 -22l230 -678h-414l47 184h110l-77 262h-4l-121 -446h-201l214 678c4.66699 14.667 15.334 22 32.001 22h150zM81 876c13.333 16.667 30.666 29.667 51.999 39s47 14 77 14c28 0 52.833 -3.66699 74.5 -11
s42.167 -15.333 61.5 -24s38.5 -16.667 57.5 -24s40.167 -11 63.5 -11c22.667 0 45.834 4.83301 69.501 14.5s45.5 27.5 65.5 53.5h9v-137c-15.333 -16.667 -36.166 -29.667 -62.499 -39s-53.5 -14 -81.5 -14c-26 0 -49.167 3.5 -69.5 10.5s-40 14.833 -59 23.5
s-38.333 16.5 -58 23.5s-41.834 10.5 -66.501 10.5s-46.667 -4.66699 -66 -14s-38.333 -26.333 -57 -51h-10v136z" />
    <glyph glyph-name="Adieresis" unicode="&#xc4;" horiz-adv-x="692" 
d="M412 700c17.333 0 28.666 -7.33301 33.999 -22l230 -678h-414l47 184h110l-77 262h-4l-121 -446h-201l214 678c4.66699 14.667 15.334 22 32.001 22h150zM555 929v-164h-159v164h159zM295 929v-164h-159v164h159z" />
    <glyph glyph-name="Aring" unicode="&#xc5;" horiz-adv-x="692" 
d="M412 700c17.333 0 28.666 -7.33301 33.999 -22l230 -678h-414l47 184h110l-77 262h-4l-121 -446h-201l214 678c4.66699 14.667 15.334 22 32.001 22h150zM219 834c0 30 9.5 53.333 28.5 70s51.833 25 98.5 25c46 0 78.5 -8.33301 97.5 -25s28.5 -40 28.5 -70v-34
c0 -30 -9.5 -53.333 -28.5 -70s-51.5 -25 -97.5 -25c-46.667 0 -79.5 8.33301 -98.5 25s-28.5 40 -28.5 70v34zM309 806c0 -11.333 2.66699 -19.166 8 -23.499s15 -6.5 29 -6.5c13.333 0 22.666 2.16699 27.999 6.5s8 12.166 8 23.499v22c0 11.333 -2.66699 19.333 -8 24
s-14.666 7 -27.999 7c-14 0 -23.667 -2.33301 -29 -7s-8 -12.667 -8 -24v-22z" />
    <glyph glyph-name="AE" unicode="&#xc6;" horiz-adv-x="917" 
d="M858 700l-0.000976562 -183h-268v-316c0 -11.333 5 -17 15 -17h253v-184h-395c-41.333 0 -62 21 -62 63v454h-32c-3.33301 0 -6.5 -1.5 -9.5 -4.5s-5.16699 -6.16699 -6.5 -9.5l-136 -503h-201l214 678c4.66699 14.667 15.334 22 32.001 22h596zM855.999 437v-166h-235
v166h235z" />
    <glyph glyph-name="Ccedilla" unicode="&#xc7;" horiz-adv-x="573" 
d="M519 700v-182.998h-156c-43.333 0 -74.5 -9.33301 -93.5 -28s-28.5 -52.334 -28.5 -101.001v-75c0 -48.667 9.5 -82.334 28.5 -101.001s50.167 -28 93.5 -28h156v-184h-159c-54.667 -0 -101.5 6.83301 -140.5 20.5s-70.833 33.5 -95.5 59.5s-42.834 57.833 -54.501 95.5
s-17.5 80.5 -17.5 128.5v92c0 48 5.83301 90.833 17.5 128.5s29.834 69.5 54.501 95.5s56.5 45.833 95.5 59.5s85.833 20.5 140.5 20.5h159zM474 -41.998l-99 -229h-156l59 229h196z" />
    <glyph glyph-name="Egrave" unicode="&#xc8;" horiz-adv-x="580" 
d="M521 700v-183h-253c-10 0 -15 -5.66699 -15 -17v-299c0 -11.333 5 -17 15 -17h253v-184h-395c-41.333 0 -62 21 -62 63v575c0 41.333 20.667 62 62 62h395zM519 437v-166h-235v166h235zM294 929l100 -164h-169l-140 164h209z" />
    <glyph glyph-name="Eacute" unicode="&#xc9;" horiz-adv-x="580" 
d="M521 700v-183h-253c-10 0 -15 -5.66699 -15 -17v-299c0 -11.333 5 -17 15 -17h253v-184h-395c-41.333 0 -62 21 -62 63v575c0 41.333 20.667 62 62 62h395zM519 437v-166h-235v166h235zM494 929l-140 -164h-169l100 164h209z" />
    <glyph glyph-name="Ecircumflex" unicode="&#xca;" horiz-adv-x="580" 
d="M521 700v-183h-253c-10 0 -15 -5.66699 -15 -17v-299c0 -11.333 5 -17 15 -17h253v-184h-395c-41.333 0 -62 21 -62 63v575c0 41.333 20.667 62 62 62h395zM519 437v-166h-235v166h235zM348 929c18 0 33.333 -2 46 -6s21.667 -10.333 27 -19l82 -139h-170l-41 70h-4
l-40 -70h-172l83 139c5.33301 8.66699 14.333 15 27 19s28 6 46 6h116z" />
    <glyph glyph-name="Edieresis" unicode="&#xcb;" horiz-adv-x="580" 
d="M521 700v-183h-253c-10 0 -15 -5.66699 -15 -17v-299c0 -11.333 5 -17 15 -17h253v-184h-395c-41.333 0 -62 21 -62 63v575c0 41.333 20.667 62 62 62h395zM519 437v-166h-235v166h235zM499 929v-164h-159v164h159zM239 929v-164h-159v164h159z" />
    <glyph glyph-name="Igrave" unicode="&#xcc;" horiz-adv-x="365" 
d="M299 700v-700h-189v700h189zM209 929l100 -164h-169l-140 164h209z" />
    <glyph glyph-name="Iacute" unicode="&#xcd;" horiz-adv-x="365" 
d="M255 700v-700h-189v700h189zM365 929l-140 -164h-169l100 164h209z" />
    <glyph glyph-name="Icircumflex" unicode="&#xce;" horiz-adv-x="427" 
d="M308 700v-700h-189v700h189zM272 929c18 0 33.333 -2 46 -6s21.667 -10.333 27 -19l82 -139h-170l-41 70h-4l-40 -70h-172l83 139c5.33301 8.66699 14.333 15 27 19s28 6 46 6h116z" />
    <glyph glyph-name="Idieresis" unicode="&#xcf;" horiz-adv-x="432" 
d="M310 700v-700h-189v700h189zM425 929v-164h-159v164h159zM165 929v-164h-159v164h159z" />
    <glyph glyph-name="Eth" unicode="&#xd0;" horiz-adv-x="699" 
d="M339 700c54.667 0 101.5 -6.83301 140.5 -20.5s70.833 -33.5 95.5 -59.5s42.834 -57.833 54.501 -95.5s17.5 -80.5 17.5 -128.5v-92c0 -48 -5.83301 -90.833 -17.5 -128.5s-29.834 -69.5 -54.501 -95.5s-56.5 -45.833 -95.5 -59.5s-85.833 -20.5 -140.5 -20.5h-197
c-41.333 0 -62 20.667 -62 62v209h-61v166h61v201c0 41.333 20.667 62 62 62h197zM269 201c0 -11.333 5 -17.002 15 -17.002h63c43.333 0 74.5 9.33301 93.5 28s28.5 52.334 28.5 101.001v75c0 48.667 -9.5 82.334 -28.5 101.001s-50.167 28 -93.5 28h-63
c-10 0 -15 -5.66699 -15 -17v-299zM388 436.998v-166h-88v166h88z" />
    <glyph glyph-name="Ntilde" unicode="&#xd1;" horiz-adv-x="690" 
d="M217 700c32 0 55.668 -14.667 71.001 -44l150 -287h4v331h184v-657c0 -12 -3.33301 -22.167 -10 -30.5s-15.667 -12.5 -27 -12.5h-89c-30.667 0 -54.334 14.667 -71.001 44l-177 304h-4v-348h-184v657c0 12 3.33301 22.167 10 30.5s15.667 12.5 27 12.5h116zM80.001 876
c13.333 16.667 30.666 29.667 51.999 39s47 14 77 14c28 0 52.833 -3.66699 74.5 -11s42.167 -15.333 61.5 -24s38.5 -16.667 57.5 -24s40.167 -11 63.5 -11c22.667 0 45.834 4.83301 69.501 14.5s45.5 27.5 65.5 53.5h9v-137c-15.333 -16.667 -36.166 -29.667 -62.499 -39
s-53.5 -14 -81.5 -14c-26 0 -49.167 3.5 -69.5 10.5s-40 14.833 -59 23.5s-38.333 16.5 -58 23.5s-41.834 10.5 -66.501 10.5s-46.667 -4.66699 -66 -14s-38.333 -26.333 -57 -51h-10v136z" />
    <glyph glyph-name="Ograve" unicode="&#xd2;" horiz-adv-x="706" 
d="M52 406c0 48 5.33301 90.833 16 128.5s28 69.5 52 95.5s55.167 45.833 93.5 59.5s84.833 20.5 139.5 20.5s101.167 -6.83301 139.5 -20.5s69.5 -33.5 93.5 -59.5s41.333 -57.833 52 -95.5s16 -80.5 16 -128.5v-112c0 -48 -5.33301 -90.833 -16 -128.5
s-28 -69.5 -52 -95.5s-55.167 -45.833 -93.5 -59.5s-84.833 -20.5 -139.5 -20.5s-101.167 6.83301 -139.5 20.5s-69.5 33.5 -93.5 59.5s-41.333 57.833 -52 95.5s-16 80.5 -16 128.5v112zM241 302c0 -24 1.83301 -44.333 5.5 -61s9.83398 -30 18.501 -40
s20.167 -17.167 34.5 -21.5s32.166 -6.5 53.499 -6.5s39.166 2.16699 53.499 6.5s25.833 11.5 34.5 21.5s14.834 23.333 18.501 40s5.5 37 5.5 61v96c0 24 -1.83301 44.333 -5.5 61s-9.83398 30 -18.501 40s-20.167 17.167 -34.5 21.5s-32.166 6.5 -53.499 6.5
s-39.166 -2.16699 -53.499 -6.5s-25.833 -11.5 -34.5 -21.5s-14.834 -23.333 -18.501 -40s-5.5 -37 -5.5 -61v-96zM357 929l100 -164h-169l-140 164h209z" />
    <glyph glyph-name="Oacute" unicode="&#xd3;" horiz-adv-x="706" 
d="M52 406c0 48 5.33301 90.833 16 128.5s28 69.5 52 95.5s55.167 45.833 93.5 59.5s84.833 20.5 139.5 20.5s101.167 -6.83301 139.5 -20.5s69.5 -33.5 93.5 -59.5s41.333 -57.833 52 -95.5s16 -80.5 16 -128.5v-112c0 -48 -5.33301 -90.833 -16 -128.5
s-28 -69.5 -52 -95.5s-55.167 -45.833 -93.5 -59.5s-84.833 -20.5 -139.5 -20.5s-101.167 6.83301 -139.5 20.5s-69.5 33.5 -93.5 59.5s-41.333 57.833 -52 95.5s-16 80.5 -16 128.5v112zM241 302c0 -24 1.83301 -44.333 5.5 -61s9.83398 -30 18.501 -40
s20.167 -17.167 34.5 -21.5s32.166 -6.5 53.499 -6.5s39.166 2.16699 53.499 6.5s25.833 11.5 34.5 21.5s14.834 23.333 18.501 40s5.5 37 5.5 61v96c0 24 -1.83301 44.333 -5.5 61s-9.83398 30 -18.501 40s-20.167 17.167 -34.5 21.5s-32.166 6.5 -53.499 6.5
s-39.166 -2.16699 -53.499 -6.5s-25.833 -11.5 -34.5 -21.5s-14.834 -23.333 -18.501 -40s-5.5 -37 -5.5 -61v-96zM557 929l-140 -164h-169l100 164h209z" />
    <glyph glyph-name="Ocircumflex" unicode="&#xd4;" horiz-adv-x="706" 
d="M52 406c0 48 5.33301 90.833 16 128.5s28 69.5 52 95.5s55.167 45.833 93.5 59.5s84.833 20.5 139.5 20.5s101.167 -6.83301 139.5 -20.5s69.5 -33.5 93.5 -59.5s41.333 -57.833 52 -95.5s16 -80.5 16 -128.5v-112c0 -48 -5.33301 -90.833 -16 -128.5
s-28 -69.5 -52 -95.5s-55.167 -45.833 -93.5 -59.5s-84.833 -20.5 -139.5 -20.5s-101.167 6.83301 -139.5 20.5s-69.5 33.5 -93.5 59.5s-41.333 57.833 -52 95.5s-16 80.5 -16 128.5v112zM241 302c0 -24 1.83301 -44.333 5.5 -61s9.83398 -30 18.501 -40
s20.167 -17.167 34.5 -21.5s32.166 -6.5 53.499 -6.5s39.166 2.16699 53.499 6.5s25.833 11.5 34.5 21.5s14.834 23.333 18.501 40s5.5 37 5.5 61v96c0 24 -1.83301 44.333 -5.5 61s-9.83398 30 -18.501 40s-20.167 17.167 -34.5 21.5s-32.166 6.5 -53.499 6.5
s-39.166 -2.16699 -53.499 -6.5s-25.833 -11.5 -34.5 -21.5s-14.834 -23.333 -18.501 -40s-5.5 -37 -5.5 -61v-96zM411 929c18 0 33.333 -2 46 -6s21.667 -10.333 27 -19l82 -139h-170l-41 70h-4l-40 -70h-172l83 139c5.33301 8.66699 14.333 15 27 19s28 6 46 6h116z" />
    <glyph glyph-name="Otilde" unicode="&#xd5;" horiz-adv-x="706" 
d="M52 406c0 48 5.33301 90.833 16 128.5s28 69.5 52 95.5s55.167 45.833 93.5 59.5s84.833 20.5 139.5 20.5s101.167 -6.83301 139.5 -20.5s69.5 -33.5 93.5 -59.5s41.333 -57.833 52 -95.5s16 -80.5 16 -128.5v-112c0 -48 -5.33301 -90.833 -16 -128.5
s-28 -69.5 -52 -95.5s-55.167 -45.833 -93.5 -59.5s-84.833 -20.5 -139.5 -20.5s-101.167 6.83301 -139.5 20.5s-69.5 33.5 -93.5 59.5s-41.333 57.833 -52 95.5s-16 80.5 -16 128.5v112zM241 302c0 -24 1.83301 -44.333 5.5 -61s9.83398 -30 18.501 -40
s20.167 -17.167 34.5 -21.5s32.166 -6.5 53.499 -6.5s39.166 2.16699 53.499 6.5s25.833 11.5 34.5 21.5s14.834 23.333 18.501 40s5.5 37 5.5 61v96c0 24 -1.83301 44.333 -5.5 61s-9.83398 30 -18.501 40s-20.167 17.167 -34.5 21.5s-32.166 6.5 -53.499 6.5
s-39.166 -2.16699 -53.499 -6.5s-25.833 -11.5 -34.5 -21.5s-14.834 -23.333 -18.501 -40s-5.5 -37 -5.5 -61v-96zM88 876c13.333 16.667 30.666 29.667 51.999 39s47 14 77 14c28 0 52.833 -3.66699 74.5 -11s42.167 -15.333 61.5 -24s38.5 -16.667 57.5 -24
s40.167 -11 63.5 -11c22.667 0 45.834 4.83301 69.501 14.5s45.5 27.5 65.5 53.5h9v-137c-15.333 -16.667 -36.166 -29.667 -62.499 -39s-53.5 -14 -81.5 -14c-26 0 -49.167 3.5 -69.5 10.5s-40 14.833 -59 23.5s-38.333 16.5 -58 23.5s-41.834 10.5 -66.501 10.5
s-46.667 -4.66699 -66 -14s-38.333 -26.333 -57 -51h-10v136z" />
    <glyph glyph-name="Odieresis" unicode="&#xd6;" horiz-adv-x="706" 
d="M52 406c0 48 5.33301 90.833 16 128.5s28 69.5 52 95.5s55.167 45.833 93.5 59.5s84.833 20.5 139.5 20.5s101.167 -6.83301 139.5 -20.5s69.5 -33.5 93.5 -59.5s41.333 -57.833 52 -95.5s16 -80.5 16 -128.5v-112c0 -48 -5.33301 -90.833 -16 -128.5
s-28 -69.5 -52 -95.5s-55.167 -45.833 -93.5 -59.5s-84.833 -20.5 -139.5 -20.5s-101.167 6.83301 -139.5 20.5s-69.5 33.5 -93.5 59.5s-41.333 57.833 -52 95.5s-16 80.5 -16 128.5v112zM241 302c0 -24 1.83301 -44.333 5.5 -61s9.83398 -30 18.501 -40
s20.167 -17.167 34.5 -21.5s32.166 -6.5 53.499 -6.5s39.166 2.16699 53.499 6.5s25.833 11.5 34.5 21.5s14.834 23.333 18.501 40s5.5 37 5.5 61v96c0 24 -1.83301 44.333 -5.5 61s-9.83398 30 -18.501 40s-20.167 17.167 -34.5 21.5s-32.166 6.5 -53.499 6.5
s-39.166 -2.16699 -53.499 -6.5s-25.833 -11.5 -34.5 -21.5s-14.834 -23.333 -18.501 -40s-5.5 -37 -5.5 -61v-96zM562 929v-164h-159v164h159zM302 929v-164h-159v164h159z" />
    <glyph glyph-name="multiply" unicode="&#xd7;" horiz-adv-x="742" 
d="M371 430l175 175l81 -81l-175 -175l175 -175l-81 -81l-175 175l-175 -175l-81 81l175 175l-175 175l81 81z" />
    <glyph glyph-name="Oslash" unicode="&#xd8;" horiz-adv-x="706" 
d="M654 800l-85.001 -155c30 -26 51.667 -59.167 65 -99.5s20 -86.833 20 -139.5v-112c0 -47.333 -5.33301 -89.833 -16 -127.5s-28 -69.5 -52 -95.5s-55 -46 -93 -60s-84 -21 -138 -21c-27.333 0 -51.666 1.66699 -72.999 5s-41.333 7.66602 -60 12.999l-58 -108h-112
l84 155c-30 26 -51.5 59 -64.5 99s-19.5 86.667 -19.5 140v112c0 47.333 5.33301 89.833 16 127.5s28 69.5 52 95.5s54.833 46 92.5 60s83.5 21 137.5 21c27.333 0 51.833 -1.66699 73.5 -5s41.5 -7.66602 59.5 -12.999l59 108h112zM473.999 398
c0 23.333 -2.00098 43.667 -6.00098 61l-154 -284c5.33301 -0.666992 11.333 -1.16699 18 -1.5s14 -0.5 22 -0.5c22.667 0 41.834 2.16699 57.501 6.5s28 11.5 37 21.5s15.5 23.333 19.5 40s6 37 6 61v96zM231.998 302.001c0 -12 0.332031 -23.1689 0.999023 -33.502
s2 -19.5 4 -27.5l155 283c-12 2 -25.333 3 -40 3c-23.333 0 -42.666 -2.16699 -57.999 -6.5s-27.5 -11.666 -36.5 -21.999s-15.5 -23.666 -19.5 -39.999s-6 -36.5 -6 -60.5v-96z" />
    <glyph glyph-name="Ugrave" unicode="&#xd9;" 
d="M250 700v-479c0 -24.667 11.667 -37 35 -37h109c23.333 0 35 12.333 35 37v479h189v-567c0 -88.667 -44 -133 -132 -133h-293c-88 -0 -132 44.333 -132 133v567h189zM344 929l100 -164h-169l-140 164h209z" />
    <glyph glyph-name="Uacute" unicode="&#xda;" 
d="M250 700v-479c0 -24.667 11.667 -37 35 -37h109c23.333 0 35 12.333 35 37v479h189v-567c0 -88.667 -44 -133 -132 -133h-293c-88 -0 -132 44.333 -132 133v567h189zM544 929l-140 -164h-169l100 164h209z" />
    <glyph glyph-name="Ucircumflex" unicode="&#xdb;" 
d="M250 700v-479c0 -24.667 11.667 -37 35 -37h109c23.333 0 35 12.333 35 37v479h189v-567c0 -88.667 -44 -133 -132 -133h-293c-88 -0 -132 44.333 -132 133v567h189zM398 929c18 0 33.333 -2 46 -6s21.667 -10.333 27 -19l82 -139h-170l-41 70h-4l-40 -70h-172l83 139
c5.33301 8.66699 14.333 15 27 19s28 6 46 6h116z" />
    <glyph glyph-name="Udieresis" unicode="&#xdc;" 
d="M250 700v-479c0 -24.667 11.667 -37 35 -37h109c23.333 0 35 12.333 35 37v479h189v-567c0 -88.667 -44 -133 -132 -133h-293c-88 -0 -132 44.333 -132 133v567h189zM549 929v-164h-159v164h159zM289 929v-164h-159v164h159z" />
    <glyph glyph-name="Yacute" unicode="&#xdd;" horiz-adv-x="649" 
d="M419 240v-240h-189v240h189zM235 700v-225c0 -24.667 11.667 -37 35 -37h109c23.333 0 35 12.333 35 37v225h189v-296c0 -88.667 -44 -133 -132 -133h-293c-88 0 -132 44.333 -132 133v296h189zM529 929l-140 -164h-169l100 164h209z" />
    <glyph glyph-name="Thorn" unicode="&#xde;" horiz-adv-x="639" 
d="M255 700v-700h-189v700h189zM414 579c63.333 0 110.666 -18.333 141.999 -55s47 -85.667 47 -147v-56c0 -61.333 -15.667 -110.333 -47 -147s-78.666 -55 -141.999 -55h-128v158h106c13.333 0 22.166 3.5 26.499 10.5s6.5 15.5 6.5 25.5v72c0 10 -2.16699 18.5 -6.5 25.5
s-13.166 10.5 -26.499 10.5h-106v158h128z" />
    <glyph glyph-name="germandbls" unicode="&#xdf;" horiz-adv-x="746" 
d="M358 700c97.333 0 146.002 -54.333 146.002 -163v-95c0 -13.333 7 -20 21 -20h14c61.333 0 105.166 -14.167 131.499 -42.5s39.5 -68.833 39.5 -121.5v-72c0 -124 -63 -186 -189 -186h-235v184h219c24 0 36 12.667 36 38v21c0 12 -2.33301 21 -7 27s-13.334 9 -26.001 9
h-21c-28.667 0 -53.167 3.83301 -73.5 11.5s-37 18.334 -50 32.001s-22.5 29.667 -28.5 48s-9 38.166 -9 59.499v61c0 22 -9.33301 33 -28 33h-15c-18.667 0 -28 -11 -28 -33v-491h-189v537c0 108.667 48.667 163 146 163h146z" />
    <glyph glyph-name="agrave" unicode="&#xe0;" horiz-adv-x="692" 
d="M412 700c17.333 0 28.666 -7.33301 33.999 -22l230 -678h-414l47 184h110l-77 262h-4l-121 -446h-201l214 678c4.66699 14.667 15.334 22 32.001 22h150zM350 929l100 -164h-169l-140 164h209z" />
    <glyph glyph-name="aacute" unicode="&#xe1;" horiz-adv-x="692" 
d="M412 700c17.333 0 28.666 -7.33301 33.999 -22l230 -678h-414l47 184h110l-77 262h-4l-121 -446h-201l214 678c4.66699 14.667 15.334 22 32.001 22h150zM550 929l-140 -164h-169l100 164h209z" />
    <glyph glyph-name="acircumflex" unicode="&#xe2;" horiz-adv-x="692" 
d="M412 700c17.333 0 28.666 -7.33301 33.999 -22l230 -678h-414l47 184h110l-77 262h-4l-121 -446h-201l214 678c4.66699 14.667 15.334 22 32.001 22h150zM404 929c18 0 33.333 -2 46 -6s21.667 -10.333 27 -19l82 -139h-170l-41 70h-4l-40 -70h-172l83 139
c5.33301 8.66699 14.333 15 27 19s28 6 46 6h116z" />
    <glyph glyph-name="atilde" unicode="&#xe3;" horiz-adv-x="692" 
d="M412 700c17.333 0 28.666 -7.33301 33.999 -22l230 -678h-414l47 184h110l-77 262h-4l-121 -446h-201l214 678c4.66699 14.667 15.334 22 32.001 22h150zM81 876c13.333 16.667 30.666 29.667 51.999 39s47 14 77 14c28 0 52.833 -3.66699 74.5 -11
s42.167 -15.333 61.5 -24s38.5 -16.667 57.5 -24s40.167 -11 63.5 -11c22.667 0 45.834 4.83301 69.501 14.5s45.5 27.5 65.5 53.5h9v-137c-15.333 -16.667 -36.166 -29.667 -62.499 -39s-53.5 -14 -81.5 -14c-26 0 -49.167 3.5 -69.5 10.5s-40 14.833 -59 23.5
s-38.333 16.5 -58 23.5s-41.834 10.5 -66.501 10.5s-46.667 -4.66699 -66 -14s-38.333 -26.333 -57 -51h-10v136z" />
    <glyph glyph-name="adieresis" unicode="&#xe4;" horiz-adv-x="692" 
d="M412 700c17.333 0 28.666 -7.33301 33.999 -22l230 -678h-414l47 184h110l-77 262h-4l-121 -446h-201l214 678c4.66699 14.667 15.334 22 32.001 22h150zM555 929v-164h-159v164h159zM295 929v-164h-159v164h159z" />
    <glyph glyph-name="aring" unicode="&#xe5;" horiz-adv-x="692" 
d="M412 700c17.333 0 28.666 -7.33301 33.999 -22l230 -678h-414l47 184h110l-77 262h-4l-121 -446h-201l214 678c4.66699 14.667 15.334 22 32.001 22h150zM219 834c0 30 9.5 53.333 28.5 70s51.833 25 98.5 25c46 0 78.5 -8.33301 97.5 -25s28.5 -40 28.5 -70v-34
c0 -30 -9.5 -53.333 -28.5 -70s-51.5 -25 -97.5 -25c-46.667 0 -79.5 8.33301 -98.5 25s-28.5 40 -28.5 70v34zM309 806c0 -11.333 2.66699 -19.166 8 -23.499s15 -6.5 29 -6.5c13.333 0 22.666 2.16699 27.999 6.5s8 12.166 8 23.499v22c0 11.333 -2.66699 19.333 -8 24
s-14.666 7 -27.999 7c-14 0 -23.667 -2.33301 -29 -7s-8 -12.667 -8 -24v-22z" />
    <glyph glyph-name="ae" unicode="&#xe6;" horiz-adv-x="917" 
d="M858 700l-0.000976562 -183h-268v-316c0 -11.333 5 -17 15 -17h253v-184h-395c-41.333 0 -62 21 -62 63v454h-32c-3.33301 0 -6.5 -1.5 -9.5 -4.5s-5.16699 -6.16699 -6.5 -9.5l-136 -503h-201l214 678c4.66699 14.667 15.334 22 32.001 22h596zM855.999 437v-166h-235
v166h235z" />
    <glyph glyph-name="ccedilla" unicode="&#xe7;" horiz-adv-x="573" 
d="M519 700v-182.998h-156c-43.333 0 -74.5 -9.33301 -93.5 -28s-28.5 -52.334 -28.5 -101.001v-75c0 -48.667 9.5 -82.334 28.5 -101.001s50.167 -28 93.5 -28h156v-184h-159c-54.667 -0 -101.5 6.83301 -140.5 20.5s-70.833 33.5 -95.5 59.5s-42.834 57.833 -54.501 95.5
s-17.5 80.5 -17.5 128.5v92c0 48 5.83301 90.833 17.5 128.5s29.834 69.5 54.501 95.5s56.5 45.833 95.5 59.5s85.833 20.5 140.5 20.5h159zM474 -41.998l-99 -229h-156l59 229h196z" />
    <glyph glyph-name="egrave" unicode="&#xe8;" horiz-adv-x="580" 
d="M521 700v-183h-253c-10 0 -15 -5.66699 -15 -17v-299c0 -11.333 5 -17 15 -17h253v-184h-395c-41.333 0 -62 21 -62 63v575c0 41.333 20.667 62 62 62h395zM519 437v-166h-235v166h235zM294 929l100 -164h-169l-140 164h209z" />
    <glyph glyph-name="eacute" unicode="&#xe9;" horiz-adv-x="580" 
d="M521 700v-183h-253c-10 0 -15 -5.66699 -15 -17v-299c0 -11.333 5 -17 15 -17h253v-184h-395c-41.333 0 -62 21 -62 63v575c0 41.333 20.667 62 62 62h395zM519 437v-166h-235v166h235zM494 929l-140 -164h-169l100 164h209z" />
    <glyph glyph-name="ecircumflex" unicode="&#xea;" horiz-adv-x="580" 
d="M521 700v-183h-253c-10 0 -15 -5.66699 -15 -17v-299c0 -11.333 5 -17 15 -17h253v-184h-395c-41.333 0 -62 21 -62 63v575c0 41.333 20.667 62 62 62h395zM519 437v-166h-235v166h235zM348 929c18 0 33.333 -2 46 -6s21.667 -10.333 27 -19l82 -139h-170l-41 70h-4
l-40 -70h-172l83 139c5.33301 8.66699 14.333 15 27 19s28 6 46 6h116z" />
    <glyph glyph-name="edieresis" unicode="&#xeb;" horiz-adv-x="580" 
d="M521 700v-183h-253c-10 0 -15 -5.66699 -15 -17v-299c0 -11.333 5 -17 15 -17h253v-184h-395c-41.333 0 -62 21 -62 63v575c0 41.333 20.667 62 62 62h395zM519 437v-166h-235v166h235zM499 929v-164h-159v164h159zM239 929v-164h-159v164h159z" />
    <glyph glyph-name="igrave" unicode="&#xec;" horiz-adv-x="365" 
d="M299 700v-700h-189v700h189zM209 929l100 -164h-169l-140 164h209z" />
    <glyph glyph-name="iacute" unicode="&#xed;" horiz-adv-x="365" 
d="M255 700v-700h-189v700h189zM365 929l-140 -164h-169l100 164h209z" />
    <glyph glyph-name="icircumflex" unicode="&#xee;" horiz-adv-x="427" 
d="M308 700v-700h-189v700h189zM272 929c18 0 33.333 -2 46 -6s21.667 -10.333 27 -19l82 -139h-170l-41 70h-4l-40 -70h-172l83 139c5.33301 8.66699 14.333 15 27 19s28 6 46 6h116z" />
    <glyph glyph-name="idieresis" unicode="&#xef;" horiz-adv-x="432" 
d="M310 700v-700h-189v700h189zM425 929v-164h-159v164h159zM165 929v-164h-159v164h159z" />
    <glyph glyph-name="eth" unicode="&#xf0;" horiz-adv-x="699" 
d="M339 700c54.667 0 101.5 -6.83301 140.5 -20.5s70.833 -33.5 95.5 -59.5s42.834 -57.833 54.501 -95.5s17.5 -80.5 17.5 -128.5v-92c0 -48 -5.83301 -90.833 -17.5 -128.5s-29.834 -69.5 -54.501 -95.5s-56.5 -45.833 -95.5 -59.5s-85.833 -20.5 -140.5 -20.5h-197
c-41.333 0 -62 20.667 -62 62v209h-61v166h61v201c0 41.333 20.667 62 62 62h197zM269 201c0 -11.333 5 -17.002 15 -17.002h63c43.333 0 74.5 9.33301 93.5 28s28.5 52.334 28.5 101.001v75c0 48.667 -9.5 82.334 -28.5 101.001s-50.167 28 -93.5 28h-63
c-10 0 -15 -5.66699 -15 -17v-299zM388 436.998v-166h-88v166h88z" />
    <glyph glyph-name="ntilde" unicode="&#xf1;" horiz-adv-x="690" 
d="M217 700c32 0 55.668 -14.667 71.001 -44l150 -287h4v331h184v-657c0 -12 -3.33301 -22.167 -10 -30.5s-15.667 -12.5 -27 -12.5h-89c-30.667 0 -54.334 14.667 -71.001 44l-177 304h-4v-348h-184v657c0 12 3.33301 22.167 10 30.5s15.667 12.5 27 12.5h116zM80.001 876
c13.333 16.667 30.666 29.667 51.999 39s47 14 77 14c28 0 52.833 -3.66699 74.5 -11s42.167 -15.333 61.5 -24s38.5 -16.667 57.5 -24s40.167 -11 63.5 -11c22.667 0 45.834 4.83301 69.501 14.5s45.5 27.5 65.5 53.5h9v-137c-15.333 -16.667 -36.166 -29.667 -62.499 -39
s-53.5 -14 -81.5 -14c-26 0 -49.167 3.5 -69.5 10.5s-40 14.833 -59 23.5s-38.333 16.5 -58 23.5s-41.834 10.5 -66.501 10.5s-46.667 -4.66699 -66 -14s-38.333 -26.333 -57 -51h-10v136z" />
    <glyph glyph-name="ograve" unicode="&#xf2;" horiz-adv-x="706" 
d="M52 406c0 48 5.33301 90.833 16 128.5s28 69.5 52 95.5s55.167 45.833 93.5 59.5s84.833 20.5 139.5 20.5s101.167 -6.83301 139.5 -20.5s69.5 -33.5 93.5 -59.5s41.333 -57.833 52 -95.5s16 -80.5 16 -128.5v-112c0 -48 -5.33301 -90.833 -16 -128.5
s-28 -69.5 -52 -95.5s-55.167 -45.833 -93.5 -59.5s-84.833 -20.5 -139.5 -20.5s-101.167 6.83301 -139.5 20.5s-69.5 33.5 -93.5 59.5s-41.333 57.833 -52 95.5s-16 80.5 -16 128.5v112zM241 302c0 -24 1.83301 -44.333 5.5 -61s9.83398 -30 18.501 -40
s20.167 -17.167 34.5 -21.5s32.166 -6.5 53.499 -6.5s39.166 2.16699 53.499 6.5s25.833 11.5 34.5 21.5s14.834 23.333 18.501 40s5.5 37 5.5 61v96c0 24 -1.83301 44.333 -5.5 61s-9.83398 30 -18.501 40s-20.167 17.167 -34.5 21.5s-32.166 6.5 -53.499 6.5
s-39.166 -2.16699 -53.499 -6.5s-25.833 -11.5 -34.5 -21.5s-14.834 -23.333 -18.501 -40s-5.5 -37 -5.5 -61v-96zM357 929l100 -164h-169l-140 164h209z" />
    <glyph glyph-name="oacute" unicode="&#xf3;" horiz-adv-x="706" 
d="M52 406c0 48 5.33301 90.833 16 128.5s28 69.5 52 95.5s55.167 45.833 93.5 59.5s84.833 20.5 139.5 20.5s101.167 -6.83301 139.5 -20.5s69.5 -33.5 93.5 -59.5s41.333 -57.833 52 -95.5s16 -80.5 16 -128.5v-112c0 -48 -5.33301 -90.833 -16 -128.5
s-28 -69.5 -52 -95.5s-55.167 -45.833 -93.5 -59.5s-84.833 -20.5 -139.5 -20.5s-101.167 6.83301 -139.5 20.5s-69.5 33.5 -93.5 59.5s-41.333 57.833 -52 95.5s-16 80.5 -16 128.5v112zM241 302c0 -24 1.83301 -44.333 5.5 -61s9.83398 -30 18.501 -40
s20.167 -17.167 34.5 -21.5s32.166 -6.5 53.499 -6.5s39.166 2.16699 53.499 6.5s25.833 11.5 34.5 21.5s14.834 23.333 18.501 40s5.5 37 5.5 61v96c0 24 -1.83301 44.333 -5.5 61s-9.83398 30 -18.501 40s-20.167 17.167 -34.5 21.5s-32.166 6.5 -53.499 6.5
s-39.166 -2.16699 -53.499 -6.5s-25.833 -11.5 -34.5 -21.5s-14.834 -23.333 -18.501 -40s-5.5 -37 -5.5 -61v-96zM557 929l-140 -164h-169l100 164h209z" />
    <glyph glyph-name="ocircumflex" unicode="&#xf4;" horiz-adv-x="706" 
d="M52 406c0 48 5.33301 90.833 16 128.5s28 69.5 52 95.5s55.167 45.833 93.5 59.5s84.833 20.5 139.5 20.5s101.167 -6.83301 139.5 -20.5s69.5 -33.5 93.5 -59.5s41.333 -57.833 52 -95.5s16 -80.5 16 -128.5v-112c0 -48 -5.33301 -90.833 -16 -128.5
s-28 -69.5 -52 -95.5s-55.167 -45.833 -93.5 -59.5s-84.833 -20.5 -139.5 -20.5s-101.167 6.83301 -139.5 20.5s-69.5 33.5 -93.5 59.5s-41.333 57.833 -52 95.5s-16 80.5 -16 128.5v112zM241 302c0 -24 1.83301 -44.333 5.5 -61s9.83398 -30 18.501 -40
s20.167 -17.167 34.5 -21.5s32.166 -6.5 53.499 -6.5s39.166 2.16699 53.499 6.5s25.833 11.5 34.5 21.5s14.834 23.333 18.501 40s5.5 37 5.5 61v96c0 24 -1.83301 44.333 -5.5 61s-9.83398 30 -18.501 40s-20.167 17.167 -34.5 21.5s-32.166 6.5 -53.499 6.5
s-39.166 -2.16699 -53.499 -6.5s-25.833 -11.5 -34.5 -21.5s-14.834 -23.333 -18.501 -40s-5.5 -37 -5.5 -61v-96zM411 929c18 0 33.333 -2 46 -6s21.667 -10.333 27 -19l82 -139h-170l-41 70h-4l-40 -70h-172l83 139c5.33301 8.66699 14.333 15 27 19s28 6 46 6h116z" />
    <glyph glyph-name="otilde" unicode="&#xf5;" horiz-adv-x="706" 
d="M52 406c0 48 5.33301 90.833 16 128.5s28 69.5 52 95.5s55.167 45.833 93.5 59.5s84.833 20.5 139.5 20.5s101.167 -6.83301 139.5 -20.5s69.5 -33.5 93.5 -59.5s41.333 -57.833 52 -95.5s16 -80.5 16 -128.5v-112c0 -48 -5.33301 -90.833 -16 -128.5
s-28 -69.5 -52 -95.5s-55.167 -45.833 -93.5 -59.5s-84.833 -20.5 -139.5 -20.5s-101.167 6.83301 -139.5 20.5s-69.5 33.5 -93.5 59.5s-41.333 57.833 -52 95.5s-16 80.5 -16 128.5v112zM241 302c0 -24 1.83301 -44.333 5.5 -61s9.83398 -30 18.501 -40
s20.167 -17.167 34.5 -21.5s32.166 -6.5 53.499 -6.5s39.166 2.16699 53.499 6.5s25.833 11.5 34.5 21.5s14.834 23.333 18.501 40s5.5 37 5.5 61v96c0 24 -1.83301 44.333 -5.5 61s-9.83398 30 -18.501 40s-20.167 17.167 -34.5 21.5s-32.166 6.5 -53.499 6.5
s-39.166 -2.16699 -53.499 -6.5s-25.833 -11.5 -34.5 -21.5s-14.834 -23.333 -18.501 -40s-5.5 -37 -5.5 -61v-96zM88 876c13.333 16.667 30.666 29.667 51.999 39s47 14 77 14c28 0 52.833 -3.66699 74.5 -11s42.167 -15.333 61.5 -24s38.5 -16.667 57.5 -24
s40.167 -11 63.5 -11c22.667 0 45.834 4.83301 69.501 14.5s45.5 27.5 65.5 53.5h9v-137c-15.333 -16.667 -36.166 -29.667 -62.499 -39s-53.5 -14 -81.5 -14c-26 0 -49.167 3.5 -69.5 10.5s-40 14.833 -59 23.5s-38.333 16.5 -58 23.5s-41.834 10.5 -66.501 10.5
s-46.667 -4.66699 -66 -14s-38.333 -26.333 -57 -51h-10v136z" />
    <glyph glyph-name="odieresis" unicode="&#xf6;" horiz-adv-x="706" 
d="M52 406c0 48 5.33301 90.833 16 128.5s28 69.5 52 95.5s55.167 45.833 93.5 59.5s84.833 20.5 139.5 20.5s101.167 -6.83301 139.5 -20.5s69.5 -33.5 93.5 -59.5s41.333 -57.833 52 -95.5s16 -80.5 16 -128.5v-112c0 -48 -5.33301 -90.833 -16 -128.5
s-28 -69.5 -52 -95.5s-55.167 -45.833 -93.5 -59.5s-84.833 -20.5 -139.5 -20.5s-101.167 6.83301 -139.5 20.5s-69.5 33.5 -93.5 59.5s-41.333 57.833 -52 95.5s-16 80.5 -16 128.5v112zM241 302c0 -24 1.83301 -44.333 5.5 -61s9.83398 -30 18.501 -40
s20.167 -17.167 34.5 -21.5s32.166 -6.5 53.499 -6.5s39.166 2.16699 53.499 6.5s25.833 11.5 34.5 21.5s14.834 23.333 18.501 40s5.5 37 5.5 61v96c0 24 -1.83301 44.333 -5.5 61s-9.83398 30 -18.501 40s-20.167 17.167 -34.5 21.5s-32.166 6.5 -53.499 6.5
s-39.166 -2.16699 -53.499 -6.5s-25.833 -11.5 -34.5 -21.5s-14.834 -23.333 -18.501 -40s-5.5 -37 -5.5 -61v-96zM562 929v-164h-159v164h159zM302 929v-164h-159v164h159z" />
    <glyph glyph-name="divide" unicode="&#xf7;" horiz-adv-x="742" 
d="M676 406v-114h-610v114h610zM455 700v-184h-169v184h169zM455 184v-184h-169v184h169z" />
    <glyph glyph-name="oslash" unicode="&#xf8;" horiz-adv-x="706" 
d="M654 800l-85.001 -155c30 -26 51.667 -59.167 65 -99.5s20 -86.833 20 -139.5v-112c0 -47.333 -5.33301 -89.833 -16 -127.5s-28 -69.5 -52 -95.5s-55 -46 -93 -60s-84 -21 -138 -21c-27.333 0 -51.666 1.66699 -72.999 5s-41.333 7.66602 -60 12.999l-58 -108h-112
l84 155c-30 26 -51.5 59 -64.5 99s-19.5 86.667 -19.5 140v112c0 47.333 5.33301 89.833 16 127.5s28 69.5 52 95.5s54.833 46 92.5 60s83.5 21 137.5 21c27.333 0 51.833 -1.66699 73.5 -5s41.5 -7.66602 59.5 -12.999l59 108h112zM473.999 398
c0 23.333 -2.00098 43.667 -6.00098 61l-154 -284c5.33301 -0.666992 11.333 -1.16699 18 -1.5s14 -0.5 22 -0.5c22.667 0 41.834 2.16699 57.501 6.5s28 11.5 37 21.5s15.5 23.333 19.5 40s6 37 6 61v96zM231.998 302.001c0 -12 0.332031 -23.1689 0.999023 -33.502
s2 -19.5 4 -27.5l155 283c-12 2 -25.333 3 -40 3c-23.333 0 -42.666 -2.16699 -57.999 -6.5s-27.5 -11.666 -36.5 -21.999s-15.5 -23.666 -19.5 -39.999s-6 -36.5 -6 -60.5v-96z" />
    <glyph glyph-name="ugrave" unicode="&#xf9;" 
d="M250 700v-479c0 -24.667 11.667 -37 35 -37h109c23.333 0 35 12.333 35 37v479h189v-567c0 -88.667 -44 -133 -132 -133h-293c-88 -0 -132 44.333 -132 133v567h189zM344 929l100 -164h-169l-140 164h209z" />
    <glyph glyph-name="uacute" unicode="&#xfa;" 
d="M250 700v-479c0 -24.667 11.667 -37 35 -37h109c23.333 0 35 12.333 35 37v479h189v-567c0 -88.667 -44 -133 -132 -133h-293c-88 -0 -132 44.333 -132 133v567h189zM544 929l-140 -164h-169l100 164h209z" />
    <glyph glyph-name="ucircumflex" unicode="&#xfb;" 
d="M250 700v-479c0 -24.667 11.667 -37 35 -37h109c23.333 0 35 12.333 35 37v479h189v-567c0 -88.667 -44 -133 -132 -133h-293c-88 -0 -132 44.333 -132 133v567h189zM398 929c18 0 33.333 -2 46 -6s21.667 -10.333 27 -19l82 -139h-170l-41 70h-4l-40 -70h-172l83 139
c5.33301 8.66699 14.333 15 27 19s28 6 46 6h116z" />
    <glyph glyph-name="udieresis" unicode="&#xfc;" 
d="M250 700v-479c0 -24.667 11.667 -37 35 -37h109c23.333 0 35 12.333 35 37v479h189v-567c0 -88.667 -44 -133 -132 -133h-293c-88 -0 -132 44.333 -132 133v567h189zM549 929v-164h-159v164h159zM289 929v-164h-159v164h159z" />
    <glyph glyph-name="yacute" unicode="&#xfd;" horiz-adv-x="649" 
d="M419 240v-240h-189v240h189zM235 700v-225c0 -24.667 11.667 -37 35 -37h109c23.333 0 35 12.333 35 37v225h189v-296c0 -88.667 -44 -133 -132 -133h-293c-88 0 -132 44.333 -132 133v296h189zM529 929l-140 -164h-169l100 164h209z" />
    <glyph glyph-name="thorn" unicode="&#xfe;" horiz-adv-x="639" 
d="M255 700v-700h-189v700h189zM414 579c63.333 0 110.666 -18.333 141.999 -55s47 -85.667 47 -147v-56c0 -61.333 -15.667 -110.333 -47 -147s-78.666 -55 -141.999 -55h-128v158h106c13.333 0 22.166 3.5 26.499 10.5s6.5 15.5 6.5 25.5v72c0 10 -2.16699 18.5 -6.5 25.5
s-13.166 10.5 -26.499 10.5h-106v158h128z" />
    <glyph glyph-name="ydieresis" unicode="&#xff;" horiz-adv-x="649" 
d="M419 240v-240h-189v240h189zM235 700v-225c0 -24.667 11.667 -37 35 -37h109c23.333 0 35 12.333 35 37v225h189v-296c0 -88.667 -44 -133 -132 -133h-293c-88 0 -132 44.333 -132 133v296h189zM534 929v-164h-159v164h159zM274 929v-164h-159v164h159z" />
    <glyph glyph-name="Amacron" unicode="&#x100;" horiz-adv-x="692" 
d="M412 700c17.333 0 28.666 -7.33301 33.999 -22l230 -678h-414l47 184h110l-77 262h-4l-121 -446h-201l214 678c4.66699 14.667 15.334 22 32.001 22h150zM610 899v-124h-529v124h529z" />
    <glyph glyph-name="amacron" unicode="&#x101;" horiz-adv-x="692" 
d="M412 700c17.333 0 28.666 -7.33301 33.999 -22l230 -678h-414l47 184h110l-77 262h-4l-121 -446h-201l214 678c4.66699 14.667 15.334 22 32.001 22h150zM610 899v-124h-529v124h529z" />
    <glyph glyph-name="Abreve" unicode="&#x102;" horiz-adv-x="692" 
d="M412 700c17.333 0 28.666 -7.33301 33.999 -22l230 -678h-414l47 184h110l-77 262h-4l-121 -446h-201l214 678c4.66699 14.667 15.334 22 32.001 22h150zM287 929c1.33301 -34.667 6.16895 -58.5 14.502 -71.5s23.166 -19.5 44.499 -19.5s36 6.5 44 19.5
s12.667 36.833 14 71.5h131c-0.666992 -30.667 -4.5 -58 -11.5 -82s-18 -44.167 -33 -60.5s-34.333 -28.833 -58 -37.5s-52.5 -13 -86.5 -13c-68 0 -116.333 16.833 -145 50.5s-43.334 81.167 -44.001 142.5h130z" />
    <glyph glyph-name="abreve" unicode="&#x103;" horiz-adv-x="692" 
d="M412 700c17.333 0 28.666 -7.33301 33.999 -22l230 -678h-414l47 184h110l-77 262h-4l-121 -446h-201l214 678c4.66699 14.667 15.334 22 32.001 22h150zM287 929c1.33301 -34.667 6.16895 -58.5 14.502 -71.5s23.166 -19.5 44.499 -19.5s36 6.5 44 19.5
s12.667 36.833 14 71.5h131c-0.666992 -30.667 -4.5 -58 -11.5 -82s-18 -44.167 -33 -60.5s-34.333 -28.833 -58 -37.5s-52.5 -13 -86.5 -13c-68 0 -116.333 16.833 -145 50.5s-43.334 81.167 -44.001 142.5h130z" />
    <glyph glyph-name="Aogonek" unicode="&#x104;" horiz-adv-x="692" 
d="M412 700c17.333 0 28.666 -7.33301 33.999 -22l230 -678h-414l47 184h110l-77 262h-4l-121 -446h-201l214 678c4.66699 14.667 15.334 22 32.001 22h150zM675 -24l-148 -59v-4h148v-184h-265c-18 0 -32.5 1.66699 -43.5 5s-19.833 8 -26.5 14s-11.167 12.667 -13.5 20
s-3.5 15 -3.5 23v52c0 18.667 4.5 34.5 13.5 47.5s24.167 23.167 45.5 30.5l155 55h138z" />
    <glyph glyph-name="aogonek" unicode="&#x105;" horiz-adv-x="692" 
d="M412 700c17.333 0 28.666 -7.33301 33.999 -22l230 -678h-414l47 184h110l-77 262h-4l-121 -446h-201l214 678c4.66699 14.667 15.334 22 32.001 22h150zM675 -24l-148 -59v-4h148v-184h-265c-18 0 -32.5 1.66699 -43.5 5s-19.833 8 -26.5 14s-11.167 12.667 -13.5 20
s-3.5 15 -3.5 23v52c0 18.667 4.5 34.5 13.5 47.5s24.167 23.167 45.5 30.5l155 55h138z" />
    <glyph glyph-name="Cacute" unicode="&#x106;" horiz-adv-x="573" 
d="M519 700v-182.998h-156c-43.333 0 -74.5 -9.33301 -93.5 -28s-28.5 -52.334 -28.5 -101.001v-75c0 -48.667 9.5 -82.334 28.5 -101.001s50.167 -28 93.5 -28h156v-184h-159c-54.667 -0 -101.5 6.83301 -140.5 20.5s-70.833 33.5 -95.5 59.5s-42.834 57.833 -54.501 95.5
s-17.5 80.5 -17.5 128.5v92c0 48 5.83301 90.833 17.5 128.5s29.834 69.5 54.501 95.5s56.5 45.833 95.5 59.5s85.833 20.5 140.5 20.5h159zM561 929.002l-140 -164h-169l100 164h209z" />
    <glyph glyph-name="cacute" unicode="&#x107;" horiz-adv-x="573" 
d="M519 700v-182.998h-156c-43.333 0 -74.5 -9.33301 -93.5 -28s-28.5 -52.334 -28.5 -101.001v-75c0 -48.667 9.5 -82.334 28.5 -101.001s50.167 -28 93.5 -28h156v-184h-159c-54.667 -0 -101.5 6.83301 -140.5 20.5s-70.833 33.5 -95.5 59.5s-42.834 57.833 -54.501 95.5
s-17.5 80.5 -17.5 128.5v92c0 48 5.83301 90.833 17.5 128.5s29.834 69.5 54.501 95.5s56.5 45.833 95.5 59.5s85.833 20.5 140.5 20.5h159zM561 929.002l-140 -164h-169l100 164h209z" />
    <glyph glyph-name="Cdotaccent" unicode="&#x10a;" horiz-adv-x="573" 
d="M519 700v-182.998h-156c-43.333 0 -74.5 -9.33301 -93.5 -28s-28.5 -52.334 -28.5 -101.001v-75c0 -48.667 9.5 -82.334 28.5 -101.001s50.167 -28 93.5 -28h156v-184h-159c-54.667 -0 -101.5 6.83301 -140.5 20.5s-70.833 33.5 -95.5 59.5s-42.834 57.833 -54.501 95.5
s-17.5 80.5 -17.5 128.5v92c0 48 5.83301 90.833 17.5 128.5s29.834 69.5 54.501 95.5s56.5 45.833 95.5 59.5s85.833 20.5 140.5 20.5h159zM436 929.002v-164h-159v164h159z" />
    <glyph glyph-name="cdotaccent" unicode="&#x10b;" horiz-adv-x="573" 
d="M519 700v-182.998h-156c-43.333 0 -74.5 -9.33301 -93.5 -28s-28.5 -52.334 -28.5 -101.001v-75c0 -48.667 9.5 -82.334 28.5 -101.001s50.167 -28 93.5 -28h156v-184h-159c-54.667 -0 -101.5 6.83301 -140.5 20.5s-70.833 33.5 -95.5 59.5s-42.834 57.833 -54.501 95.5
s-17.5 80.5 -17.5 128.5v92c0 48 5.83301 90.833 17.5 128.5s29.834 69.5 54.501 95.5s56.5 45.833 95.5 59.5s85.833 20.5 140.5 20.5h159zM436 929.002v-164h-159v164h159z" />
    <glyph glyph-name="Ccaron" unicode="&#x10c;" horiz-adv-x="573" 
d="M519 700v-182.998h-156c-43.333 0 -74.5 -9.33301 -93.5 -28s-28.5 -52.334 -28.5 -101.001v-75c0 -48.667 9.5 -82.334 28.5 -101.001s50.167 -28 93.5 -28h156v-184h-159c-54.667 -0 -101.5 6.83301 -140.5 20.5s-70.833 33.5 -95.5 59.5s-42.834 57.833 -54.501 95.5
s-17.5 80.5 -17.5 128.5v92c0 48 5.83301 90.833 17.5 128.5s29.834 69.5 54.501 95.5s56.5 45.833 95.5 59.5s85.833 20.5 140.5 20.5h159zM303 929.002l41 -70h4l40 70h172l-83 -139c-5.33301 -8.66699 -14.333 -15 -27 -19s-28 -6 -46 -6h-116c-18 0 -33.333 2 -46 6
s-21.667 10.333 -27 19l-82 139h170z" />
    <glyph glyph-name="ccaron" unicode="&#x10d;" horiz-adv-x="573" 
d="M519 700v-182.998h-156c-43.333 0 -74.5 -9.33301 -93.5 -28s-28.5 -52.334 -28.5 -101.001v-75c0 -48.667 9.5 -82.334 28.5 -101.001s50.167 -28 93.5 -28h156v-184h-159c-54.667 -0 -101.5 6.83301 -140.5 20.5s-70.833 33.5 -95.5 59.5s-42.834 57.833 -54.501 95.5
s-17.5 80.5 -17.5 128.5v92c0 48 5.83301 90.833 17.5 128.5s29.834 69.5 54.501 95.5s56.5 45.833 95.5 59.5s85.833 20.5 140.5 20.5h159zM303 929.002l41 -70h4l40 70h172l-83 -139c-5.33301 -8.66699 -14.333 -15 -27 -19s-28 -6 -46 -6h-116c-18 0 -33.333 2 -46 6
s-21.667 10.333 -27 19l-82 139h170z" />
    <glyph glyph-name="Dcaron" unicode="&#x10e;" horiz-adv-x="685" 
d="M325 700c54.667 0 101.5 -6.83301 140.5 -20.5s70.833 -33.5 95.5 -59.5s42.834 -57.833 54.501 -95.5s17.5 -80.5 17.5 -128.5v-92c0 -48 -5.83301 -90.833 -17.5 -128.5s-29.834 -69.5 -54.501 -95.5s-56.5 -45.833 -95.5 -59.5s-85.833 -20.5 -140.5 -20.5h-197
c-41.333 0 -62 20.667 -62 62v576c0 41.333 20.667 62 62 62h197zM255 201c0 -11.333 5 -17.002 15 -17.002h52c43.333 0 74.5 9.33301 93.5 28s28.5 52.334 28.5 101.001v75c0 48.667 -9.5 82.334 -28.5 101.001s-50.167 28 -93.5 28h-52c-10 0 -15 -5.66699 -15 -17v-299z
M264 928.998l41 -70h4l40 70h172l-83 -139c-5.33301 -8.66699 -14.333 -15 -27 -19s-28 -6 -46 -6h-116c-18 0 -33.333 2 -46 6s-21.667 10.333 -27 19l-82 139h170z" />
    <glyph glyph-name="dcaron" unicode="&#x10f;" horiz-adv-x="685" 
d="M325 700c54.667 0 101.5 -6.83301 140.5 -20.5s70.833 -33.5 95.5 -59.5s42.834 -57.833 54.501 -95.5s17.5 -80.5 17.5 -128.5v-92c0 -48 -5.83301 -90.833 -17.5 -128.5s-29.834 -69.5 -54.501 -95.5s-56.5 -45.833 -95.5 -59.5s-85.833 -20.5 -140.5 -20.5h-197
c-41.333 0 -62 20.667 -62 62v576c0 41.333 20.667 62 62 62h197zM255 201c0 -11.333 5 -17.002 15 -17.002h52c43.333 0 74.5 9.33301 93.5 28s28.5 52.334 28.5 101.001v75c0 48.667 -9.5 82.334 -28.5 101.001s-50.167 28 -93.5 28h-52c-10 0 -15 -5.66699 -15 -17v-299z
M264 928.998l41 -70h4l40 70h172l-83 -139c-5.33301 -8.66699 -14.333 -15 -27 -19s-28 -6 -46 -6h-116c-18 0 -33.333 2 -46 6s-21.667 10.333 -27 19l-82 139h170z" />
    <glyph glyph-name="Dcroat" unicode="&#x110;" horiz-adv-x="699" 
d="M339 700c54.667 0 101.5 -6.83301 140.5 -20.5s70.833 -33.5 95.5 -59.5s42.834 -57.833 54.501 -95.5s17.5 -80.5 17.5 -128.5v-92c0 -48 -5.83301 -90.833 -17.5 -128.5s-29.834 -69.5 -54.501 -95.5s-56.5 -45.833 -95.5 -59.5s-85.833 -20.5 -140.5 -20.5h-197
c-41.333 0 -62 20.667 -62 62v209h-61v166h61v201c0 41.333 20.667 62 62 62h197zM269 201c0 -11.333 5 -17.002 15 -17.002h63c43.333 0 74.5 9.33301 93.5 28s28.5 52.334 28.5 101.001v75c0 48.667 -9.5 82.334 -28.5 101.001s-50.167 28 -93.5 28h-63
c-10 0 -15 -5.66699 -15 -17v-299zM388 436.998v-166h-88v166h88z" />
    <glyph glyph-name="dcroat" unicode="&#x111;" horiz-adv-x="699" 
d="M339 700c54.667 0 101.5 -6.83301 140.5 -20.5s70.833 -33.5 95.5 -59.5s42.834 -57.833 54.501 -95.5s17.5 -80.5 17.5 -128.5v-92c0 -48 -5.83301 -90.833 -17.5 -128.5s-29.834 -69.5 -54.501 -95.5s-56.5 -45.833 -95.5 -59.5s-85.833 -20.5 -140.5 -20.5h-197
c-41.333 0 -62 20.667 -62 62v209h-61v166h61v201c0 41.333 20.667 62 62 62h197zM269 201c0 -11.333 5 -17.002 15 -17.002h63c43.333 0 74.5 9.33301 93.5 28s28.5 52.334 28.5 101.001v75c0 48.667 -9.5 82.334 -28.5 101.001s-50.167 28 -93.5 28h-63
c-10 0 -15 -5.66699 -15 -17v-299zM388 436.998v-166h-88v166h88z" />
    <glyph glyph-name="Emacron" unicode="&#x112;" horiz-adv-x="580" 
d="M521 700v-183h-253c-10 0 -15 -5.66699 -15 -17v-299c0 -11.333 5 -17 15 -17h253v-184h-395c-41.333 0 -62 21 -62 63v575c0 41.333 20.667 62 62 62h395zM519 437v-166h-235v166h235zM555 899v-124h-529v124h529z" />
    <glyph glyph-name="emacron" unicode="&#x113;" horiz-adv-x="580" 
d="M521 700v-183h-253c-10 0 -15 -5.66699 -15 -17v-299c0 -11.333 5 -17 15 -17h253v-184h-395c-41.333 0 -62 21 -62 63v575c0 41.333 20.667 62 62 62h395zM519 437v-166h-235v166h235zM555 899v-124h-529v124h529z" />
    <glyph glyph-name="Ebreve" unicode="&#x114;" horiz-adv-x="580" 
d="M521 700v-183h-253c-10 0 -15 -5.66699 -15 -17v-299c0 -11.333 5 -17 15 -17h253v-184h-395c-41.333 0 -62 21 -62 63v575c0 41.333 20.667 62 62 62h395zM519 437v-166h-235v166h235zM231 929c1.33301 -34.667 6.16895 -58.5 14.502 -71.5s23.166 -19.5 44.499 -19.5
s36 6.5 44 19.5s12.667 36.833 14 71.5h131c-0.666992 -30.667 -4.5 -58 -11.5 -82s-18 -44.167 -33 -60.5s-34.333 -28.833 -58 -37.5s-52.5 -13 -86.5 -13c-68 0 -116.333 16.833 -145 50.5s-43.334 81.167 -44.001 142.5h130z" />
    <glyph glyph-name="ebreve" unicode="&#x115;" horiz-adv-x="580" 
d="M521 700v-183h-253c-10 0 -15 -5.66699 -15 -17v-299c0 -11.333 5 -17 15 -17h253v-184h-395c-41.333 0 -62 21 -62 63v575c0 41.333 20.667 62 62 62h395zM519 437v-166h-235v166h235zM231 929c1.33301 -34.667 6.16895 -58.5 14.502 -71.5s23.166 -19.5 44.499 -19.5
s36 6.5 44 19.5s12.667 36.833 14 71.5h131c-0.666992 -30.667 -4.5 -58 -11.5 -82s-18 -44.167 -33 -60.5s-34.333 -28.833 -58 -37.5s-52.5 -13 -86.5 -13c-68 0 -116.333 16.833 -145 50.5s-43.334 81.167 -44.001 142.5h130z" />
    <glyph glyph-name="Edotaccent" unicode="&#x116;" horiz-adv-x="580" 
d="M521 700v-183h-253c-10 0 -15 -5.66699 -15 -17v-299c0 -11.333 5 -17 15 -17h253v-184h-395c-41.333 0 -62 21 -62 63v575c0 41.333 20.667 62 62 62h395zM519 437v-166h-235v166h235zM369 929v-164h-159v164h159z" />
    <glyph glyph-name="edotaccent" unicode="&#x117;" horiz-adv-x="580" 
d="M521 700v-183h-253c-10 0 -15 -5.66699 -15 -17v-299c0 -11.333 5 -17 15 -17h253v-184h-395c-41.333 0 -62 21 -62 63v575c0 41.333 20.667 62 62 62h395zM519 437v-166h-235v166h235zM369 929v-164h-159v164h159z" />
    <glyph glyph-name="Eogonek" unicode="&#x118;" horiz-adv-x="580" 
d="M521 700v-183h-253c-10 0 -15 -5.66699 -15 -17v-299c0 -11.333 5 -17 15 -17h253v-184h-395c-41.333 0 -62 21 -62 63v575c0 41.333 20.667 62 62 62h395zM519 437v-166h-235v166h235zM519 -24l-148 -59v-4h148v-184h-265c-18 0 -32.5 1.66699 -43.5 5
s-19.833 8 -26.5 14s-11.167 12.667 -13.5 20s-3.5 15 -3.5 23v52c0 18.667 4.5 34.5 13.5 47.5s24.167 23.167 45.5 30.5l155 55h138z" />
    <glyph glyph-name="eogonek" unicode="&#x119;" horiz-adv-x="580" 
d="M521 700v-183h-253c-10 0 -15 -5.66699 -15 -17v-299c0 -11.333 5 -17 15 -17h253v-184h-395c-41.333 0 -62 21 -62 63v575c0 41.333 20.667 62 62 62h395zM519 437v-166h-235v166h235zM519 -24l-148 -59v-4h148v-184h-265c-18 0 -32.5 1.66699 -43.5 5
s-19.833 8 -26.5 14s-11.167 12.667 -13.5 20s-3.5 15 -3.5 23v52c0 18.667 4.5 34.5 13.5 47.5s24.167 23.167 45.5 30.5l155 55h138z" />
    <glyph glyph-name="Ecaron" unicode="&#x11a;" horiz-adv-x="580" 
d="M521 700v-183h-253c-10 0 -15 -5.66699 -15 -17v-299c0 -11.333 5 -17 15 -17h253v-184h-395c-41.333 0 -62 21 -62 63v575c0 41.333 20.667 62 62 62h395zM519 437v-166h-235v166h235zM246 929l41 -70h4l40 70h172l-83 -139c-5.33301 -8.66699 -14.333 -15 -27 -19
s-28 -6 -46 -6h-116c-18 0 -33.333 2 -46 6s-21.667 10.333 -27 19l-82 139h170z" />
    <glyph glyph-name="ecaron" unicode="&#x11b;" horiz-adv-x="580" 
d="M521 700v-183h-253c-10 0 -15 -5.66699 -15 -17v-299c0 -11.333 5 -17 15 -17h253v-184h-395c-41.333 0 -62 21 -62 63v575c0 41.333 20.667 62 62 62h395zM519 437v-166h-235v166h235zM246 929l41 -70h4l40 70h172l-83 -139c-5.33301 -8.66699 -14.333 -15 -27 -19
s-28 -6 -46 -6h-116c-18 0 -33.333 2 -46 6s-21.667 10.333 -27 19l-82 139h170z" />
    <glyph glyph-name="Gbreve" unicode="&#x11e;" horiz-adv-x="636" 
d="M555 700v-182.998h-196c-43.333 0 -74.5 -9.33301 -93.5 -28s-28.5 -52.334 -28.5 -101.001v-80c0 -48.667 9.5 -82.334 28.5 -101.001s50.167 -28 93.5 -28h18c10 0 15 5.66699 15 17v161h184v-294c0 -42 -20.667 -63 -62 -63h-154
c-54.667 -0 -101.5 6.83301 -140.5 20.5s-70.833 33.5 -95.5 59.5s-42.834 57.833 -54.501 95.5s-17.5 80.5 -17.5 128.5v92c0 48 5.83301 90.833 17.5 128.5s29.834 69.5 54.501 95.5s56.5 45.833 95.5 59.5s85.833 20.5 140.5 20.5h195zM289 929.002
c1.33301 -34.667 6.16895 -58.5 14.502 -71.5s23.166 -19.5 44.499 -19.5s36 6.5 44 19.5s12.667 36.833 14 71.5h131c-0.666992 -30.667 -4.5 -58 -11.5 -82s-18 -44.167 -33 -60.5s-34.333 -28.833 -58 -37.5s-52.5 -13 -86.5 -13c-68 0 -116.333 16.833 -145 50.5
s-43.334 81.167 -44.001 142.5h130z" />
    <glyph glyph-name="gbreve" unicode="&#x11f;" horiz-adv-x="636" 
d="M555 700v-182.998h-196c-43.333 0 -74.5 -9.33301 -93.5 -28s-28.5 -52.334 -28.5 -101.001v-80c0 -48.667 9.5 -82.334 28.5 -101.001s50.167 -28 93.5 -28h18c10 0 15 5.66699 15 17v161h184v-294c0 -42 -20.667 -63 -62 -63h-154
c-54.667 -0 -101.5 6.83301 -140.5 20.5s-70.833 33.5 -95.5 59.5s-42.834 57.833 -54.501 95.5s-17.5 80.5 -17.5 128.5v92c0 48 5.83301 90.833 17.5 128.5s29.834 69.5 54.501 95.5s56.5 45.833 95.5 59.5s85.833 20.5 140.5 20.5h195zM289 929.002
c1.33301 -34.667 6.16895 -58.5 14.502 -71.5s23.166 -19.5 44.499 -19.5s36 6.5 44 19.5s12.667 36.833 14 71.5h131c-0.666992 -30.667 -4.5 -58 -11.5 -82s-18 -44.167 -33 -60.5s-34.333 -28.833 -58 -37.5s-52.5 -13 -86.5 -13c-68 0 -116.333 16.833 -145 50.5
s-43.334 81.167 -44.001 142.5h130z" />
    <glyph glyph-name="Gdotaccent" unicode="&#x120;" horiz-adv-x="636" 
d="M555 700v-182.998h-196c-43.333 0 -74.5 -9.33301 -93.5 -28s-28.5 -52.334 -28.5 -101.001v-80c0 -48.667 9.5 -82.334 28.5 -101.001s50.167 -28 93.5 -28h18c10 0 15 5.66699 15 17v161h184v-294c0 -42 -20.667 -63 -62 -63h-154
c-54.667 -0 -101.5 6.83301 -140.5 20.5s-70.833 33.5 -95.5 59.5s-42.834 57.833 -54.501 95.5s-17.5 80.5 -17.5 128.5v92c0 48 5.83301 90.833 17.5 128.5s29.834 69.5 54.501 95.5s56.5 45.833 95.5 59.5s85.833 20.5 140.5 20.5h195zM427 929.002v-164h-159v164h159z
" />
    <glyph glyph-name="gdotaccent" unicode="&#x121;" horiz-adv-x="636" 
d="M555 700v-182.998h-196c-43.333 0 -74.5 -9.33301 -93.5 -28s-28.5 -52.334 -28.5 -101.001v-80c0 -48.667 9.5 -82.334 28.5 -101.001s50.167 -28 93.5 -28h18c10 0 15 5.66699 15 17v161h184v-294c0 -42 -20.667 -63 -62 -63h-154
c-54.667 -0 -101.5 6.83301 -140.5 20.5s-70.833 33.5 -95.5 59.5s-42.834 57.833 -54.501 95.5s-17.5 80.5 -17.5 128.5v92c0 48 5.83301 90.833 17.5 128.5s29.834 69.5 54.501 95.5s56.5 45.833 95.5 59.5s85.833 20.5 140.5 20.5h195zM427 929.002v-164h-159v164h159z
" />
    <glyph glyph-name="Gcommaaccent" unicode="&#x122;" horiz-adv-x="636" 
d="M555 700v-182.998h-196c-43.333 0 -74.5 -9.33301 -93.5 -28s-28.5 -52.334 -28.5 -101.001v-80c0 -48.667 9.5 -82.334 28.5 -101.001s50.167 -28 93.5 -28h18c10 0 15 5.66699 15 17v161h184v-294c0 -42 -20.667 -63 -62 -63h-154
c-54.667 -0 -101.5 6.83301 -140.5 20.5s-70.833 33.5 -95.5 59.5s-42.834 57.833 -54.501 95.5s-17.5 80.5 -17.5 128.5v92c0 48 5.83301 90.833 17.5 128.5s29.834 69.5 54.501 95.5s56.5 45.833 95.5 59.5s85.833 20.5 140.5 20.5h195zM465 -41.998l-99 -229h-156l59 229
h196z" />
    <glyph glyph-name="gcommaaccent" unicode="&#x123;" horiz-adv-x="636" 
d="M555 700v-182.998h-196c-43.333 0 -74.5 -9.33301 -93.5 -28s-28.5 -52.334 -28.5 -101.001v-80c0 -48.667 9.5 -82.334 28.5 -101.001s50.167 -28 93.5 -28h18c10 0 15 5.66699 15 17v161h184v-294c0 -42 -20.667 -63 -62 -63h-154
c-54.667 -0 -101.5 6.83301 -140.5 20.5s-70.833 33.5 -95.5 59.5s-42.834 57.833 -54.501 95.5s-17.5 80.5 -17.5 128.5v92c0 48 5.83301 90.833 17.5 128.5s29.834 69.5 54.501 95.5s56.5 45.833 95.5 59.5s85.833 20.5 140.5 20.5h195zM465 -41.998l-99 -229h-156l59 229
h196z" />
    <glyph glyph-name="Hbar" unicode="&#x126;" horiz-adv-x="709" 
d="M285 495v124h169v81h189v-700h-189v271h-168v166h168v58h-169zM255 700v-700h-189v700h189z" />
    <glyph glyph-name="hbar" unicode="&#x127;" horiz-adv-x="709" 
d="M285 495v124h169v81h189v-700h-189v271h-168v166h168v58h-169zM255 700v-700h-189v700h189z" />
    <glyph glyph-name="uni012A" unicode="&#x12a;" horiz-adv-x="497" 
d="M343 700v-700h-189v700h189zM513 899v-124h-529v124h529z" />
    <glyph glyph-name="imacron" unicode="&#x12b;" horiz-adv-x="497" 
d="M343 700v-700h-189v700h189zM513 899v-124h-529v124h529z" />
    <glyph glyph-name="Ibreve" unicode="&#x12c;" horiz-adv-x="376" 
d="M282 700v-700h-189v700h189zM129 929c1.33301 -34.667 6.16895 -58.5 14.502 -71.5s23.166 -19.5 44.499 -19.5s36 6.5 44 19.5s12.667 36.833 14 71.5h131c-0.666992 -30.667 -4.5 -58 -11.5 -82s-18 -44.167 -33 -60.5s-34.333 -28.833 -58 -37.5s-52.5 -13 -86.5 -13
c-68 0 -116.333 16.833 -145 50.5s-43.334 81.167 -44.001 142.5h130z" />
    <glyph glyph-name="ibreve" unicode="&#x12d;" horiz-adv-x="376" 
d="M282 700v-700h-189v700h189zM129 929c1.33301 -34.667 6.16895 -58.5 14.502 -71.5s23.166 -19.5 44.499 -19.5s36 6.5 44 19.5s12.667 36.833 14 71.5h131c-0.666992 -30.667 -4.5 -58 -11.5 -82s-18 -44.167 -33 -60.5s-34.333 -28.833 -58 -37.5s-52.5 -13 -86.5 -13
c-68 0 -116.333 16.833 -145 50.5s-43.334 81.167 -44.001 142.5h130z" />
    <glyph glyph-name="Iogonek" unicode="&#x12e;" horiz-adv-x="359" 
d="M293 700v-700h-189v700h189zM291 -24l-148 -59v-4h148v-184h-265c-18 0 -32.5 1.66699 -43.5 5s-19.833 8 -26.5 14s-11.167 12.667 -13.5 20s-3.5 15 -3.5 23v52c0 18.667 4.5 34.5 13.5 47.5s24.167 23.167 45.5 30.5l155 55h138z" />
    <glyph glyph-name="iogonek" unicode="&#x12f;" horiz-adv-x="359" 
d="M293 700v-700h-189v700h189zM291 -24l-148 -59v-4h148v-184h-265c-18 0 -32.5 1.66699 -43.5 5s-19.833 8 -26.5 14s-11.167 12.667 -13.5 20s-3.5 15 -3.5 23v52c0 18.667 4.5 34.5 13.5 47.5s24.167 23.167 45.5 30.5l155 55h138z" />
    <glyph glyph-name="Idotaccent" unicode="&#x130;" horiz-adv-x="321" 
d="M255 700v-700h-189v700h189zM240 929v-164h-159v164h159z" />
    <glyph glyph-name="dotlessi" unicode="&#x131;" horiz-adv-x="321" 
d="M255 700v-700h-189v700h189z" />
    <glyph glyph-name="IJ" unicode="&#x132;" horiz-adv-x="832" 
d="M255 700v-700h-189v700h189zM774 700l0.000976562 -396.001c0 -48 -5.83301 -90.833 -17.5 -128.5s-29.834 -69.5 -54.501 -95.5s-56.5 -45.833 -95.5 -59.5s-85.833 -20.5 -140.5 -20.5h-119v184h116c43.333 0 74.5 9.33301 93.5 28s28.5 52.334 28.5 101.001v387h189z
" />
    <glyph glyph-name="ij" unicode="&#x133;" horiz-adv-x="832" 
d="M255 700v-700h-189v700h189zM774 700l0.000976562 -396.001c0 -48 -5.83301 -90.833 -17.5 -128.5s-29.834 -69.5 -54.501 -95.5s-56.5 -45.833 -95.5 -59.5s-85.833 -20.5 -140.5 -20.5h-119v184h116c43.333 0 74.5 9.33301 93.5 28s28.5 52.334 28.5 101.001v387h189z
" />
    <glyph glyph-name="Kcommaaccent" unicode="&#x136;" horiz-adv-x="656" 
d="M612 700l-124.002 -334l139 -366h-196l-95 243c-7.33301 18.667 -19.666 28 -36.999 28h-13v158h15c16.667 0 28.334 9.33301 35.001 28l84 243h192zM254.998 700v-700h-189v700h189zM436.998 -42l-99 -229h-156l59 229h196z" />
    <glyph glyph-name="kcommaaccent" unicode="&#x137;" horiz-adv-x="656" 
d="M612 700l-124.002 -334l139 -366h-196l-95 243c-7.33301 18.667 -19.666 28 -36.999 28h-13v158h15c16.667 0 28.334 9.33301 35.001 28l84 243h192zM254.998 700v-700h-189v700h189zM436.998 -42l-99 -229h-156l59 229h196z" />
    <glyph glyph-name="Lacute" unicode="&#x139;" horiz-adv-x="549" 
d="M255 700v-499c0 -11.333 5 -17 15 -17h253v-184h-395c-41.333 0 -62 21 -62 63v637h189zM391 929l-140 -164h-169l100 164h209z" />
    <glyph glyph-name="lacute" unicode="&#x13a;" horiz-adv-x="549" 
d="M255 700v-499c0 -11.333 5 -17 15 -17h253v-184h-395c-41.333 0 -62 21 -62 63v637h189zM391 929l-140 -164h-169l100 164h209z" />
    <glyph glyph-name="Lcommaaccent" unicode="&#x13b;" horiz-adv-x="549" 
d="M255 700v-499c0 -11.333 5 -17 15 -17h253v-184h-395c-41.333 0 -62 21 -62 63v637h189zM405 -42l-99 -229h-156l59 229h196z" />
    <glyph glyph-name="lcommaaccent" unicode="&#x13c;" horiz-adv-x="549" 
d="M255 700v-499c0 -11.333 5 -17 15 -17h253v-184h-395c-41.333 0 -62 21 -62 63v637h189zM405 -42l-99 -229h-156l59 229h196z" />
    <glyph glyph-name="Lcaron" unicode="&#x13d;" horiz-adv-x="549" 
d="M255 700v-499c0 -11.333 5 -17 15 -17h253v-184h-395c-41.333 0 -62 21 -62 63v637h189zM545 700l-99 -229h-156l59 229h196z" />
    <glyph glyph-name="lcaron" unicode="&#x13e;" horiz-adv-x="549" 
d="M255 700v-499c0 -11.333 5 -17 15 -17h253v-184h-395c-41.333 0 -62 21 -62 63v637h189zM545 700l-99 -229h-156l59 229h196z" />
    <glyph glyph-name="Ldot" unicode="&#x13f;" horiz-adv-x="549" 
d="M255 700v-499c0 -11.333 5 -17 15 -17h253v-184h-395c-41.333 0 -62 21 -62 63v637h189zM483 437v-164h-159v164h159z" />
    <glyph glyph-name="ldot" unicode="&#x140;" horiz-adv-x="549" 
d="M255 700v-499c0 -11.333 5 -17 15 -17h253v-184h-395c-41.333 0 -62 21 -62 63v637h189zM483 437v-164h-159v164h159z" />
    <glyph glyph-name="Lslash" unicode="&#x141;" horiz-adv-x="549" 
d="M255 700v-199l161 94v-126l-161 -94v-174c0 -11.333 5 -17 15 -17h253v-184h-395c-41.333 0 -62 21 -62 63v637h189z" />
    <glyph glyph-name="lslash" unicode="&#x142;" horiz-adv-x="549" 
d="M255 700v-199l161 94v-126l-161 -94v-174c0 -11.333 5 -17 15 -17h253v-184h-395c-41.333 0 -62 21 -62 63v637h189z" />
    <glyph glyph-name="Nacute" unicode="&#x143;" horiz-adv-x="690" 
d="M217 700c32 0 55.668 -14.667 71.001 -44l150 -287h4v331h184v-657c0 -12 -3.33301 -22.167 -10 -30.5s-15.667 -12.5 -27 -12.5h-89c-30.667 0 -54.334 14.667 -71.001 44l-177 304h-4v-348h-184v657c0 12 3.33301 22.167 10 30.5s15.667 12.5 27 12.5h116zM549.001 929
l-140 -164h-169l100 164h209z" />
    <glyph glyph-name="nacute" unicode="&#x144;" horiz-adv-x="690" 
d="M217 700c32 0 55.668 -14.667 71.001 -44l150 -287h4v331h184v-657c0 -12 -3.33301 -22.167 -10 -30.5s-15.667 -12.5 -27 -12.5h-89c-30.667 0 -54.334 14.667 -71.001 44l-177 304h-4v-348h-184v657c0 12 3.33301 22.167 10 30.5s15.667 12.5 27 12.5h116zM549.001 929
l-140 -164h-169l100 164h209z" />
    <glyph glyph-name="Ncommaaccent" unicode="&#x145;" horiz-adv-x="690" 
d="M217 700c32 0 55.668 -14.667 71.001 -44l150 -287h4v331h184v-657c0 -12 -3.33301 -22.167 -10 -30.5s-15.667 -12.5 -27 -12.5h-89c-30.667 0 -54.334 14.667 -71.001 44l-177 304h-4v-348h-184v657c0 12 3.33301 22.167 10 30.5s15.667 12.5 27 12.5h116zM452.001 -42
l-99 -229h-156l59 229h196z" />
    <glyph glyph-name="ncommaaccent" unicode="&#x146;" horiz-adv-x="690" 
d="M217 700c32 0 55.668 -14.667 71.001 -44l150 -287h4v331h184v-657c0 -12 -3.33301 -22.167 -10 -30.5s-15.667 -12.5 -27 -12.5h-89c-30.667 0 -54.334 14.667 -71.001 44l-177 304h-4v-348h-184v657c0 12 3.33301 22.167 10 30.5s15.667 12.5 27 12.5h116zM452.001 -42
l-99 -229h-156l59 229h196z" />
    <glyph glyph-name="Ncaron" unicode="&#x147;" horiz-adv-x="690" 
d="M217 700c32 0 55.668 -14.667 71.001 -44l150 -287h4v331h184v-657c0 -12 -3.33301 -22.167 -10 -30.5s-15.667 -12.5 -27 -12.5h-89c-30.667 0 -54.334 14.667 -71.001 44l-177 304h-4v-348h-184v657c0 12 3.33301 22.167 10 30.5s15.667 12.5 27 12.5h116zM301.001 929
l41 -70h4l40 70h172l-83 -139c-5.33301 -8.66699 -14.333 -15 -27 -19s-28 -6 -46 -6h-116c-18 0 -33.333 2 -46 6s-21.667 10.333 -27 19l-82 139h170z" />
    <glyph glyph-name="ncaron" unicode="&#x148;" horiz-adv-x="690" 
d="M217 700c32 0 55.668 -14.667 71.001 -44l150 -287h4v331h184v-657c0 -12 -3.33301 -22.167 -10 -30.5s-15.667 -12.5 -27 -12.5h-89c-30.667 0 -54.334 14.667 -71.001 44l-177 304h-4v-348h-184v657c0 12 3.33301 22.167 10 30.5s15.667 12.5 27 12.5h116zM301.001 929
l41 -70h4l40 70h172l-83 -139c-5.33301 -8.66699 -14.333 -15 -27 -19s-28 -6 -46 -6h-116c-18 0 -33.333 2 -46 6s-21.667 10.333 -27 19l-82 139h170z" />
    <glyph glyph-name="Eng" unicode="&#x14a;" horiz-adv-x="690" 
d="M217 700c32 0 55.667 -14.668 71 -44.001l150 -287h4v331h184v-668c0 -48 -5.83301 -90.667 -17.5 -128s-29.834 -69 -54.501 -95s-56.5 -45.833 -95.5 -59.5s-85.833 -20.5 -140.5 -20.5h-70v183h67c40.667 0 71.334 8.33301 92.001 25s32 46.334 34 89.001l-189 322h-4
v-348h-184v657c0 12 3.33301 22.167 10 30.5s15.667 12.5 27 12.5h116z" />
    <glyph glyph-name="eng" unicode="&#x14b;" horiz-adv-x="690" 
d="M217 700c32 0 55.667 -14.668 71 -44.001l150 -287h4v331h184v-668c0 -48 -5.83301 -90.667 -17.5 -128s-29.834 -69 -54.501 -95s-56.5 -45.833 -95.5 -59.5s-85.833 -20.5 -140.5 -20.5h-70v183h67c40.667 0 71.334 8.33301 92.001 25s32 46.334 34 89.001l-189 322h-4
v-348h-184v657c0 12 3.33301 22.167 10 30.5s15.667 12.5 27 12.5h116z" />
    <glyph glyph-name="Omacron" unicode="&#x14c;" horiz-adv-x="706" 
d="M52 406c0 48 5.33301 90.833 16 128.5s28 69.5 52 95.5s55.167 45.833 93.5 59.5s84.833 20.5 139.5 20.5s101.167 -6.83301 139.5 -20.5s69.5 -33.5 93.5 -59.5s41.333 -57.833 52 -95.5s16 -80.5 16 -128.5v-112c0 -48 -5.33301 -90.833 -16 -128.5
s-28 -69.5 -52 -95.5s-55.167 -45.833 -93.5 -59.5s-84.833 -20.5 -139.5 -20.5s-101.167 6.83301 -139.5 20.5s-69.5 33.5 -93.5 59.5s-41.333 57.833 -52 95.5s-16 80.5 -16 128.5v112zM241 302c0 -24 1.83301 -44.333 5.5 -61s9.83398 -30 18.501 -40
s20.167 -17.167 34.5 -21.5s32.166 -6.5 53.499 -6.5s39.166 2.16699 53.499 6.5s25.833 11.5 34.5 21.5s14.834 23.333 18.501 40s5.5 37 5.5 61v96c0 24 -1.83301 44.333 -5.5 61s-9.83398 30 -18.501 40s-20.167 17.167 -34.5 21.5s-32.166 6.5 -53.499 6.5
s-39.166 -2.16699 -53.499 -6.5s-25.833 -11.5 -34.5 -21.5s-14.834 -23.333 -18.501 -40s-5.5 -37 -5.5 -61v-96zM617 899v-124h-529v124h529z" />
    <glyph glyph-name="omacron" unicode="&#x14d;" horiz-adv-x="706" 
d="M52 406c0 48 5.33301 90.833 16 128.5s28 69.5 52 95.5s55.167 45.833 93.5 59.5s84.833 20.5 139.5 20.5s101.167 -6.83301 139.5 -20.5s69.5 -33.5 93.5 -59.5s41.333 -57.833 52 -95.5s16 -80.5 16 -128.5v-112c0 -48 -5.33301 -90.833 -16 -128.5
s-28 -69.5 -52 -95.5s-55.167 -45.833 -93.5 -59.5s-84.833 -20.5 -139.5 -20.5s-101.167 6.83301 -139.5 20.5s-69.5 33.5 -93.5 59.5s-41.333 57.833 -52 95.5s-16 80.5 -16 128.5v112zM241 302c0 -24 1.83301 -44.333 5.5 -61s9.83398 -30 18.501 -40
s20.167 -17.167 34.5 -21.5s32.166 -6.5 53.499 -6.5s39.166 2.16699 53.499 6.5s25.833 11.5 34.5 21.5s14.834 23.333 18.501 40s5.5 37 5.5 61v96c0 24 -1.83301 44.333 -5.5 61s-9.83398 30 -18.501 40s-20.167 17.167 -34.5 21.5s-32.166 6.5 -53.499 6.5
s-39.166 -2.16699 -53.499 -6.5s-25.833 -11.5 -34.5 -21.5s-14.834 -23.333 -18.501 -40s-5.5 -37 -5.5 -61v-96zM617 899v-124h-529v124h529z" />
    <glyph glyph-name="Obreve" unicode="&#x14e;" horiz-adv-x="706" 
d="M52 406c0 48 5.33301 90.833 16 128.5s28 69.5 52 95.5s55.167 45.833 93.5 59.5s84.833 20.5 139.5 20.5s101.167 -6.83301 139.5 -20.5s69.5 -33.5 93.5 -59.5s41.333 -57.833 52 -95.5s16 -80.5 16 -128.5v-112c0 -48 -5.33301 -90.833 -16 -128.5
s-28 -69.5 -52 -95.5s-55.167 -45.833 -93.5 -59.5s-84.833 -20.5 -139.5 -20.5s-101.167 6.83301 -139.5 20.5s-69.5 33.5 -93.5 59.5s-41.333 57.833 -52 95.5s-16 80.5 -16 128.5v112zM241 302c0 -24 1.83301 -44.333 5.5 -61s9.83398 -30 18.501 -40
s20.167 -17.167 34.5 -21.5s32.166 -6.5 53.499 -6.5s39.166 2.16699 53.499 6.5s25.833 11.5 34.5 21.5s14.834 23.333 18.501 40s5.5 37 5.5 61v96c0 24 -1.83301 44.333 -5.5 61s-9.83398 30 -18.501 40s-20.167 17.167 -34.5 21.5s-32.166 6.5 -53.499 6.5
s-39.166 -2.16699 -53.499 -6.5s-25.833 -11.5 -34.5 -21.5s-14.834 -23.333 -18.501 -40s-5.5 -37 -5.5 -61v-96zM294 929c1.33301 -34.667 6.16895 -58.5 14.502 -71.5s23.166 -19.5 44.499 -19.5s36 6.5 44 19.5s12.667 36.833 14 71.5h131
c-0.666992 -30.667 -4.5 -58 -11.5 -82s-18 -44.167 -33 -60.5s-34.333 -28.833 -58 -37.5s-52.5 -13 -86.5 -13c-68 0 -116.333 16.833 -145 50.5s-43.334 81.167 -44.001 142.5h130z" />
    <glyph glyph-name="obreve" unicode="&#x14f;" horiz-adv-x="706" 
d="M52 406c0 48 5.33301 90.833 16 128.5s28 69.5 52 95.5s55.167 45.833 93.5 59.5s84.833 20.5 139.5 20.5s101.167 -6.83301 139.5 -20.5s69.5 -33.5 93.5 -59.5s41.333 -57.833 52 -95.5s16 -80.5 16 -128.5v-112c0 -48 -5.33301 -90.833 -16 -128.5
s-28 -69.5 -52 -95.5s-55.167 -45.833 -93.5 -59.5s-84.833 -20.5 -139.5 -20.5s-101.167 6.83301 -139.5 20.5s-69.5 33.5 -93.5 59.5s-41.333 57.833 -52 95.5s-16 80.5 -16 128.5v112zM241 302c0 -24 1.83301 -44.333 5.5 -61s9.83398 -30 18.501 -40
s20.167 -17.167 34.5 -21.5s32.166 -6.5 53.499 -6.5s39.166 2.16699 53.499 6.5s25.833 11.5 34.5 21.5s14.834 23.333 18.501 40s5.5 37 5.5 61v96c0 24 -1.83301 44.333 -5.5 61s-9.83398 30 -18.501 40s-20.167 17.167 -34.5 21.5s-32.166 6.5 -53.499 6.5
s-39.166 -2.16699 -53.499 -6.5s-25.833 -11.5 -34.5 -21.5s-14.834 -23.333 -18.501 -40s-5.5 -37 -5.5 -61v-96zM294 929c1.33301 -34.667 6.16895 -58.5 14.502 -71.5s23.166 -19.5 44.499 -19.5s36 6.5 44 19.5s12.667 36.833 14 71.5h131
c-0.666992 -30.667 -4.5 -58 -11.5 -82s-18 -44.167 -33 -60.5s-34.333 -28.833 -58 -37.5s-52.5 -13 -86.5 -13c-68 0 -116.333 16.833 -145 50.5s-43.334 81.167 -44.001 142.5h130z" />
    <glyph glyph-name="Ohungarumlaut" unicode="&#x150;" horiz-adv-x="706" 
d="M52 406c0 48 5.33301 90.833 16 128.5s28 69.5 52 95.5s55.167 45.833 93.5 59.5s84.833 20.5 139.5 20.5s101.167 -6.83301 139.5 -20.5s69.5 -33.5 93.5 -59.5s41.333 -57.833 52 -95.5s16 -80.5 16 -128.5v-112c0 -48 -5.33301 -90.833 -16 -128.5
s-28 -69.5 -52 -95.5s-55.167 -45.833 -93.5 -59.5s-84.833 -20.5 -139.5 -20.5s-101.167 6.83301 -139.5 20.5s-69.5 33.5 -93.5 59.5s-41.333 57.833 -52 95.5s-16 80.5 -16 128.5v112zM241 302c0 -24 1.83301 -44.333 5.5 -61s9.83398 -30 18.501 -40
s20.167 -17.167 34.5 -21.5s32.166 -6.5 53.499 -6.5s39.166 2.16699 53.499 6.5s25.833 11.5 34.5 21.5s14.834 23.333 18.501 40s5.5 37 5.5 61v96c0 24 -1.83301 44.333 -5.5 61s-9.83398 30 -18.501 40s-20.167 17.167 -34.5 21.5s-32.166 6.5 -53.499 6.5
s-39.166 -2.16699 -53.499 -6.5s-25.833 -11.5 -34.5 -21.5s-14.834 -23.333 -18.501 -40s-5.5 -37 -5.5 -61v-96zM688 929l-150 -164h-173l114 164h209zM408 929l-125 -164h-165l89 164h201z" />
    <glyph glyph-name="ohungarumlaut" unicode="&#x151;" horiz-adv-x="706" 
d="M52 406c0 48 5.33301 90.833 16 128.5s28 69.5 52 95.5s55.167 45.833 93.5 59.5s84.833 20.5 139.5 20.5s101.167 -6.83301 139.5 -20.5s69.5 -33.5 93.5 -59.5s41.333 -57.833 52 -95.5s16 -80.5 16 -128.5v-112c0 -48 -5.33301 -90.833 -16 -128.5
s-28 -69.5 -52 -95.5s-55.167 -45.833 -93.5 -59.5s-84.833 -20.5 -139.5 -20.5s-101.167 6.83301 -139.5 20.5s-69.5 33.5 -93.5 59.5s-41.333 57.833 -52 95.5s-16 80.5 -16 128.5v112zM241 302c0 -24 1.83301 -44.333 5.5 -61s9.83398 -30 18.501 -40
s20.167 -17.167 34.5 -21.5s32.166 -6.5 53.499 -6.5s39.166 2.16699 53.499 6.5s25.833 11.5 34.5 21.5s14.834 23.333 18.501 40s5.5 37 5.5 61v96c0 24 -1.83301 44.333 -5.5 61s-9.83398 30 -18.501 40s-20.167 17.167 -34.5 21.5s-32.166 6.5 -53.499 6.5
s-39.166 -2.16699 -53.499 -6.5s-25.833 -11.5 -34.5 -21.5s-14.834 -23.333 -18.501 -40s-5.5 -37 -5.5 -61v-96zM688 929l-150 -164h-173l114 164h209zM408 929l-125 -164h-165l89 164h201z" />
    <glyph glyph-name="OE" unicode="&#x152;" horiz-adv-x="946" 
d="M887 700v-183h-268v-333h268v-184h-527c-54.667 -0 -101.5 6.83301 -140.5 20.5s-70.833 33.5 -95.5 59.5s-42.834 57.833 -54.501 95.5s-17.5 80.5 -17.5 128.5v92c0 48 5.83301 90.833 17.5 128.5s29.834 69.5 54.501 95.5s56.5 45.833 95.5 59.5
s85.833 20.5 140.5 20.5h527zM241 313c0 -48.667 9.5 -82.332 28.5 -100.999s50.167 -28 93.5 -28h67v333h-67c-43.333 0 -74.5 -9.33301 -93.5 -28s-28.5 -52.334 -28.5 -101.001v-75zM885 437.002v-166h-235v166h235z" />
    <glyph glyph-name="oe" unicode="&#x153;" horiz-adv-x="946" 
d="M887 700v-183h-268v-333h268v-184h-527c-54.667 -0 -101.5 6.83301 -140.5 20.5s-70.833 33.5 -95.5 59.5s-42.834 57.833 -54.501 95.5s-17.5 80.5 -17.5 128.5v92c0 48 5.83301 90.833 17.5 128.5s29.834 69.5 54.501 95.5s56.5 45.833 95.5 59.5
s85.833 20.5 140.5 20.5h527zM241 313c0 -48.667 9.5 -82.332 28.5 -100.999s50.167 -28 93.5 -28h67v333h-67c-43.333 0 -74.5 -9.33301 -93.5 -28s-28.5 -52.334 -28.5 -101.001v-75zM885 437.002v-166h-235v166h235z" />
    <glyph glyph-name="Racute" unicode="&#x154;" horiz-adv-x="676" 
d="M414 700c126 0 189 -62 189 -186v-41c0 -33.333 -4.16699 -57.833 -12.5 -73.5s-21.166 -28.5 -38.499 -38.5c19.333 -7.33301 35.5 -20.833 48.5 -40.5s19.5 -45.5 19.5 -77.5v-243h-188v235c0 10 -2.16699 18.5 -6.5 25.5s-12.833 10.5 -25.5 10.5h-114v158h106
c13.333 0 22.166 3.5 26.499 10.5s6.5 15.5 6.5 25.5v21c0 25.333 -12 38 -36 38h-119c-10 0 -15 -5.66699 -15 -17v-507h-189v638c0 41.333 20.667 62 62 62h286zM542 929l-140 -164h-169l100 164h209z" />
    <glyph glyph-name="racute" unicode="&#x155;" horiz-adv-x="676" 
d="M414 700c126 0 189 -62 189 -186v-41c0 -33.333 -4.16699 -57.833 -12.5 -73.5s-21.166 -28.5 -38.499 -38.5c19.333 -7.33301 35.5 -20.833 48.5 -40.5s19.5 -45.5 19.5 -77.5v-243h-188v235c0 10 -2.16699 18.5 -6.5 25.5s-12.833 10.5 -25.5 10.5h-114v158h106
c13.333 0 22.166 3.5 26.499 10.5s6.5 15.5 6.5 25.5v21c0 25.333 -12 38 -36 38h-119c-10 0 -15 -5.66699 -15 -17v-507h-189v638c0 41.333 20.667 62 62 62h286zM542 929l-140 -164h-169l100 164h209z" />
    <glyph glyph-name="Rcommaaccent" unicode="&#x156;" horiz-adv-x="676" 
d="M414 700c126 0 189 -62 189 -186v-41c0 -33.333 -4.16699 -57.833 -12.5 -73.5s-21.166 -28.5 -38.499 -38.5c19.333 -7.33301 35.5 -20.833 48.5 -40.5s19.5 -45.5 19.5 -77.5v-243h-188v235c0 10 -2.16699 18.5 -6.5 25.5s-12.833 10.5 -25.5 10.5h-114v158h106
c13.333 0 22.166 3.5 26.499 10.5s6.5 15.5 6.5 25.5v21c0 25.333 -12 38 -36 38h-119c-10 0 -15 -5.66699 -15 -17v-507h-189v638c0 41.333 20.667 62 62 62h286zM442 -42l-99 -229h-156l59 229h196z" />
    <glyph glyph-name="rcommaaccent" unicode="&#x157;" horiz-adv-x="676" 
d="M414 700c126 0 189 -62 189 -186v-41c0 -33.333 -4.16699 -57.833 -12.5 -73.5s-21.166 -28.5 -38.499 -38.5c19.333 -7.33301 35.5 -20.833 48.5 -40.5s19.5 -45.5 19.5 -77.5v-243h-188v235c0 10 -2.16699 18.5 -6.5 25.5s-12.833 10.5 -25.5 10.5h-114v158h106
c13.333 0 22.166 3.5 26.499 10.5s6.5 15.5 6.5 25.5v21c0 25.333 -12 38 -36 38h-119c-10 0 -15 -5.66699 -15 -17v-507h-189v638c0 41.333 20.667 62 62 62h286zM442 -42l-99 -229h-156l59 229h196z" />
    <glyph glyph-name="Rcaron" unicode="&#x158;" horiz-adv-x="676" 
d="M414 700c126 0 189 -62 189 -186v-41c0 -33.333 -4.16699 -57.833 -12.5 -73.5s-21.166 -28.5 -38.499 -38.5c19.333 -7.33301 35.5 -20.833 48.5 -40.5s19.5 -45.5 19.5 -77.5v-243h-188v235c0 10 -2.16699 18.5 -6.5 25.5s-12.833 10.5 -25.5 10.5h-114v158h106
c13.333 0 22.166 3.5 26.499 10.5s6.5 15.5 6.5 25.5v21c0 25.333 -12 38 -36 38h-119c-10 0 -15 -5.66699 -15 -17v-507h-189v638c0 41.333 20.667 62 62 62h286zM294 929l41 -70h4l40 70h172l-83 -139c-5.33301 -8.66699 -14.333 -15 -27 -19s-28 -6 -46 -6h-116
c-18 0 -33.333 2 -46 6s-21.667 10.333 -27 19l-82 139h170z" />
    <glyph glyph-name="rcaron" unicode="&#x159;" horiz-adv-x="676" 
d="M414 700c126 0 189 -62 189 -186v-41c0 -33.333 -4.16699 -57.833 -12.5 -73.5s-21.166 -28.5 -38.499 -38.5c19.333 -7.33301 35.5 -20.833 48.5 -40.5s19.5 -45.5 19.5 -77.5v-243h-188v235c0 10 -2.16699 18.5 -6.5 25.5s-12.833 10.5 -25.5 10.5h-114v158h106
c13.333 0 22.166 3.5 26.499 10.5s6.5 15.5 6.5 25.5v21c0 25.333 -12 38 -36 38h-119c-10 0 -15 -5.66699 -15 -17v-507h-189v638c0 41.333 20.667 62 62 62h286zM294 929l41 -70h4l40 70h172l-83 -139c-5.33301 -8.66699 -14.333 -15 -27 -19s-28 -6 -46 -6h-116
c-18 0 -33.333 2 -46 6s-21.667 10.333 -27 19l-82 139h170z" />
    <glyph glyph-name="Sacute" unicode="&#x15a;" horiz-adv-x="640" 
d="M560 700l0.00195312 -183h-293c-24 0 -36 -12.667 -36 -38v-21c0 -24 11 -36 33 -36h152c61.333 0 105.166 -14.167 131.499 -42.5s39.5 -68.833 39.5 -121.5v-72c0 -124 -63 -186 -189 -186h-333v184h308c24 0 36 12.667 36 38v21c0 12 -2.33301 21 -7 27
s-13.334 9 -26.001 9h-162c-28.667 0 -53.167 3.83301 -73.5 11.5s-37 18.334 -50 32.001s-22.5 29.667 -28.5 48s-9 38.166 -9 59.499v84c0 124 63 186 189 186h318zM524.002 929l-140 -164h-169l100 164h209z" />
    <glyph glyph-name="sacute" unicode="&#x15b;" horiz-adv-x="640" 
d="M560 700l0.00195312 -183h-293c-24 0 -36 -12.667 -36 -38v-21c0 -24 11 -36 33 -36h152c61.333 0 105.166 -14.167 131.499 -42.5s39.5 -68.833 39.5 -121.5v-72c0 -124 -63 -186 -189 -186h-333v184h308c24 0 36 12.667 36 38v21c0 12 -2.33301 21 -7 27
s-13.334 9 -26.001 9h-162c-28.667 0 -53.167 3.83301 -73.5 11.5s-37 18.334 -50 32.001s-22.5 29.667 -28.5 48s-9 38.166 -9 59.499v84c0 124 63 186 189 186h318zM524.002 929l-140 -164h-169l100 164h209z" />
    <glyph glyph-name="Scedilla" unicode="&#x15e;" horiz-adv-x="640" 
d="M560 700l0.00195312 -183h-293c-24 0 -36 -12.667 -36 -38v-21c0 -24 11 -36 33 -36h152c61.333 0 105.166 -14.167 131.499 -42.5s39.5 -68.833 39.5 -121.5v-72c0 -124 -63 -186 -189 -186h-333v184h308c24 0 36 12.667 36 38v21c0 12 -2.33301 21 -7 27
s-13.334 9 -26.001 9h-162c-28.667 0 -53.167 3.83301 -73.5 11.5s-37 18.334 -50 32.001s-22.5 29.667 -28.5 48s-9 38.166 -9 59.499v84c0 124 63 186 189 186h318zM417.002 -42l-99 -229h-156l59 229h196z" />
    <glyph glyph-name="scedilla" unicode="&#x15f;" horiz-adv-x="640" 
d="M560 700l0.00195312 -183h-293c-24 0 -36 -12.667 -36 -38v-21c0 -24 11 -36 33 -36h152c61.333 0 105.166 -14.167 131.499 -42.5s39.5 -68.833 39.5 -121.5v-72c0 -124 -63 -186 -189 -186h-333v184h308c24 0 36 12.667 36 38v21c0 12 -2.33301 21 -7 27
s-13.334 9 -26.001 9h-162c-28.667 0 -53.167 3.83301 -73.5 11.5s-37 18.334 -50 32.001s-22.5 29.667 -28.5 48s-9 38.166 -9 59.499v84c0 124 63 186 189 186h318zM417.002 -42l-99 -229h-156l59 229h196z" />
    <glyph glyph-name="Scaron" unicode="&#x160;" horiz-adv-x="640" 
d="M560 700l0.00195312 -183h-293c-24 0 -36 -12.667 -36 -38v-21c0 -24 11 -36 33 -36h152c61.333 0 105.166 -14.167 131.499 -42.5s39.5 -68.833 39.5 -121.5v-72c0 -124 -63 -186 -189 -186h-333v184h308c24 0 36 12.667 36 38v21c0 12 -2.33301 21 -7 27
s-13.334 9 -26.001 9h-162c-28.667 0 -53.167 3.83301 -73.5 11.5s-37 18.334 -50 32.001s-22.5 29.667 -28.5 48s-9 38.166 -9 59.499v84c0 124 63 186 189 186h318zM276.002 929l41 -70h4l40 70h172l-83 -139c-5.33301 -8.66699 -14.333 -15 -27 -19s-28 -6 -46 -6h-116
c-18 0 -33.333 2 -46 6s-21.667 10.333 -27 19l-82 139h170z" />
    <glyph glyph-name="scaron" unicode="&#x161;" horiz-adv-x="640" 
d="M560 700l0.00195312 -183h-293c-24 0 -36 -12.667 -36 -38v-21c0 -24 11 -36 33 -36h152c61.333 0 105.166 -14.167 131.499 -42.5s39.5 -68.833 39.5 -121.5v-72c0 -124 -63 -186 -189 -186h-333v184h308c24 0 36 12.667 36 38v21c0 12 -2.33301 21 -7 27
s-13.334 9 -26.001 9h-162c-28.667 0 -53.167 3.83301 -73.5 11.5s-37 18.334 -50 32.001s-22.5 29.667 -28.5 48s-9 38.166 -9 59.499v84c0 124 63 186 189 186h318zM276.002 929l41 -70h4l40 70h172l-83 -139c-5.33301 -8.66699 -14.333 -15 -27 -19s-28 -6 -46 -6h-116
c-18 0 -33.333 2 -46 6s-21.667 10.333 -27 19l-82 139h170z" />
    <glyph glyph-name="Tcedilla" unicode="&#x162;" horiz-adv-x="588" 
d="M562 700v-183h-536v183h536zM389 486v-486h-189v486h189zM387 -42l-99 -229h-156l59 229h196z" />
    <glyph glyph-name="tcedilla" unicode="&#x163;" horiz-adv-x="588" 
d="M562 700v-183h-536v183h536zM389 486v-486h-189v486h189zM387 -42l-99 -229h-156l59 229h196z" />
    <glyph glyph-name="Tcaron" unicode="&#x164;" horiz-adv-x="588" 
d="M562 700v-183h-536v183h536zM389 486v-486h-189v486h189zM250 929l41 -70h4l40 70h172l-83 -139c-5.33301 -8.66699 -14.333 -15 -27 -19s-28 -6 -46 -6h-116c-18 0 -33.333 2 -46 6s-21.667 10.333 -27 19l-82 139h170z" />
    <glyph glyph-name="tcaron" unicode="&#x165;" horiz-adv-x="588" 
d="M562 700v-183h-536v183h536zM389 486v-486h-189v486h189zM250 929l41 -70h4l40 70h172l-83 -139c-5.33301 -8.66699 -14.333 -15 -27 -19s-28 -6 -46 -6h-116c-18 0 -33.333 2 -46 6s-21.667 10.333 -27 19l-82 139h170z" />
    <glyph glyph-name="Tbar" unicode="&#x166;" horiz-adv-x="588" 
d="M511 438v-166h-122v-272h-189v272h-124v166h435zM562 700v-183h-536v183h536z" />
    <glyph glyph-name="tbar" unicode="&#x167;" horiz-adv-x="588" 
d="M511 438v-166h-122v-272h-189v272h-124v166h435zM562 700v-183h-536v183h536z" />
    <glyph glyph-name="Utilde" unicode="&#x168;" 
d="M250 700v-479c0 -24.667 11.667 -37 35 -37h109c23.333 0 35 12.333 35 37v479h189v-567c0 -88.667 -44 -133 -132 -133h-293c-88 -0 -132 44.333 -132 133v567h189zM74 876c13.333 16.667 30.666 29.667 51.999 39s47 14 77 14c28 0 52.833 -3.66699 74.5 -11
s42.167 -15.333 61.5 -24s38.5 -16.667 57.5 -24s40.167 -11 63.5 -11c22.667 0 45.834 4.83301 69.501 14.5s45.5 27.5 65.5 53.5h9v-137c-15.333 -16.667 -36.166 -29.667 -62.499 -39s-53.5 -14 -81.5 -14c-26 0 -49.167 3.5 -69.5 10.5s-40 14.833 -59 23.5
s-38.333 16.5 -58 23.5s-41.834 10.5 -66.501 10.5s-46.667 -4.66699 -66 -14s-38.333 -26.333 -57 -51h-10v136z" />
    <glyph glyph-name="utilde" unicode="&#x169;" 
d="M250 700v-479c0 -24.667 11.667 -37 35 -37h109c23.333 0 35 12.333 35 37v479h189v-567c0 -88.667 -44 -133 -132 -133h-293c-88 -0 -132 44.333 -132 133v567h189zM74 876c13.333 16.667 30.666 29.667 51.999 39s47 14 77 14c28 0 52.833 -3.66699 74.5 -11
s42.167 -15.333 61.5 -24s38.5 -16.667 57.5 -24s40.167 -11 63.5 -11c22.667 0 45.834 4.83301 69.501 14.5s45.5 27.5 65.5 53.5h9v-137c-15.333 -16.667 -36.166 -29.667 -62.499 -39s-53.5 -14 -81.5 -14c-26 0 -49.167 3.5 -69.5 10.5s-40 14.833 -59 23.5
s-38.333 16.5 -58 23.5s-41.834 10.5 -66.501 10.5s-46.667 -4.66699 -66 -14s-38.333 -26.333 -57 -51h-10v136z" />
    <glyph glyph-name="Umacron" unicode="&#x16a;" 
d="M250 700v-479c0 -24.667 11.667 -37 35 -37h109c23.333 0 35 12.333 35 37v479h189v-567c0 -88.667 -44 -133 -132 -133h-293c-88 -0 -132 44.333 -132 133v567h189zM604 899v-124h-529v124h529z" />
    <glyph glyph-name="umacron" unicode="&#x16b;" 
d="M250 700v-479c0 -24.667 11.667 -37 35 -37h109c23.333 0 35 12.333 35 37v479h189v-567c0 -88.667 -44 -133 -132 -133h-293c-88 -0 -132 44.333 -132 133v567h189zM604 899v-124h-529v124h529z" />
    <glyph glyph-name="Ubreve" unicode="&#x16c;" 
d="M250 700v-479c0 -24.667 11.667 -37 35 -37h109c23.333 0 35 12.333 35 37v479h189v-567c0 -88.667 -44 -133 -132 -133h-293c-88 -0 -132 44.333 -132 133v567h189zM280 929c1.33301 -34.667 6.16895 -58.5 14.502 -71.5s23.166 -19.5 44.499 -19.5s36 6.5 44 19.5
s12.667 36.833 14 71.5h131c-0.666992 -30.667 -4.5 -58 -11.5 -82s-18 -44.167 -33 -60.5s-34.333 -28.833 -58 -37.5s-52.5 -13 -86.5 -13c-68 0 -116.333 16.833 -145 50.5s-43.334 81.167 -44.001 142.5h130z" />
    <glyph glyph-name="ubreve" unicode="&#x16d;" 
d="M250 700v-479c0 -24.667 11.667 -37 35 -37h109c23.333 0 35 12.333 35 37v479h189v-567c0 -88.667 -44 -133 -132 -133h-293c-88 -0 -132 44.333 -132 133v567h189zM280 929c1.33301 -34.667 6.16895 -58.5 14.502 -71.5s23.166 -19.5 44.499 -19.5s36 6.5 44 19.5
s12.667 36.833 14 71.5h131c-0.666992 -30.667 -4.5 -58 -11.5 -82s-18 -44.167 -33 -60.5s-34.333 -28.833 -58 -37.5s-52.5 -13 -86.5 -13c-68 0 -116.333 16.833 -145 50.5s-43.334 81.167 -44.001 142.5h130z" />
    <glyph glyph-name="Uring" unicode="&#x16e;" 
d="M250 700v-479c0 -24.667 11.667 -37 35 -37h109c23.333 0 35 12.333 35 37v479h189v-567c0 -88.667 -44 -133 -132 -133h-293c-88 -0 -132 44.333 -132 133v567h189zM213 834c0 30 9.5 53.333 28.5 70s51.833 25 98.5 25c46 0 78.5 -8.33301 97.5 -25s28.5 -40 28.5 -70
v-34c0 -30 -9.5 -53.333 -28.5 -70s-51.5 -25 -97.5 -25c-46.667 0 -79.5 8.33301 -98.5 25s-28.5 40 -28.5 70v34zM303 806c0 -11.333 2.66699 -19.166 8 -23.499s15 -6.5 29 -6.5c13.333 0 22.666 2.16699 27.999 6.5s8 12.166 8 23.499v22
c0 11.333 -2.66699 19.333 -8 24s-14.666 7 -27.999 7c-14 0 -23.667 -2.33301 -29 -7s-8 -12.667 -8 -24v-22z" />
    <glyph glyph-name="uring" unicode="&#x16f;" 
d="M250 700v-479c0 -24.667 11.667 -37 35 -37h109c23.333 0 35 12.333 35 37v479h189v-567c0 -88.667 -44 -133 -132 -133h-293c-88 -0 -132 44.333 -132 133v567h189zM213 834c0 30 9.5 53.333 28.5 70s51.833 25 98.5 25c46 0 78.5 -8.33301 97.5 -25s28.5 -40 28.5 -70
v-34c0 -30 -9.5 -53.333 -28.5 -70s-51.5 -25 -97.5 -25c-46.667 0 -79.5 8.33301 -98.5 25s-28.5 40 -28.5 70v34zM303 806c0 -11.333 2.66699 -19.166 8 -23.499s15 -6.5 29 -6.5c13.333 0 22.666 2.16699 27.999 6.5s8 12.166 8 23.499v22
c0 11.333 -2.66699 19.333 -8 24s-14.666 7 -27.999 7c-14 0 -23.667 -2.33301 -29 -7s-8 -12.667 -8 -24v-22z" />
    <glyph glyph-name="Uhungarumlaut" unicode="&#x170;" 
d="M250 700v-479c0 -24.667 11.667 -37 35 -37h109c23.333 0 35 12.333 35 37v479h189v-567c0 -88.667 -44 -133 -132 -133h-293c-88 -0 -132 44.333 -132 133v567h189zM675 929l-150 -164h-173l114 164h209zM395 929l-125 -164h-165l89 164h201z" />
    <glyph glyph-name="uhungarumlaut" unicode="&#x171;" 
d="M250 700v-479c0 -24.667 11.667 -37 35 -37h109c23.333 0 35 12.333 35 37v479h189v-567c0 -88.667 -44 -133 -132 -133h-293c-88 -0 -132 44.333 -132 133v567h189zM675 929l-150 -164h-173l114 164h209zM395 929l-125 -164h-165l89 164h201z" />
    <glyph glyph-name="Uogonek" unicode="&#x172;" 
d="M250 700v-479c0 -24.667 11.667 -37 35 -37h109c23.333 0 35 12.333 35 37v479h189v-567c0 -88.667 -44 -133 -132 -133h-293c-88 -0 -132 44.333 -132 133v567h189zM499 -24l-148 -59v-4h148v-184h-265c-18 0 -32.5 1.66699 -43.5 5s-19.833 8 -26.5 14
s-11.167 12.667 -13.5 20s-3.5 15 -3.5 23v52c0 18.667 4.5 34.5 13.5 47.5s24.167 23.167 45.5 30.5l155 55h138z" />
    <glyph glyph-name="uogonek" unicode="&#x173;" 
d="M250 700v-479c0 -24.667 11.667 -37 35 -37h109c23.333 0 35 12.333 35 37v479h189v-567c0 -88.667 -44 -133 -132 -133h-293c-88 -0 -132 44.333 -132 133v567h189zM499 -24l-148 -59v-4h148v-184h-265c-18 0 -32.5 1.66699 -43.5 5s-19.833 8 -26.5 14
s-11.167 12.667 -13.5 20s-3.5 15 -3.5 23v52c0 18.667 4.5 34.5 13.5 47.5s24.167 23.167 45.5 30.5l155 55h138z" />
    <glyph glyph-name="Wcircumflex" unicode="&#x174;" horiz-adv-x="960" 
d="M250 700l-0.00195312 -479c0 -24.667 11.667 -37 35 -37h69c23.333 0 35 12.333 35 37v479h91h91v-479c0 -24.667 11.667 -37 35 -37h69c23.333 0 35 12.333 35 37v479h189v-567c0 -88.667 -44 -133 -132 -133h-199c-24.667 0 -44.167 5.5 -58.5 16.5
s-24.166 23.167 -29.499 36.5c-5.33301 -13.333 -15.166 -25.5 -29.499 -36.5s-33.833 -16.5 -58.5 -16.5h-199c-88 -0 -132 44.333 -132 133v567h189zM537.998 929c18 0 33.333 -2 46 -6s21.667 -10.333 27 -19l82 -139h-170l-41 70h-4l-40 -70h-172l83 139
c5.33301 8.66699 14.333 15 27 19s28 6 46 6h116z" />
    <glyph glyph-name="wcircumflex" unicode="&#x175;" horiz-adv-x="960" 
d="M250 700l-0.00195312 -479c0 -24.667 11.667 -37 35 -37h69c23.333 0 35 12.333 35 37v479h91h91v-479c0 -24.667 11.667 -37 35 -37h69c23.333 0 35 12.333 35 37v479h189v-567c0 -88.667 -44 -133 -132 -133h-199c-24.667 0 -44.167 5.5 -58.5 16.5
s-24.166 23.167 -29.499 36.5c-5.33301 -13.333 -15.166 -25.5 -29.499 -36.5s-33.833 -16.5 -58.5 -16.5h-199c-88 -0 -132 44.333 -132 133v567h189zM537.998 929c18 0 33.333 -2 46 -6s21.667 -10.333 27 -19l82 -139h-170l-41 70h-4l-40 -70h-172l83 139
c5.33301 8.66699 14.333 15 27 19s28 6 46 6h116z" />
    <glyph glyph-name="Ycircumflex" unicode="&#x176;" horiz-adv-x="649" 
d="M419 240v-240h-189v240h189zM235 700v-225c0 -24.667 11.667 -37 35 -37h109c23.333 0 35 12.333 35 37v225h189v-296c0 -88.667 -44 -133 -132 -133h-293c-88 0 -132 44.333 -132 133v296h189zM383 929c18 0 33.333 -2 46 -6s21.667 -10.333 27 -19l82 -139h-170l-41 70
h-4l-40 -70h-172l83 139c5.33301 8.66699 14.333 15 27 19s28 6 46 6h116z" />
    <glyph glyph-name="ycircumflex" unicode="&#x177;" horiz-adv-x="649" 
d="M419 240v-240h-189v240h189zM235 700v-225c0 -24.667 11.667 -37 35 -37h109c23.333 0 35 12.333 35 37v225h189v-296c0 -88.667 -44 -133 -132 -133h-293c-88 0 -132 44.333 -132 133v296h189zM383 929c18 0 33.333 -2 46 -6s21.667 -10.333 27 -19l82 -139h-170l-41 70
h-4l-40 -70h-172l83 139c5.33301 8.66699 14.333 15 27 19s28 6 46 6h116z" />
    <glyph glyph-name="Ydieresis" unicode="&#x178;" horiz-adv-x="649" 
d="M419 240v-240h-189v240h189zM235 700v-225c0 -24.667 11.667 -37 35 -37h109c23.333 0 35 12.333 35 37v225h189v-296c0 -88.667 -44 -133 -132 -133h-293c-88 0 -132 44.333 -132 133v296h189zM534 929v-164h-159v164h159zM274 929v-164h-159v164h159z" />
    <glyph glyph-name="Zacute" unicode="&#x179;" horiz-adv-x="628" 
d="M508 700c41.333 0 62 -21 62 -63v-68c0 -9.33301 -1 -17.5 -3 -24.5s-6 -14.5 -12 -22.5l-241 -334v-4h263v-184h-464c-41.333 0 -62 21 -62 63v68c0 9.33301 1 17.5 3 24.5s6 14.5 12 22.5l254 335v4h-257v183h445zM518 929l-140 -164h-169l100 164h209z" />
    <glyph glyph-name="zacute" unicode="&#x17a;" horiz-adv-x="628" 
d="M508 700c41.333 0 62 -21 62 -63v-68c0 -9.33301 -1 -17.5 -3 -24.5s-6 -14.5 -12 -22.5l-241 -334v-4h263v-184h-464c-41.333 0 -62 21 -62 63v68c0 9.33301 1 17.5 3 24.5s6 14.5 12 22.5l254 335v4h-257v183h445zM518 929l-140 -164h-169l100 164h209z" />
    <glyph glyph-name="Zdotaccent" unicode="&#x17b;" horiz-adv-x="628" 
d="M508 700c41.333 0 62 -21 62 -63v-68c0 -9.33301 -1 -17.5 -3 -24.5s-6 -14.5 -12 -22.5l-241 -334v-4h263v-184h-464c-41.333 0 -62 21 -62 63v68c0 9.33301 1 17.5 3 24.5s6 14.5 12 22.5l254 335v4h-257v183h445zM393 929v-164h-159v164h159z" />
    <glyph glyph-name="zdotaccent" unicode="&#x17c;" horiz-adv-x="628" 
d="M508 700c41.333 0 62 -21 62 -63v-68c0 -9.33301 -1 -17.5 -3 -24.5s-6 -14.5 -12 -22.5l-241 -334v-4h263v-184h-464c-41.333 0 -62 21 -62 63v68c0 9.33301 1 17.5 3 24.5s6 14.5 12 22.5l254 335v4h-257v183h445zM393 929v-164h-159v164h159z" />
    <glyph glyph-name="Zcaron" unicode="&#x17d;" horiz-adv-x="628" 
d="M508 700c41.333 0 62 -21 62 -63v-68c0 -9.33301 -1 -17.5 -3 -24.5s-6 -14.5 -12 -22.5l-241 -334v-4h263v-184h-464c-41.333 0 -62 21 -62 63v68c0 9.33301 1 17.5 3 24.5s6 14.5 12 22.5l254 335v4h-257v183h445zM270 929l41 -70h4l40 70h172l-83 -139
c-5.33301 -8.66699 -14.333 -15 -27 -19s-28 -6 -46 -6h-116c-18 0 -33.333 2 -46 6s-21.667 10.333 -27 19l-82 139h170z" />
    <glyph glyph-name="zcaron" unicode="&#x17e;" horiz-adv-x="628" 
d="M508 700c41.333 0 62 -21 62 -63v-68c0 -9.33301 -1 -17.5 -3 -24.5s-6 -14.5 -12 -22.5l-241 -334v-4h263v-184h-464c-41.333 0 -62 21 -62 63v68c0 9.33301 1 17.5 3 24.5s6 14.5 12 22.5l254 335v4h-257v183h445zM270 929l41 -70h4l40 70h172l-83 -139
c-5.33301 -8.66699 -14.333 -15 -27 -19s-28 -6 -46 -6h-116c-18 0 -33.333 2 -46 6s-21.667 10.333 -27 19l-82 139h170z" />
    <glyph glyph-name="florin" unicode="&#x192;" horiz-adv-x="572" 
d="M180 380v16c0 48 5.83301 90.833 17.5 128.5s29.834 69.5 54.501 95.5s56.5 45.833 95.5 59.5s85.833 20.5 140.5 20.5h49v-184h-46c-43.333 0 -74.5 -9.33301 -93.5 -28s-28.5 -52.334 -28.5 -101.001v-297h-1v-42c0 -48 -5.83301 -90.833 -17.5 -128.5
s-29.834 -69.5 -54.501 -95.5s-56.5 -45.833 -95.5 -59.5s-85.833 -20.5 -140.5 -20.5h-59v184h56c43.333 0 74.5 9.33301 93.5 28s28.5 52.334 28.5 101.001v167h-62v156h63zM537 380v-156h-138v156h138z" />
    <glyph glyph-name="Scommaaccent" unicode="&#x218;" horiz-adv-x="640" 
d="M560 700l0.00195312 -183h-293c-24 0 -36 -12.667 -36 -38v-21c0 -24 11 -36 33 -36h152c61.333 0 105.166 -14.167 131.499 -42.5s39.5 -68.833 39.5 -121.5v-72c0 -124 -63 -186 -189 -186h-333v184h308c24 0 36 12.667 36 38v21c0 12 -2.33301 21 -7 27
s-13.334 9 -26.001 9h-162c-28.667 0 -53.167 3.83301 -73.5 11.5s-37 18.334 -50 32.001s-22.5 29.667 -28.5 48s-9 38.166 -9 59.499v84c0 124 63 186 189 186h318zM417.002 -42l-99 -229h-156l59 229h196z" />
    <glyph glyph-name="scommaaccent" unicode="&#x219;" horiz-adv-x="640" 
d="M560 700l0.00195312 -183h-293c-24 0 -36 -12.667 -36 -38v-21c0 -24 11 -36 33 -36h152c61.333 0 105.166 -14.167 131.499 -42.5s39.5 -68.833 39.5 -121.5v-72c0 -124 -63 -186 -189 -186h-333v184h308c24 0 36 12.667 36 38v21c0 12 -2.33301 21 -7 27
s-13.334 9 -26.001 9h-162c-28.667 0 -53.167 3.83301 -73.5 11.5s-37 18.334 -50 32.001s-22.5 29.667 -28.5 48s-9 38.166 -9 59.499v84c0 124 63 186 189 186h318zM417.002 -42l-99 -229h-156l59 229h196z" />
    <glyph glyph-name="uni021A" unicode="&#x21a;" horiz-adv-x="588" 
d="M562 700v-183h-536v183h536zM389 486v-486h-189v486h189zM387 -42l-99 -229h-156l59 229h196z" />
    <glyph glyph-name="uni021B" unicode="&#x21b;" horiz-adv-x="588" 
d="M562 700v-183h-536v183h536zM389 486v-486h-189v486h189zM387 -42l-99 -229h-156l59 229h196z" />
    <glyph glyph-name="circumflex" unicode="&#x2c6;" horiz-adv-x="559" 
d="M338 929c18 0 33.333 -2 46 -6s21.667 -10.333 27 -19l82 -139h-170l-41 70h-4l-40 -70h-172l83 139c5.33301 8.66699 14.333 15 27 19s28 6 46 6h116z" />
    <glyph glyph-name="caron" unicode="&#x2c7;" horiz-adv-x="559" 
d="M236 929l41 -70h4l40 70h172l-83 -139c-5.33301 -8.66699 -14.333 -15 -27 -19s-28 -6 -46 -6h-116c-18 0 -33.333 2 -46 6s-21.667 10.333 -27 19l-82 139h170z" />
    <glyph glyph-name="breve" unicode="&#x2d8;" horiz-adv-x="510" 
d="M196 929c1.33301 -34.667 6.16895 -58.5 14.502 -71.5s23.166 -19.5 44.499 -19.5s36 6.5 44 19.5s12.667 36.833 14 71.5h131c-0.666992 -30.667 -4.5 -58 -11.5 -82s-18 -44.167 -33 -60.5s-34.333 -28.833 -58 -37.5s-52.5 -13 -86.5 -13
c-68 0 -116.333 16.833 -145 50.5s-43.334 81.167 -44.001 142.5h130z" />
    <glyph glyph-name="dotaccent" unicode="&#x2d9;" horiz-adv-x="291" 
d="M225 929v-164h-159v164h159z" />
    <glyph glyph-name="ring" unicode="&#x2da;" horiz-adv-x="385" 
d="M66 834c0 30 9.5 53.333 28.5 70s51.833 25 98.5 25c46 0 78.5 -8.33301 97.5 -25s28.5 -40 28.5 -70v-34c0 -30 -9.5 -53.333 -28.5 -70s-51.5 -25 -97.5 -25c-46.667 0 -79.5 8.33301 -98.5 25s-28.5 40 -28.5 70v34zM156 806c0 -11.333 2.66699 -19.166 8 -23.499
s15 -6.5 29 -6.5c13.333 0 22.666 2.16699 27.999 6.5s8 12.166 8 23.499v22c0 11.333 -2.66699 19.333 -8 24s-14.666 7 -27.999 7c-14 0 -23.667 -2.33301 -29 -7s-8 -12.667 -8 -24v-22z" />
    <glyph glyph-name="ogonek" unicode="&#x2db;" horiz-adv-x="484" 
d="M418 -24l-148 -59v-4h148v-184h-265c-18 0 -32.5 1.66699 -43.5 5s-19.833 8 -26.5 14s-11.167 12.667 -13.5 20s-3.5 15 -3.5 23v52c0 18.667 4.5 34.5 13.5 47.5s24.167 23.167 45.5 30.5l155 55h138z" />
    <glyph glyph-name="tilde" unicode="&#x2dc;" horiz-adv-x="662" 
d="M66 876c13.333 16.667 30.666 29.667 51.999 39s47 14 77 14c28 0 52.833 -3.66699 74.5 -11s42.167 -15.333 61.5 -24s38.5 -16.667 57.5 -24s40.167 -11 63.5 -11c22.667 0 45.834 4.83301 69.501 14.5s45.5 27.5 65.5 53.5h9v-137
c-15.333 -16.667 -36.166 -29.667 -62.499 -39s-53.5 -14 -81.5 -14c-26 0 -49.167 3.5 -69.5 10.5s-40 14.833 -59 23.5s-38.333 16.5 -58 23.5s-41.834 10.5 -66.501 10.5s-46.667 -4.66699 -66 -14s-38.333 -26.333 -57 -51h-10v136z" />
    <glyph glyph-name="hungarumlaut" unicode="&#x2dd;" horiz-adv-x="702" 
d="M636 929l-150 -164h-173l114 164h209zM356 929l-125 -164h-165l89 164h201z" />
    <glyph glyph-name="uni0391" unicode="&#x391;" horiz-adv-x="692" 
d="M403 235l-61 211h-4l-121 -446h-201l214 678c4.66699 14.667 15.334 22 32.001 22h150c17.333 0 28.666 -7.33301 33.999 -22l230 -678h-204l-20 69h-203l45 166h109z" />
    <glyph glyph-name="Delta" unicode="&#x394;" horiz-adv-x="726" 
d="M439 700c17.333 0 28.666 -7.33301 33.999 -22l214 -678h-648l218 678c4.66699 14.667 15.334 22 32.001 22h150zM242 142h237l-114 396h-4z" />
    <glyph glyph-name="Omega" unicode="&#x3a9;" horiz-adv-x="796" 
d="M513 700c38 0 71 -4.33301 99 -13s51 -22.5 69 -41.5s31.5 -43.667 40.5 -74s13.5 -67.166 13.5 -110.499v-67c0 -53.333 -14 -95 -42 -125s-65.333 -51.667 -112 -65v-20h148v-184h-307v243c45.333 8.66699 77.833 22.667 97.5 42s29.5 49 29.5 89v75
c0 21.333 -5.33301 38 -16 50s-25.667 18 -45 18h-180c-19.333 0 -34.333 -6 -45 -18s-16 -28.667 -16 -50v-75c0 -40 9.83301 -69.667 29.5 -89s52.167 -33.333 97.5 -42v-243h-307v184h148v20c-46.667 13.333 -84 35 -112 65s-42 71.667 -42 125v67
c0 43.333 4.5 80.166 13.5 110.499s22.5 55 40.5 74s41 32.833 69 41.5s61 13 99 13h230z" />
    <glyph glyph-name="mu" unicode="&#x3bc;" horiz-adv-x="681" 
d="M255 517v-333h144c23.333 0 35 12.333 35 37v296h189v-384c0 -88.667 -44 -133 -132 -133h-236v-271h-189v788h189z" />
    <glyph glyph-name="pi" unicode="&#x3c0;" horiz-adv-x="689" 
d="M531 517c61.333 0 92 -27.667 92 -83v-434h-189v316c0 11.333 -5 17 -15 17h-149c-10 0 -15 -5.66699 -15 -17v-316h-189v434c0 55.333 30.667 83 92 83h373z" />
    <glyph glyph-name="Wgrave" unicode="&#x1e80;" horiz-adv-x="960" 
d="M250 700l-0.00195312 -479c0 -24.667 11.667 -37 35 -37h69c23.333 0 35 12.333 35 37v479h91h91v-479c0 -24.667 11.667 -37 35 -37h69c23.333 0 35 12.333 35 37v479h189v-567c0 -88.667 -44 -133 -132 -133h-199c-24.667 0 -44.167 5.5 -58.5 16.5
s-24.166 23.167 -29.499 36.5c-5.33301 -13.333 -15.166 -25.5 -29.499 -36.5s-33.833 -16.5 -58.5 -16.5h-199c-88 -0 -132 44.333 -132 133v567h189zM483.998 929l100 -164h-169l-140 164h209z" />
    <glyph glyph-name="wgrave" unicode="&#x1e81;" horiz-adv-x="960" 
d="M250 700l-0.00195312 -479c0 -24.667 11.667 -37 35 -37h69c23.333 0 35 12.333 35 37v479h91h91v-479c0 -24.667 11.667 -37 35 -37h69c23.333 0 35 12.333 35 37v479h189v-567c0 -88.667 -44 -133 -132 -133h-199c-24.667 0 -44.167 5.5 -58.5 16.5
s-24.166 23.167 -29.499 36.5c-5.33301 -13.333 -15.166 -25.5 -29.499 -36.5s-33.833 -16.5 -58.5 -16.5h-199c-88 -0 -132 44.333 -132 133v567h189zM483.998 929l100 -164h-169l-140 164h209z" />
    <glyph glyph-name="Wacute" unicode="&#x1e82;" horiz-adv-x="960" 
d="M250 700l-0.00195312 -479c0 -24.667 11.667 -37 35 -37h69c23.333 0 35 12.333 35 37v479h91h91v-479c0 -24.667 11.667 -37 35 -37h69c23.333 0 35 12.333 35 37v479h189v-567c0 -88.667 -44 -133 -132 -133h-199c-24.667 0 -44.167 5.5 -58.5 16.5
s-24.166 23.167 -29.499 36.5c-5.33301 -13.333 -15.166 -25.5 -29.499 -36.5s-33.833 -16.5 -58.5 -16.5h-199c-88 -0 -132 44.333 -132 133v567h189zM683.998 929l-140 -164h-169l100 164h209z" />
    <glyph glyph-name="wacute" unicode="&#x1e83;" horiz-adv-x="960" 
d="M250 700l-0.00195312 -479c0 -24.667 11.667 -37 35 -37h69c23.333 0 35 12.333 35 37v479h91h91v-479c0 -24.667 11.667 -37 35 -37h69c23.333 0 35 12.333 35 37v479h189v-567c0 -88.667 -44 -133 -132 -133h-199c-24.667 0 -44.167 5.5 -58.5 16.5
s-24.166 23.167 -29.499 36.5c-5.33301 -13.333 -15.166 -25.5 -29.499 -36.5s-33.833 -16.5 -58.5 -16.5h-199c-88 -0 -132 44.333 -132 133v567h189zM683.998 929l-140 -164h-169l100 164h209z" />
    <glyph glyph-name="Wdieresis" unicode="&#x1e84;" horiz-adv-x="960" 
d="M250 700l-0.00195312 -479c0 -24.667 11.667 -37 35 -37h69c23.333 0 35 12.333 35 37v479h91h91v-479c0 -24.667 11.667 -37 35 -37h69c23.333 0 35 12.333 35 37v479h189v-567c0 -88.667 -44 -133 -132 -133h-199c-24.667 0 -44.167 5.5 -58.5 16.5
s-24.166 23.167 -29.499 36.5c-5.33301 -13.333 -15.166 -25.5 -29.499 -36.5s-33.833 -16.5 -58.5 -16.5h-199c-88 -0 -132 44.333 -132 133v567h189zM688.998 929v-164h-159v164h159zM428.998 929v-164h-159v164h159z" />
    <glyph glyph-name="wdieresis" unicode="&#x1e85;" horiz-adv-x="960" 
d="M250 700l-0.00195312 -479c0 -24.667 11.667 -37 35 -37h69c23.333 0 35 12.333 35 37v479h91h91v-479c0 -24.667 11.667 -37 35 -37h69c23.333 0 35 12.333 35 37v479h189v-567c0 -88.667 -44 -133 -132 -133h-199c-24.667 0 -44.167 5.5 -58.5 16.5
s-24.166 23.167 -29.499 36.5c-5.33301 -13.333 -15.166 -25.5 -29.499 -36.5s-33.833 -16.5 -58.5 -16.5h-199c-88 -0 -132 44.333 -132 133v567h189zM688.998 929v-164h-159v164h159zM428.998 929v-164h-159v164h159z" />
    <glyph glyph-name="Ygrave" unicode="&#x1ef2;" horiz-adv-x="649" 
d="M419 240v-240h-189v240h189zM235 700v-225c0 -24.667 11.667 -37 35 -37h109c23.333 0 35 12.333 35 37v225h189v-296c0 -88.667 -44 -133 -132 -133h-293c-88 0 -132 44.333 -132 133v296h189zM329 929l100 -164h-169l-140 164h209z" />
    <glyph glyph-name="ygrave" unicode="&#x1ef3;" horiz-adv-x="649" 
d="M419 240v-240h-189v240h189zM235 700v-225c0 -24.667 11.667 -37 35 -37h109c23.333 0 35 12.333 35 37v225h189v-296c0 -88.667 -44 -133 -132 -133h-293c-88 0 -132 44.333 -132 133v296h189zM329 929l100 -164h-169l-140 164h209z" />
    <glyph glyph-name="endash" unicode="&#x2013;" horiz-adv-x="568" 
d="M546 437v-166h-525v166h525z" />
    <glyph glyph-name="emdash" unicode="&#x2014;" horiz-adv-x="778" 
d="M756 437v-166h-735v166h735z" />
    <glyph glyph-name="quoteleft" unicode="&#x2018;" horiz-adv-x="251" 
d="M210 700v-271h-169v109c0 52 12.167 92 36.5 120s57.833 42 100.5 42h32z" />
    <glyph glyph-name="quoteright" unicode="&#x2019;" horiz-adv-x="251" 
d="M210 700v-109c0 -52 -12.167 -92 -36.5 -120s-57.833 -42 -100.5 -42h-32v271h169z" />
    <glyph glyph-name="quotesinglbase" unicode="&#x201a;" horiz-adv-x="251" 
d="M210 184v-109c0 -52 -12.167 -92 -36.5 -120s-57.833 -42 -100.5 -42h-32v271h169z" />
    <glyph glyph-name="quotedblleft" unicode="&#x201c;" horiz-adv-x="502" 
d="M210 700v-271h-169v109c0 52 12.167 92 36.5 120s57.833 42 100.5 42h32zM461 700v-271h-169v109c0 52 12.167 92 36.5 120s57.833 42 100.5 42h32z" />
    <glyph glyph-name="quotedblright" unicode="&#x201d;" horiz-adv-x="502" 
d="M210 700v-109c0 -52 -12.167 -92 -36.5 -120s-57.833 -42 -100.5 -42h-32v271h169zM461 700v-109c0 -52 -12.167 -92 -36.5 -120s-57.833 -42 -100.5 -42h-32v271h169z" />
    <glyph glyph-name="quotedblbase" unicode="&#x201e;" horiz-adv-x="502" 
d="M210 184v-109c0 -52 -12.167 -92 -36.5 -120s-57.833 -42 -100.5 -42h-32v271h169zM461 184v-109c0 -52 -12.167 -92 -36.5 -120s-57.833 -42 -100.5 -42h-32v271h169z" />
    <glyph glyph-name="dagger" unicode="&#x2020;" horiz-adv-x="535" 
d="M306 700v-164h163v-76h-163v-460h-76v460h-164v76h164v164h76z" />
    <glyph glyph-name="daggerdbl" unicode="&#x2021;" horiz-adv-x="535" 
d="M306 700v-164h163v-76h-163v-220h163v-76h-163v-164h-76v164h-164v76h164v220h-164v76h164v164h76z" />
    <glyph glyph-name="bullet" unicode="&#x2022;" horiz-adv-x="418" 
d="M66 377c0 46 10.833 81.667 32.5 107s58.5 38 110.5 38s88.833 -12.667 110.5 -38s32.5 -61 32.5 -107v-54c0 -46 -10.833 -81.667 -32.5 -107s-58.5 -38 -110.5 -38s-88.833 12.667 -110.5 38s-32.5 61 -32.5 107v54z" />
    <glyph glyph-name="ellipsis" unicode="&#x2026;" horiz-adv-x="1145" 
d="M255 184v-184h-169v184h169zM657 184v-184h-169v184h169zM1059 184v-184h-169v184h169z" />
    <glyph glyph-name="perthousand" unicode="&#x2030;" horiz-adv-x="1265" 
d="M286 700c48.667 0 73 -24.333 73 -73v-239c0 -48.667 -24.333 -73 -73 -73h-161c-48.667 0 -73 24.333 -73 73v239c0 48.667 24.333 73 73 73h161zM156 437c0 -14 6.33301 -21 19 -21h60c13.333 0 20 7 20 21v141c0 14 -6.66699 21 -20 21h-60c-12.667 0 -19 -7 -19 -21
v-141zM729 700l-420 -700h-129l420 700h129zM783 385c48.667 0 73 -24.333 73 -73v-239c0 -48.667 -24.333 -73 -73 -73h-161c-48.667 -0 -73 24.333 -73 73v239c0 48.667 24.333 73 73 73h161zM653 122c0 -14 6.33301 -21 19 -21h60c13.333 0 20 7 20 21v141
c0 14 -6.66699 21 -20 21h-60c-12.667 0 -19 -7 -19 -21v-141zM1140 385c48.667 0 73 -24.333 73 -73v-239c0 -48.667 -24.333 -73 -73 -73h-161c-48.667 -0 -73 24.333 -73 73v239c0 48.667 24.333 73 73 73h161zM1010 122c0 -14 6.33301 -21 19 -21h60
c13.333 0 20 7 20 21v141c0 14 -6.66699 21 -20 21h-60c-12.667 0 -19 -7 -19 -21v-141z" />
    <glyph glyph-name="guilsinglleft" unicode="&#x2039;" horiz-adv-x="236" 
d="M214 604l-100 -247c-2 -4 -3 -8.33301 -3 -13v-84c0 -4 1 -8.33301 3 -13l100 -247h-86l-101 225c-2 6 -3.5 11.333 -4.5 16s-1.5 10 -1.5 16v90c0 6 0.5 11.333 1.5 16s2.5 10 4.5 16l101 225h86z" />
    <glyph glyph-name="guilsinglright" unicode="&#x203a;" horiz-adv-x="236" 
d="M107 604l101 -225c2 -6 3.5 -11.333 4.5 -16s1.5 -10 1.5 -16v-90c0 -6 -0.5 -11.333 -1.5 -16s-2.5 -10 -4.5 -16l-101 -225h-86l100 247c2 4.66699 3 9 3 13v84c0 4.66699 -1 9 -3 13l-100 247h86z" />
    <glyph glyph-name="fraction" unicode="&#x2044;" horiz-adv-x="190" 
d="M370 700l-420 -700h-129l420 700h129z" />
    <glyph glyph-name="zerosuperior" unicode="&#x2070;" horiz-adv-x="407" 
d="M284 700c48.667 0 73 -24.333 73 -73v-239c0 -48.667 -24.333 -73 -73 -73h-161c-48.667 0 -73 24.333 -73 73v239c0 48.667 24.333 73 73 73h161zM154 437c0 -14 6.33301 -21 19 -21h60c13.333 0 20 7 20 21v141c0 14 -6.66699 21 -20 21h-60c-12.667 0 -19 -7 -19 -21
v-141z" />
    <glyph glyph-name="foursuperior" unicode="&#x2074;" horiz-adv-x="378" 
d="M309 701l-131.999 -198.001v-3h154v-185h-104v94h-158c-22.667 0 -34 11.333 -34 34v28c0 5.33301 0.666992 9.83301 2 13.5s3.66602 7.83398 6.99902 12.501l140 204h125z" />
    <glyph glyph-name="fivesuperior" unicode="&#x2075;" horiz-adv-x="386" 
d="M326 700l-0.000976562 -101h-175c-4 0 -6 -2 -6 -6v-37c0 -4 2 -6 6 -6h96c62.667 0 94 -30 94 -90v-43c0 -68 -34.667 -102 -104 -102h-188v101h174c13.333 0 20 7 20 21v12c0 6.66699 -1.16699 11.5 -3.5 14.5s-7.16602 4.5 -14.499 4.5h-141c-24.667 0 -37 13 -37 39
v157c0 24 12.333 36 37 36h242z" />
    <glyph glyph-name="sixsuperior" unicode="&#x2076;" horiz-adv-x="388" 
d="M322 700l-0.000976562 -101.001h-155c-13.333 0 -20 -7 -20 -21v-141c0 -14 6.66699 -21 20 -21h58c13.333 0 20 7 20 21v12c0 6.66699 -1.16699 11.5 -3.5 14.5s-7.16602 4.5 -14.499 4.5h-63v82h85c34 0 58.167 -7.66699 72.5 -23s21.5 -37.666 21.5 -66.999v-43
c0 -68 -34.667 -102 -104 -102h-86c-69.333 0 -104 34 -104 102v181c0 68 34.667 102 104 102h169z" />
    <glyph glyph-name="sevensuperior" unicode="&#x2077;" horiz-adv-x="336" 
d="M274 700c22.667 0 34 -11.666 34 -34.999v-37c0 -10.667 -2.66699 -21.334 -8 -32.001l-122 -281h-120l127 284h-156v101h245z" />
    <glyph glyph-name="eightsuperior" unicode="&#x2078;" horiz-adv-x="398" 
d="M243 700c69.333 0 104 -34 104 -102v-23c0 -18.667 -2.33301 -32.167 -7 -40.5s-11.667 -15.166 -21 -20.499c10.667 -4.66699 19.167 -12.334 25.5 -23.001s9.5 -24.667 9.5 -42v-32c0 -68 -34.667 -102 -104 -102h-102c-69.333 0 -104 34 -104 102v32
c0 17.333 3.16699 31.333 9.5 42s14.833 18.334 25.5 23.001c-9.33301 5.33301 -16.333 12.166 -21 20.499s-7 21.833 -7 40.5v23c0 68 34.667 102 104 102h88zM142 433c-1.33301 -14 5.33105 -21 19.998 -21h74c13.333 0 20 7 20 21v11c0 5.33301 -1.16699 10 -3.5 14
s-7.16602 6 -14.499 6h-78c-7.33301 0 -12.166 -2 -14.499 -6s-3.5 -8.66699 -3.5 -14v-11zM148.997 571c0 -5.33301 1.16895 -10 3.50195 -14s7.16602 -6 14.499 -6h64c7.33301 0 12.166 2 14.499 6s3.5 8.66699 3.5 14v11c0 14 -6.33301 21 -19 21h-62
c-12.667 0 -19 -7 -19 -21v-11z" />
    <glyph glyph-name="ninesuperior" unicode="&#x2079;" horiz-adv-x="388" 
d="M234 700c69.333 0 104.001 -34.001 104.001 -102.001v-181c0 -68 -34.667 -102 -104 -102h-174v101h159c13.333 0 20 7 20 21v141c0 14 -6.66699 21 -20 21h-57c-12.667 0 -19 -7 -19 -21v-12c0 -6.66699 1.16699 -11.5 3.5 -14.5s7.16602 -4.5 14.499 -4.5h61v-82h-83
c-34 0 -58.167 7.83301 -72.5 23.5s-21.5 37.834 -21.5 66.501v43c0 68 34.667 102 104 102h85z" />
    <glyph glyph-name="zeroinferior" unicode="&#x2080;" horiz-adv-x="407" 
d="M284 385c48.667 0 73 -24.333 73 -73v-239c0 -48.667 -24.333 -73 -73 -73h-161c-48.667 -0 -73 24.333 -73 73v239c0 48.667 24.333 73 73 73h161zM154 122c0 -14 6.33301 -21 19 -21h60c13.333 0 20 7 20 21v141c0 14 -6.66699 21 -20 21h-60c-12.667 0 -19 -7 -19 -21
v-141z" />
    <glyph glyph-name="oneinferior" unicode="&#x2081;" horiz-adv-x="221" 
d="M136 385c22.667 0 34 -11.667 34 -35v-350h-104v274c0 6.66699 -2.66699 10 -8 10h-29v101h107z" />
    <glyph glyph-name="twoinferior" unicode="&#x2082;" horiz-adv-x="386" 
d="M236 385c69.333 0 104 -34 104 -102v-46c0 -23.333 -6.66699 -43.166 -20 -59.499s-36 -24.5 -68 -24.5h-90c-12 0 -18 -6.33301 -18 -19v-24c0 -6 2.33301 -9 7 -9h184v-101h-239c-33.333 0 -50 17 -50 51v91c0 29.333 7.16699 51.666 21.5 66.999s38.5 23 72.5 23h84
c12 0 18 6.66699 18 20v11c0 14 -6.66699 21 -20 21h-160v101h174z" />
    <glyph glyph-name="threeinferior" unicode="&#x2083;" horiz-adv-x="376" 
d="M222 385c69.333 0 104.001 -34 104.001 -102v-23c0 -18.667 -2.33301 -32.167 -7 -40.5s-11.667 -15.166 -21 -20.499c10.667 -4.66699 19 -12.334 25 -23.001s9 -24.667 9 -42v-32c0 -68 -34.667 -102 -104 -102h-180v99h166c12.667 0 19 7 19 21v9
c0 5.33301 -1 10 -3 14s-6.66699 6 -14 6h-164v87h157c7.33301 0 12.166 2 14.499 6s3.5 8.66699 3.5 14v9c0 14 -6.66699 21 -20 21h-159v99h174z" />
    <glyph glyph-name="fourinferior" unicode="&#x2084;" horiz-adv-x="378" 
d="M309 386l-131.999 -198.001v-3h154v-185h-104v94h-158c-22.667 0 -34 11.333 -34 34v28c0 5.33301 0.666992 9.83301 2 13.5s3.66602 7.83398 6.99902 12.501l140 204h125z" />
    <glyph glyph-name="fiveinferior" unicode="&#x2085;" horiz-adv-x="386" 
d="M326 385l-0.000976562 -101h-175c-4 0 -6 -2 -6 -6v-37c0 -4 2 -6 6 -6h96c62.667 0 94 -30 94 -90v-43c0 -68 -34.667 -102 -104 -102h-188v101h174c13.333 0 20 7 20 21v12c0 6.66699 -1.16699 11.5 -3.5 14.5s-7.16602 4.5 -14.499 4.5h-141c-24.667 0 -37 13 -37 39
v157c0 24 12.333 36 37 36h242z" />
    <glyph glyph-name="sixinferior" unicode="&#x2086;" horiz-adv-x="388" 
d="M322 385l-0.000976562 -101.001h-155c-13.333 0 -20 -7 -20 -21v-141c0 -14 6.66699 -21 20 -21h58c13.333 0 20 7 20 21v12c0 6.66699 -1.16699 11.5 -3.5 14.5s-7.16602 4.5 -14.499 4.5h-63v82h85c34 0 58.167 -7.66699 72.5 -23s21.5 -37.666 21.5 -66.999v-43
c0 -68 -34.667 -102 -104 -102h-86c-69.333 0 -104 34 -104 102v181c0 68 34.667 102 104 102h169z" />
    <glyph glyph-name="seveninferior" unicode="&#x2087;" horiz-adv-x="336" 
d="M274 385c22.667 0 34 -11.666 34 -34.999v-37c0 -10.667 -2.66699 -21.334 -8 -32.001l-122 -281h-120l127 284h-156v101h245z" />
    <glyph glyph-name="eightinferior" unicode="&#x2088;" horiz-adv-x="398" 
d="M243 385c69.333 0 104 -34 104 -102v-23c0 -18.667 -2.33301 -32.167 -7 -40.5s-11.667 -15.166 -21 -20.499c10.667 -4.66699 19.167 -12.334 25.5 -23.001s9.5 -24.667 9.5 -42v-32c0 -68 -34.667 -102 -104 -102h-102c-69.333 0 -104 34 -104 102v32
c0 17.333 3.16699 31.333 9.5 42s14.833 18.334 25.5 23.001c-9.33301 5.33301 -16.333 12.166 -21 20.499s-7 21.833 -7 40.5v23c0 68 34.667 102 104 102h88zM142 118c-1.33301 -14 5.33105 -21 19.998 -21h74c13.333 0 20 7 20 21v11c0 5.33301 -1.16699 10 -3.5 14
s-7.16602 6 -14.499 6h-78c-7.33301 0 -12.166 -2 -14.499 -6s-3.5 -8.66699 -3.5 -14v-11zM148.997 256c0 -5.33301 1.16895 -10 3.50195 -14s7.16602 -6 14.499 -6h64c7.33301 0 12.166 2 14.499 6s3.5 8.66699 3.5 14v11c0 14 -6.33301 21 -19 21h-62
c-12.667 0 -19 -7 -19 -21v-11z" />
    <glyph glyph-name="nineinferior" unicode="&#x2089;" horiz-adv-x="388" 
d="M234 385c69.333 0 104.001 -34.001 104.001 -102.001v-181c0 -68 -34.667 -102 -104 -102h-174v101h159c13.333 0 20 7 20 21v141c0 14 -6.66699 21 -20 21h-57c-12.667 0 -19 -7 -19 -21v-12c0 -6.66699 1.16699 -11.5 3.5 -14.5s7.16602 -4.5 14.499 -4.5h61v-82h-83
c-34 0 -58.167 7.83301 -72.5 23.5s-21.5 37.834 -21.5 66.501v43c0 68 34.667 102 104 102h85z" />
    <glyph glyph-name="Euro" unicode="&#x20ac;" horiz-adv-x="676" 
d="M119 430c2.66699 42.667 10.499 80.668 23.499 114.001s31.833 61.5 56.5 84.5s55.834 40.667 93.501 53s82.167 18.5 133.5 18.5h184l-53 -183h-128c-36 0 -63.5 -6.5 -82.5 -19.5s-31.167 -35.5 -36.5 -67.5h222l-45 -156h-178c5.33301 -34 17.333 -57.5 36 -70.5
s46.667 -19.5 84 -19.5h156v-184h-159c-52 0 -96.833 6.16699 -134.5 18.5s-69 30.166 -94 53.499s-44 52 -57 86s-20.5 72.667 -22.5 116h-52v156h53z" />
    <glyph glyph-name="uni20B9" unicode="&#x20b9;" horiz-adv-x="639" 
d="M596 486l0.000976562 -153h-67v-10c0 -34 -6.5 -61 -19.5 -81s-30.167 -33 -51.5 -39l83 -203h-178l-92 204v75h47c13.333 0 22.166 3.5 26.499 10.5s6.5 15.5 6.5 25.5v18h-309v153h554zM596.001 700v-183h-554v183h554z" />
    <glyph glyph-name="uni20BA" unicode="&#x20ba;" horiz-adv-x="659" 
d="M248 700l-0.000976562 -131.001l329 60v-156l-329 -60v-212c0 -11.333 5 -17 15 -17h52c43.333 0 74.5 9.33301 93.5 28s28.5 52.334 28.5 101.001v30h169v-39c0 -48 -4.66699 -90.833 -14 -128.5s-25.166 -69.5 -47.499 -95.5s-52 -45.833 -89 -59.5
s-82.833 -20.5 -137.5 -20.5h-197c-41.333 0 -62 20.667 -62 62v317l-36 -6v156l36 6v165h189z" />
    <glyph glyph-name="uni20BD" unicode="&#x20bd;" horiz-adv-x="711" 
d="M465 700c126 0 189 -62 189 -186v-41c0 -61.333 -15.667 -110 -47 -146s-78.666 -54 -141.999 -54h-128v156h106c13.333 0 22.166 3.5 26.499 10.5s6.5 15.5 6.5 25.5v21c0 25.333 -12 38 -36 38h-119c-10 0 -15 -5.66699 -15 -17v-507h-189v64h-86v156h86v53h-86v156h86
v209c0 41.333 20.667 62 62 62h286zM645 220v-156h-308v156h308z" />
    <glyph glyph-name="uni2117" unicode="&#x2117;" horiz-adv-x="782" 
d="M537 800c33.333 0 62.166 -5 86.499 -15s44.333 -24.167 60 -42.5s27.334 -40.333 35.001 -66s11.5 -54.5 11.5 -86.5v-480c0 -32 -3.83301 -60.833 -11.5 -86.5s-19.334 -47.667 -35.001 -66s-35.667 -32.5 -60 -42.5s-53.166 -15 -86.499 -15h-292
c-33.333 0 -62.166 5 -86.499 15s-44.333 24.167 -60 42.5s-27.334 40.333 -35.001 66s-11.5 54.5 -11.5 86.5v480c0 32 3.83301 60.833 11.5 86.5s19.334 47.667 35.001 66s35.667 32.5 60 42.5s53.166 15 86.499 15h292zM170 115c0 -32 6.5 -56.833 19.5 -74.5
s32.167 -26.5 57.5 -26.5h288c25.333 0 44.5 8.83301 57.5 26.5s19.5 42.5 19.5 74.5v470c0 30.667 -6.5 55.167 -19.5 73.5s-32.167 27.5 -57.5 27.5h-288c-25.333 0 -44.5 -9.16699 -57.5 -27.5s-19.5 -42.833 -19.5 -73.5v-470zM444 545c70 0 105 -34.333 105 -103v-23
c0 -34 -8.66699 -61.167 -26 -81.5s-43.666 -30.5 -78.999 -30.5h-71v88h59c7.33301 0 12.166 1.83301 14.499 5.5s3.5 8.5 3.5 14.5v11c0 14 -6.66699 21 -20 21h-66c-5.33301 0 -8 -3 -8 -9v-282h-105v355c0 22.667 11.333 34 34 34h159z" />
    <glyph glyph-name="trademark" unicode="&#x2122;" horiz-adv-x="1055" 
d="M391 700v-120h-350v120h350zM278 560v-317h-123v317h123zM658 700c16 0 28.668 -3.5 38.001 -10.5s15.666 -15.167 18.999 -24.5c4 9.33301 10.667 17.5 20 24.5s22 10.5 38 10.5h130c57.333 0 86 -29 86 -87v-370h-123v313c0 16 -7.66699 24 -23 24h-45
c-15.333 0 -23 -8 -23 -24v-313h-60h-59v313c0 16 -7.66699 24 -23 24h-45c-15.333 0 -23 -8 -23 -24v-313h-123v370c0 58 28.667 87 86 87h130z" />
    <glyph glyph-name="onethird" unicode="&#x2153;" horiz-adv-x="818" 
d="M159 700c22.667 0 34 -11.667 34 -35v-350h-104v274c0 6.66699 -2.66699 10 -8 10h-29v101h107zM614 700l-420 -700h-129l420 700h129zM656 385c69.333 0 104.001 -34 104.001 -102v-23c0 -18.667 -2.33301 -32.167 -7 -40.5s-11.667 -15.166 -21 -20.499
c10.667 -4.66699 19 -12.334 25 -23.001s9 -24.667 9 -42v-32c0 -68 -34.667 -102 -104 -102h-180v99h166c12.667 0 19 7 19 21v9c0 5.33301 -1 10 -3 14s-6.66699 6 -14 6h-164v87h157c7.33301 0 12.166 2 14.499 6s3.5 8.66699 3.5 14v9c0 14 -6.66699 21 -20 21h-159v99
h174z" />
    <glyph glyph-name="twothirds" unicode="&#x2154;" horiz-adv-x="966" 
d="M242 700c69.333 0 104 -34 104 -102v-46c0 -23.333 -6.66699 -43.166 -20 -59.499s-36 -24.5 -68 -24.5h-90c-12 0 -18 -6.33301 -18 -19v-24c0 -6 2.33301 -9 7 -9h184v-101h-239c-33.333 0 -50 17 -50 51v91c0 29.333 7.16699 51.666 21.5 66.999s38.5 23 72.5 23h84
c12 0 18 6.66699 18 20v11c0 14 -6.66699 21 -20 21h-160v101h174zM762 700l-420 -700h-129l420 700h129zM804 385c69.333 0 104.001 -34 104.001 -102v-23c0 -18.667 -2.33301 -32.167 -7 -40.5s-11.667 -15.166 -21 -20.499c10.667 -4.66699 19 -12.334 25 -23.001
s9 -24.667 9 -42v-32c0 -68 -34.667 -102 -104 -102h-180v99h166c12.667 0 19 7 19 21v9c0 5.33301 -1 10 -3 14s-6.66699 6 -14 6h-164v87h157c7.33301 0 12.166 2 14.499 6s3.5 8.66699 3.5 14v9c0 14 -6.66699 21 -20 21h-159v99h174z" />
    <glyph glyph-name="uni2155" unicode="&#x2155;" horiz-adv-x="827" 
d="M159 700c22.667 0 34 -11.667 34 -35v-350h-104v274c0 6.66699 -2.66699 10 -8 10h-29v101h107zM614 700l-420 -700h-129l420 700h129zM760 385l-0.000976562 -101h-175c-4 0 -6 -2 -6 -6v-37c0 -4 2 -6 6 -6h96c62.667 0 94 -30 94 -90v-43
c0 -68 -34.667 -102 -104 -102h-188v101h174c13.333 0 20 7 20 21v12c0 6.66699 -1.16699 11.5 -3.5 14.5s-7.16602 4.5 -14.499 4.5h-141c-24.667 0 -37 13 -37 39v157c0 24 12.333 36 37 36h242z" />
    <glyph glyph-name="uni2156" unicode="&#x2156;" horiz-adv-x="975" 
d="M242 700c69.333 0 104 -34 104 -102v-46c0 -23.333 -6.66699 -43.166 -20 -59.499s-36 -24.5 -68 -24.5h-90c-12 0 -18 -6.33301 -18 -19v-24c0 -6 2.33301 -9 7 -9h184v-101h-239c-33.333 0 -50 17 -50 51v91c0 29.333 7.16699 51.666 21.5 66.999s38.5 23 72.5 23h84
c12 0 18 6.66699 18 20v11c0 14 -6.66699 21 -20 21h-160v101h174zM762 700l-420 -700h-129l420 700h129zM908 385l-0.000976562 -101h-175c-4 0 -6 -2 -6 -6v-37c0 -4 2 -6 6 -6h96c62.667 0 94 -30 94 -90v-43c0 -68 -34.667 -102 -104 -102h-188v101h174
c13.333 0 20 7 20 21v12c0 6.66699 -1.16699 11.5 -3.5 14.5s-7.16602 4.5 -14.499 4.5h-141c-24.667 0 -37 13 -37 39v157c0 24 12.333 36 37 36h242z" />
    <glyph glyph-name="uni2157" unicode="&#x2157;" horiz-adv-x="963" 
d="M226 700c69.333 0 104.001 -34 104.001 -102v-23c0 -18.667 -2.33301 -32.167 -7 -40.5s-11.667 -15.166 -21 -20.499c10.667 -4.66699 19 -12.334 25 -23.001s9 -24.667 9 -42v-32c0 -68 -34.667 -102 -104 -102h-180v99h166c12.667 0 19 7 19 21v9
c0 5.33301 -1 10 -3 14s-6.66699 6 -14 6h-164v87h157c7.33301 0 12.166 2 14.499 6s3.5 8.66699 3.5 14v9c0 14 -6.66699 21 -20 21h-159v99h174zM750.001 700l-420 -700h-129l420 700h129zM896.001 385l-0.000976562 -101h-175c-4 0 -6 -2 -6 -6v-37c0 -4 2 -6 6 -6h96
c62.667 0 94 -30 94 -90v-43c0 -68 -34.667 -102 -104 -102h-188v101h174c13.333 0 20 7 20 21v12c0 6.66699 -1.16699 11.5 -3.5 14.5s-7.16602 4.5 -14.499 4.5h-141c-24.667 0 -37 13 -37 39v157c0 24 12.333 36 37 36h242z" />
    <glyph glyph-name="uni2158" unicode="&#x2158;" horiz-adv-x="978" 
d="M326 701l-131.999 -198.001v-3h154v-185h-104v94h-158c-22.667 0 -34 11.333 -34 34v28c0 5.33301 0.666992 9.83301 2 13.5s3.66602 7.83398 6.99902 12.501l140 204h125zM765.001 699.999l-420 -700h-129l420 700h129zM911.001 384.999l-0.000976562 -101h-175
c-4 0 -6 -2 -6 -6v-37c0 -4 2 -6 6 -6h96c62.667 0 94 -30 94 -90v-43c0 -68 -34.667 -102 -104 -102h-188v101h174c13.333 0 20 7 20 21v12c0 6.66699 -1.16699 11.5 -3.5 14.5s-7.16602 4.5 -14.499 4.5h-141c-24.667 0 -37 13 -37 39v157c0 24 12.333 36 37 36h242z" />
    <glyph glyph-name="uni2159" unicode="&#x2159;" horiz-adv-x="799" 
d="M159 700c22.667 0 34 -11.667 34 -35v-350h-104v274c0 6.66699 -2.66699 10 -8 10h-29v101h107zM614 700l-420 -700h-129l420 700h129zM726 385l-0.000976562 -101.001h-155c-13.333 0 -20 -7 -20 -21v-141c0 -14 6.66699 -21 20 -21h58c13.333 0 20 7 20 21v12
c0 6.66699 -1.16699 11.5 -3.5 14.5s-7.16602 4.5 -14.499 4.5h-63v82h85c34 0 58.167 -7.66699 72.5 -23s21.5 -37.666 21.5 -66.999v-43c0 -68 -34.667 -102 -104 -102h-86c-69.333 0 -104 34 -104 102v181c0 68 34.667 102 104 102h169z" />
    <glyph glyph-name="uni215A" unicode="&#x215a;" horiz-adv-x="916" 
d="M331 700l-0.000976562 -101h-175c-4 0 -6 -2 -6 -6v-37c0 -4 2 -6 6 -6h96c62.667 0 94 -30 94 -90v-43c0 -68 -34.667 -102 -104 -102h-188v101h174c13.333 0 20 7 20 21v12c0 6.66699 -1.16699 11.5 -3.5 14.5s-7.16602 4.5 -14.499 4.5h-141c-24.667 0 -37 13 -37 39
v157c0 24 12.333 36 37 36h242zM730.999 700l-420 -700h-129l420 700h129zM842.999 385l-0.000976562 -101.001h-155c-13.333 0 -20 -7 -20 -21v-141c0 -14 6.66699 -21 20 -21h58c13.333 0 20 7 20 21v12c0 6.66699 -1.16699 11.5 -3.5 14.5s-7.16602 4.5 -14.499 4.5h-63
v82h85c34 0 58.167 -7.66699 72.5 -23s21.5 -37.666 21.5 -66.999v-43c0 -68 -34.667 -102 -104 -102h-86c-69.333 0 -104 34 -104 102v181c0 68 34.667 102 104 102h169z" />
    <glyph glyph-name="oneeighth" unicode="&#x215b;" horiz-adv-x="810" 
d="M159 700c22.667 0 34 -11.667 34 -35v-350h-104v274c0 6.66699 -2.66699 10 -8 10h-29v101h107zM614 700l-420 -700h-129l420 700h129zM647 385c69.333 0 104 -34 104 -102v-23c0 -18.667 -2.33301 -32.167 -7 -40.5s-11.667 -15.166 -21 -20.499
c10.667 -4.66699 19.167 -12.334 25.5 -23.001s9.5 -24.667 9.5 -42v-32c0 -68 -34.667 -102 -104 -102h-102c-69.333 0 -104 34 -104 102v32c0 17.333 3.16699 31.333 9.5 42s14.833 18.334 25.5 23.001c-9.33301 5.33301 -16.333 12.166 -21 20.499s-7 21.833 -7 40.5v23
c0 68 34.667 102 104 102h88zM546 118c-1.33301 -14 5.33105 -21 19.998 -21h74c13.333 0 20 7 20 21v11c0 5.33301 -1.16699 10 -3.5 14s-7.16602 6 -14.499 6h-78c-7.33301 0 -12.166 -2 -14.499 -6s-3.5 -8.66699 -3.5 -14v-11zM552.997 256
c0 -5.33301 1.16895 -10 3.50195 -14s7.16602 -6 14.499 -6h64c7.33301 0 12.166 2 14.499 6s3.5 8.66699 3.5 14v11c0 14 -6.33301 21 -19 21h-62c-12.667 0 -19 -7 -19 -21v-11z" />
    <glyph glyph-name="threeeighths" unicode="&#x215c;" horiz-adv-x="916" 
d="M226 700c69.333 0 104.001 -34 104.001 -102v-23c0 -18.667 -2.33301 -32.167 -7 -40.5s-11.667 -15.166 -21 -20.499c10.667 -4.66699 19 -12.334 25 -23.001s9 -24.667 9 -42v-32c0 -68 -34.667 -102 -104 -102h-180v99h166c12.667 0 19 7 19 21v9
c0 5.33301 -1 10 -3 14s-6.66699 6 -14 6h-164v87h157c7.33301 0 12.166 2 14.499 6s3.5 8.66699 3.5 14v9c0 14 -6.66699 21 -20 21h-159v99h174zM720.001 700l-420 -700h-129l420 700h129zM753.001 385c69.333 0 104 -34 104 -102v-23
c0 -18.667 -2.33301 -32.167 -7 -40.5s-11.667 -15.166 -21 -20.499c10.667 -4.66699 19.167 -12.334 25.5 -23.001s9.5 -24.667 9.5 -42v-32c0 -68 -34.667 -102 -104 -102h-102c-69.333 0 -104 34 -104 102v32c0 17.333 3.16699 31.333 9.5 42s14.833 18.334 25.5 23.001
c-9.33301 5.33301 -16.333 12.166 -21 20.499s-7 21.833 -7 40.5v23c0 68 34.667 102 104 102h88zM652.001 118c-1.33301 -14 5.33105 -21 19.998 -21h74c13.333 0 20 7 20 21v11c0 5.33301 -1.16699 10 -3.5 14s-7.16602 6 -14.499 6h-78c-7.33301 0 -12.166 -2 -14.499 -6
s-3.5 -8.66699 -3.5 -14v-11zM658.998 256c0 -5.33301 1.16895 -10 3.50195 -14s7.16602 -6 14.499 -6h64c7.33301 0 12.166 2 14.499 6s3.5 8.66699 3.5 14v11c0 14 -6.33301 21 -19 21h-62c-12.667 0 -19 -7 -19 -21v-11z" />
    <glyph glyph-name="fiveeighths" unicode="&#x215d;" horiz-adv-x="927" 
d="M331 700l-0.000976562 -101h-175c-4 0 -6 -2 -6 -6v-37c0 -4 2 -6 6 -6h96c62.667 0 94 -30 94 -90v-43c0 -68 -34.667 -102 -104 -102h-188v101h174c13.333 0 20 7 20 21v12c0 6.66699 -1.16699 11.5 -3.5 14.5s-7.16602 4.5 -14.499 4.5h-141c-24.667 0 -37 13 -37 39
v157c0 24 12.333 36 37 36h242zM730.999 700l-420 -700h-129l420 700h129zM763.999 385c69.333 0 104 -34 104 -102v-23c0 -18.667 -2.33301 -32.167 -7 -40.5s-11.667 -15.166 -21 -20.499c10.667 -4.66699 19.167 -12.334 25.5 -23.001s9.5 -24.667 9.5 -42v-32
c0 -68 -34.667 -102 -104 -102h-102c-69.333 0 -104 34 -104 102v32c0 17.333 3.16699 31.333 9.5 42s14.833 18.334 25.5 23.001c-9.33301 5.33301 -16.333 12.166 -21 20.499s-7 21.833 -7 40.5v23c0 68 34.667 102 104 102h88zM662.999 118
c-1.33301 -14 5.33105 -21 19.998 -21h74c13.333 0 20 7 20 21v11c0 5.33301 -1.16699 10 -3.5 14s-7.16602 6 -14.499 6h-78c-7.33301 0 -12.166 -2 -14.499 -6s-3.5 -8.66699 -3.5 -14v-11zM669.996 256c0 -5.33301 1.16895 -10 3.50195 -14s7.16602 -6 14.499 -6h64
c7.33301 0 12.166 2 14.499 6s3.5 8.66699 3.5 14v11c0 14 -6.33301 21 -19 21h-62c-12.667 0 -19 -7 -19 -21v-11z" />
    <glyph glyph-name="seveneighths" unicode="&#x215e;" horiz-adv-x="875" 
d="M297 700c22.667 0 34 -11.666 34 -34.999v-37c0 -10.667 -2.66699 -21.334 -8 -32.001l-122 -281h-120l127 284h-156v101h245zM679 700.001l-420 -700h-129l420 700h129zM712 385.001c69.333 0 104 -34 104 -102v-23c0 -18.667 -2.33301 -32.167 -7 -40.5
s-11.667 -15.166 -21 -20.499c10.667 -4.66699 19.167 -12.334 25.5 -23.001s9.5 -24.667 9.5 -42v-32c0 -68 -34.667 -102 -104 -102h-102c-69.333 0 -104 34 -104 102v32c0 17.333 3.16699 31.333 9.5 42s14.833 18.334 25.5 23.001
c-9.33301 5.33301 -16.333 12.166 -21 20.499s-7 21.833 -7 40.5v23c0 68 34.667 102 104 102h88zM611 118.001c-1.33301 -14 5.33105 -21 19.998 -21h74c13.333 0 20 7 20 21v11c0 5.33301 -1.16699 10 -3.5 14s-7.16602 6 -14.499 6h-78c-7.33301 0 -12.166 -2 -14.499 -6
s-3.5 -8.66699 -3.5 -14v-11zM617.997 256.001c0 -5.33301 1.16895 -10 3.50195 -14s7.16602 -6 14.499 -6h64c7.33301 0 12.166 2 14.499 6s3.5 8.66699 3.5 14v11c0 14 -6.33301 21 -19 21h-62c-12.667 0 -19 -7 -19 -21v-11z" />
    <glyph glyph-name="partialdiff" unicode="&#x2202;" horiz-adv-x="510" 
d="M209 693c7.33301 1.33301 15.1699 2.66992 23.5029 4.00293s17.166 2 26.499 2c28 0 55 -5.5 81 -16.5s49 -28.833 69 -53.5s36 -56.834 48 -96.501s18 -87.834 18 -144.501c0 -50 -3.66699 -99 -11 -147s-20 -91 -38 -129s-41.833 -68.667 -71.5 -92
s-66.5 -35 -110.5 -35c-72.667 0 -125.667 19.167 -159 57.5s-50 93.166 -50 164.499c0 43.333 4.66699 80.166 14 110.499s22.666 55 39.999 74s37.833 32.833 61.5 41.5s50.167 13 79.5 13c32 0 60.667 -7.66699 86 -23s44.666 -35.666 57.999 -60.999
c1.33301 6.66699 2 13.167 2 19.5v24.5c0 60 -12.333 105.667 -37 137s-57 47 -97 47c-10.667 0 -21.667 -1.66699 -33 -5v108zM358.004 260.004c-4 11.333 -9.00098 21.667 -15.001 31s-13.833 17.5 -23.5 24.5s-21.167 12.5 -34.5 16.5s-29.666 6 -48.999 6
c-30 0 -53.833 -10.333 -71.5 -31s-26.5 -54.667 -26.5 -102c0 -38 9.16699 -66.667 27.5 -86s41.833 -29 70.5 -29c70 0 110.667 56.667 122 170z" />
    <glyph glyph-name="product" unicode="&#x220f;" horiz-adv-x="714" 
d="M648 750v-1021h-114v907h-354v-907h-114v1021h582z" />
    <glyph glyph-name="summation" unicode="&#x2211;" horiz-adv-x="604" 
d="M573 700v-115h-369l198 -359l-198 -361h369v-114h-543v19l261 456l-261 455v19h543z" />
    <glyph glyph-name="minus" unicode="&#x2212;" horiz-adv-x="742" 
d="M676 406v-114h-610v114h610z" />
    <glyph glyph-name="radical" unicode="&#x221a;" horiz-adv-x="591" 
d="M208 406l80 -282h2l168 576h114l-197 -667c-6.66699 -22 -22.667 -33 -48 -33h-76c-25.333 0 -41.333 11 -48 33l-77 259h-96v114h178z" />
    <glyph glyph-name="infinity" unicode="&#x221e;" horiz-adv-x="939" 
d="M467 425c14.667 15.333 30.167 29.333 46.5 42s33.833 23.5 52.5 32.5s39 16 61 21s46.667 7.5 74 7.5c28 0 53.833 -4.16699 77.5 -12.5s44.334 -20.666 62.001 -36.999s31.5 -36.833 41.5 -61.5s15 -53 15 -85s-5 -60.167 -15 -84.5s-23.667 -44.666 -41 -60.999
s-38 -28.833 -62 -37.5s-50 -13 -78 -13s-53.167 2.5 -75.5 7.5s-42.833 12 -61.5 21s-36 19.667 -52 32s-31 25.833 -45 40.5c-23.333 -30 -53.333 -54.333 -90 -73s-82.334 -28 -137.001 -28c-28.667 0 -55.167 4.33301 -79.5 13s-45.333 21.167 -63 37.5
s-31.5 36.666 -41.5 60.999s-15 52.5 -15 84.5s5.16699 60.333 15.5 85s24.333 45.167 42 61.5s38.667 28.666 63 36.999s50.5 12.5 78.5 12.5c27.333 0 52 -2.5 74 -7.5s42 -12 60 -21s34.5 -19.833 49.5 -32.5s29.5 -26.667 43.5 -42zM415 328
c-11.333 12 -22.502 23.0029 -33.502 33.0029s-22.667 18.667 -35 26s-25.666 13 -39.999 17s-30.166 6 -47.499 6c-34 0 -58.667 -7.33301 -74 -22s-23 -33.334 -23 -56.001c0 -26.667 7.33301 -47 22 -61s39.667 -21 75 -21c18.667 0 35.667 2.16699 51 6.5
s29.333 10.166 42 17.499s24.167 15.666 34.5 24.999s19.833 19 28.5 29zM524.998 328.003c8.66699 -10 18.167 -19.6699 28.5 -29.0029s21.833 -17.666 34.5 -24.999s26.5 -13.166 41.5 -17.499s31.5 -6.5 49.5 -6.5c36 0 61.667 7 77 21s23 34.333 23 61
c0 22.667 -7.83301 41.334 -23.5 56.001s-41.167 22 -76.5 22c-34 0 -62.833 -7.66699 -86.5 -23s-46.167 -35 -67.5 -59z" />
    <glyph glyph-name="integral" unicode="&#x222b;" horiz-adv-x="379" 
d="M379 929v-114h-53c-25.333 0 -44.5 -9.16699 -57.5 -27.5s-19.5 -42.833 -19.5 -73.5v-775c0 -32 -3.83301 -60.833 -11.5 -86.5s-19.334 -47.667 -35.001 -66s-35.667 -32.5 -60 -42.5s-53.166 -15 -86.499 -15h-55v114h53c25.333 0 44.5 8.83301 57.5 26.5
s19.5 42.5 19.5 74.5v775c0 32 3.83301 60.833 11.5 86.5s19.334 47.667 35.001 66s35.667 32.5 60 42.5s53.166 15 86.499 15h55z" />
    <glyph glyph-name="approxequal" unicode="&#x2248;" horiz-adv-x="742" 
d="M66 495c15.333 19.333 35.501 34.3311 60.501 44.998s54.5 16 88.5 16c32 0 60.5 -4.16699 85.5 -12.5s48.5 -17.666 70.5 -27.999s44 -19.666 66 -27.999s46.333 -12.5 73 -12.5c26 0 52.667 5.66699 80 17s52.666 32 75.999 62h10v-123
c-18 -19.333 -42 -34.333 -72 -45s-61.333 -16 -94 -16c-30 0 -56.667 4 -80 12s-46 17 -68 27s-44.333 19 -67 27s-48 12 -76 12s-53.333 -5.5 -76 -16.5s-44.667 -30.5 -66 -58.5h-11v122zM66.001 254.998c15.333 19.333 35.501 34.3311 60.501 44.998s54.5 16 88.5 16
c32 0 60.5 -4.16699 85.5 -12.5s48.5 -17.666 70.5 -27.999s44 -19.666 66 -27.999s46.333 -12.5 73 -12.5c26 0 52.667 5.66699 80 17s52.666 32 75.999 62h10v-123c-18 -19.333 -42 -34.333 -72 -45s-61.333 -16 -94 -16c-30 0 -56.667 4 -80 12s-46 17 -68 27
s-44.333 19 -67 27s-48 12 -76 12s-53.333 -5.5 -76 -16.5s-44.667 -30.5 -66 -58.5h-11v122z" />
    <glyph glyph-name="notequal" unicode="&#x2260;" horiz-adv-x="742" 
d="M645 700l-83 -144h114v-114h-179l-106 -186h285v-114h-350l-81 -142h-149l81 142h-111v114h176l106 186h-282v114h347l83 144h149z" />
    <glyph glyph-name="lessequal" unicode="&#x2264;" horiz-adv-x="742" 
d="M676 700v-114l-486 -141v-2l486 -141v-114l-577 170c-22 6.66699 -33 22.667 -33 48v76c0 25.333 11 41.333 33 48zM676 114v-114h-610v114h610z" />
    <glyph glyph-name="greaterequal" unicode="&#x2265;" horiz-adv-x="742" 
d="M643 530c22 -6.66699 33 -22.667 33 -48v-76c0 -25.333 -11 -41.333 -33 -48l-577 -170v114l486 141v2l-486 141v114zM676 114v-114h-610v114h610z" />
    <glyph glyph-name="lozenge" unicode="&#x25ca;" horiz-adv-x="491" 
d="M284 700c25.333 0 41.333 -11 48 -33l93 -317l-93 -317c-6.66699 -22 -22.667 -33 -48 -33h-76c-25.333 0 -41.333 11 -48 33l-94 317l94 317c6.66699 22 22.667 33 48 33h76zM179 350l66 -226h2l65 226l-65 226h-2z" />
    <glyph glyph-name="nonmarkingreturn" horiz-adv-x="350" 
 />
    <glyph glyph-name=".ttfautohint" horiz-adv-x="455" 
d="M0 0z" />
    </font>
</defs>
</svg>
